<?xml version="1.0" encoding="utf-8"?>
<!-- Generator: Adobe Illustrator 16.0.0, SVG Export Plug-In . SVG Version: 6.00 Build 0)  -->
<!DOCTYPE svg PUBLIC "-//W3C//DTD SVG 1.1//EN" "http://www.w3.org/Graphics/SVG/1.1/DTD/svg11.dtd">
<svg version="1.1" xmlns="http://www.w3.org/2000/svg" xmlns:xlink="http://www.w3.org/1999/xlink" x="0px" y="0px" width="200px"
	 height="200px" viewBox="0 0 200 200" enable-background="new 0 0 200 200" xml:space="preserve">
<g id="background" display="none">
	<rect display="inline" fill="#0C132D" width="200" height="200"/>
</g>
<g id="Layer_1">
	<g>
		<linearGradient id="SVGID_1_" gradientUnits="userSpaceOnUse" x1="99.9995" y1="0" x2="99.9995" y2="200.0005">
			<stop  offset="0" style="stop-color:#FFFFFF"/>
			<stop  offset="0.2782" style="stop-color:#A1A6BA"/>
			<stop  offset="1" style="stop-color:#0C132D"/>
		</linearGradient>
		<path fill="url(#SVGID_1_)" d="M100,0C44.768,0,0,44.77,0,100c0,55.23,44.768,100,100,100c55.232,0,100-44.77,100-100
			C200,44.77,155.232,0,100,0z"/>
		<linearGradient id="SVGID_2_" gradientUnits="userSpaceOnUse" x1="100.0005" y1="193.9824" x2="100.0005" y2="6.0181">
			<stop  offset="0" style="stop-color:#FFFFFF"/>
			<stop  offset="0.6021" style="stop-color:#A1A6BA"/>
			<stop  offset="0.8204" style="stop-color:#00AEEF"/>
			<stop  offset="1" style="stop-color:#0C132D"/>
		</linearGradient>
		<path fill="url(#SVGID_2_)" stroke="#E4E3EF" stroke-miterlimit="10" d="M193.98,100c0,51.908-42.068,93.982-93.98,93.982
			c-51.911,0-93.98-42.074-93.98-93.982c0-51.909,42.07-93.982,93.98-93.982C151.912,6.018,193.98,48.091,193.98,100z"/>
		<linearGradient id="SVGID_3_" gradientUnits="userSpaceOnUse" x1="100" y1="11.1123" x2="100" y2="188.8882">
			<stop  offset="0" style="stop-color:#FFFFFF"/>
			<stop  offset="0.5282" style="stop-color:#00AEEF"/>
			<stop  offset="1" style="stop-color:#262262"/>
		</linearGradient>
		<path fill="url(#SVGID_3_)" d="M188.887,100c0,49.088-39.805,88.887-88.887,88.887c-49.091,0-88.886-39.799-88.886-88.887
			c0-49.093,39.795-88.888,88.886-88.888C149.082,11.112,188.887,50.907,188.887,100z"/>
		<path fill="#262262" d="M90.805,60.281"/>
		<path fill="#0C132D" d="M12.488,87.632c-0.643,4.296-0.988,8.688-0.988,13.165c0,49.09,39.625,88.888,88.5,88.888
			c48.87,0,88.5-39.798,88.5-88.888c0-4.477-0.349-8.869-0.987-13.165H12.488z"/>
		<g>
			<g>
				<linearGradient id="SVGID_4_" gradientUnits="userSpaceOnUse" x1="100.8872" y1="96.2129" x2="100.8872" y2="120.1724">
					<stop  offset="0" style="stop-color:#FFFFFF"/>
					<stop  offset="0.1585" style="stop-color:#00AEEF"/>
					<stop  offset="0.3521" style="stop-color:#0C132D"/>
					<stop  offset="1" style="stop-color:#A1A6BA"/>
				</linearGradient>
				<path fill="url(#SVGID_4_)" d="M19.504,118.355V96.545h5.91c2.237,0,3.649,0.09,4.58,0.293c1.421,0.311,2.628,1.124,3.493,2.352
					c0.805,1.146,1.196,2.673,1.196,4.671c0,1.409-0.166,2.482-0.526,3.341c0.15,0.309,0.263,0.621,0.34,0.94
					c0.118,0.489,0.186,1.144,0.186,3.043v7.17H19.504z"/>
				<linearGradient id="SVGID_5_" gradientUnits="userSpaceOnUse" x1="100.8872" y1="96.2129" x2="100.8872" y2="120.1724">
					<stop  offset="0" style="stop-color:#FFFFFF"/>
					<stop  offset="0.1585" style="stop-color:#00AEEF"/>
					<stop  offset="0.3521" style="stop-color:#0C132D"/>
					<stop  offset="1" style="stop-color:#A1A6BA"/>
				</linearGradient>
				<rect x="30.159" y="96.545" fill="url(#SVGID_5_)" width="10.063" height="21.811"/>
				<linearGradient id="SVGID_6_" gradientUnits="userSpaceOnUse" x1="100.8872" y1="96.2129" x2="100.8872" y2="120.1724">
					<stop  offset="0" style="stop-color:#FFFFFF"/>
					<stop  offset="0.1585" style="stop-color:#00AEEF"/>
					<stop  offset="0.3521" style="stop-color:#0C132D"/>
					<stop  offset="1" style="stop-color:#A1A6BA"/>
				</linearGradient>
				<polygon fill="url(#SVGID_6_)" points="37.223,118.355 34.323,99.396 50.259,99.396 47.559,118.355 				"/>
				<linearGradient id="SVGID_7_" gradientUnits="userSpaceOnUse" x1="100.8872" y1="96.2129" x2="100.8872" y2="120.1724">
					<stop  offset="0" style="stop-color:#FFFFFF"/>
					<stop  offset="0.1585" style="stop-color:#00AEEF"/>
					<stop  offset="0.3521" style="stop-color:#0C132D"/>
					<stop  offset="1" style="stop-color:#A1A6BA"/>
				</linearGradient>
				<path fill="url(#SVGID_7_)" d="M51.898,118.59c-1.194,0-2.294-0.187-3.269-0.556c-1.117-0.422-2.032-1.048-2.719-1.86
					c-0.639-0.756-1.09-1.609-1.342-2.539c-0.211-0.779-0.31-1.729-0.31-2.986v-3.779c0-1.593,0.243-2.886,0.742-3.952
					c0.589-1.26,1.585-2.268,2.879-2.916c1.112-0.557,2.373-0.839,3.745-0.839c1.64,0,3.07,0.35,4.251,1.039
					c1.292,0.754,2.224,1.798,2.77,3.103c0.409,0.979,0.626,2.174,0.662,3.642h0.005v5.16h-0.041c-0.037,0.504-0.1,0.942-0.19,1.326
					c-0.198,0.843-0.615,1.687-1.24,2.509c-0.687,0.903-1.568,1.59-2.618,2.04C54.268,118.391,53.18,118.59,51.898,118.59z"/>
				<linearGradient id="SVGID_8_" gradientUnits="userSpaceOnUse" x1="100.8872" y1="96.2129" x2="100.8872" y2="120.1724">
					<stop  offset="0" style="stop-color:#FFFFFF"/>
					<stop  offset="0.1585" style="stop-color:#00AEEF"/>
					<stop  offset="0.3521" style="stop-color:#0C132D"/>
					<stop  offset="1" style="stop-color:#A1A6BA"/>
				</linearGradient>
				<path fill="url(#SVGID_8_)" d="M54.602,118.355V99.396h7.817c0.475-0.142,0.91-0.204,1.263-0.228l3.199-0.213v10.767h-2.332
					c-0.001,0.154-0.002,8.633-0.002,8.633H54.602z"/>
				<linearGradient id="SVGID_9_" gradientUnits="userSpaceOnUse" x1="100.8872" y1="96.2129" x2="100.8872" y2="120.1724">
					<stop  offset="0" style="stop-color:#FFFFFF"/>
					<stop  offset="0.1585" style="stop-color:#00AEEF"/>
					<stop  offset="0.3521" style="stop-color:#0C132D"/>
					<stop  offset="1" style="stop-color:#A1A6BA"/>
				</linearGradient>
				<path fill="url(#SVGID_9_)" d="M73.197,118.688c-1.718,0-3.212-0.349-4.442-1.035c-1.435-0.802-2.451-2.01-2.939-3.493
					c-0.362-1.101-0.531-2.505-0.531-4.419v-4.619c0-1.288,0.047-2.26,0.145-2.972c0.146-1.066,0.568-2.081,1.252-3.013
					c0.7-0.954,1.649-1.699,2.82-2.215c1.066-0.47,2.27-0.709,3.578-0.709c1.752,0,3.276,0.378,4.53,1.123
					c1.404,0.834,2.362,1.955,2.849,3.329c0.371,1.047,0.543,2.401,0.543,4.263v4.706c0,2.01-0.16,3.421-0.504,4.44
					c-0.452,1.337-1.373,2.464-2.738,3.354C76.475,118.265,74.941,118.688,73.197,118.688z"/>
				<linearGradient id="SVGID_10_" gradientUnits="userSpaceOnUse" x1="100.8872" y1="96.2129" x2="100.8872" y2="120.1724">
					<stop  offset="0" style="stop-color:#FFFFFF"/>
					<stop  offset="0.1585" style="stop-color:#00AEEF"/>
					<stop  offset="0.3521" style="stop-color:#0C132D"/>
					<stop  offset="1" style="stop-color:#A1A6BA"/>
				</linearGradient>
				<rect x="76.359" y="96.545" fill="url(#SVGID_10_)" width="10.063" height="21.811"/>
				<linearGradient id="SVGID_11_" gradientUnits="userSpaceOnUse" x1="100.8872" y1="96.2129" x2="100.8872" y2="120.1724">
					<stop  offset="0" style="stop-color:#FFFFFF"/>
					<stop  offset="0.1585" style="stop-color:#00AEEF"/>
					<stop  offset="0.3521" style="stop-color:#0C132D"/>
					<stop  offset="1" style="stop-color:#A1A6BA"/>
				</linearGradient>
				<path fill="url(#SVGID_11_)" d="M88.637,118.355c-1.135,0-1.906-0.052-2.5-0.168c-0.937-0.184-1.77-0.606-2.475-1.258
					c-0.751-0.693-1.252-1.567-1.45-2.527c-0.088-0.426-0.169-1.092-0.169-3.061v-3.582h-0.85v-8.051h0.85v-2.041h9.955v2.041h1.064
					v8.051h-1.064v2.506h1.23v8.09H88.637z"/>
				<linearGradient id="SVGID_12_" gradientUnits="userSpaceOnUse" x1="100.8872" y1="96.2129" x2="100.8872" y2="120.1724">
					<stop  offset="0" style="stop-color:#FFFFFF"/>
					<stop  offset="0.1585" style="stop-color:#00AEEF"/>
					<stop  offset="0.3521" style="stop-color:#0C132D"/>
					<stop  offset="1" style="stop-color:#A1A6BA"/>
				</linearGradient>
				<path fill="url(#SVGID_12_)" d="M88.068,120.172v-8.07h0.918l-2.532-12.705h16.119l-1.531,12.733
					c-0.195,1.621-0.353,2.68-0.499,3.333c-0.22,0.984-0.617,1.844-1.181,2.552c-0.646,0.813-1.509,1.402-2.565,1.754
					c-0.825,0.275-1.885,0.403-3.336,0.403H88.068z"/>
				<linearGradient id="SVGID_13_" gradientUnits="userSpaceOnUse" x1="100.8872" y1="96.2129" x2="100.8872" y2="120.1724">
					<stop  offset="0" style="stop-color:#FFFFFF"/>
					<stop  offset="0.1585" style="stop-color:#00AEEF"/>
					<stop  offset="0.3521" style="stop-color:#0C132D"/>
					<stop  offset="1" style="stop-color:#A1A6BA"/>
				</linearGradient>
				<path fill="url(#SVGID_13_)" d="M100.539,118.355V96.545h7.141c1.419,0,2.539,0.125,3.424,0.384
					c1.136,0.332,2.055,0.877,2.732,1.62c0.654,0.718,1.1,1.58,1.323,2.562c0.162,0.71,0.237,1.618,0.237,2.858v1.377
					c0,1.468-0.183,2.559-0.575,3.434c-0.518,1.146-1.439,2.034-2.669,2.58c-0.461,0.205-0.959,0.358-1.502,0.463v6.533H100.539z"/>
				<linearGradient id="SVGID_14_" gradientUnits="userSpaceOnUse" x1="100.8872" y1="96.2129" x2="100.8872" y2="120.1724">
					<stop  offset="0" style="stop-color:#FFFFFF"/>
					<stop  offset="0.1585" style="stop-color:#00AEEF"/>
					<stop  offset="0.3521" style="stop-color:#0C132D"/>
					<stop  offset="1" style="stop-color:#A1A6BA"/>
				</linearGradient>
				<path fill="url(#SVGID_14_)" d="M110.461,118.355V99.396h7.817c0.475-0.142,0.91-0.204,1.263-0.228l3.199-0.213v10.767h-2.331
					c-0.002,0.154-0.003,8.633-0.003,8.633H110.461z"/>
				<linearGradient id="SVGID_15_" gradientUnits="userSpaceOnUse" x1="100.8872" y1="96.2129" x2="100.8872" y2="120.1724">
					<stop  offset="0" style="stop-color:#FFFFFF"/>
					<stop  offset="0.1585" style="stop-color:#00AEEF"/>
					<stop  offset="0.3521" style="stop-color:#0C132D"/>
					<stop  offset="1" style="stop-color:#A1A6BA"/>
				</linearGradient>
				<path fill="url(#SVGID_15_)" d="M125.062,118.59c-1.194,0-2.217-0.141-3.125-0.429c-1.14-0.362-2.073-0.957-2.773-1.768
					c-0.636-0.736-1.09-1.614-1.35-2.609c-0.213-0.815-0.313-1.843-0.313-3.233v-3.32c0-1.593,0.193-2.868,0.591-3.9
					c0.497-1.29,1.414-2.369,2.651-3.118c1.149-0.697,2.546-1.05,4.152-1.05c1.278,0,2.433,0.21,3.431,0.625
					c1.092,0.454,1.98,1.093,2.642,1.902c0.607,0.744,1.034,1.548,1.272,2.392c0.207,0.732,0.304,1.644,0.304,2.866v3.174
					c0,1.41-0.077,2.426-0.243,3.195c-0.217,1.008-0.674,1.944-1.357,2.785c-0.727,0.891-1.653,1.55-2.757,1.962
					C127.248,118.413,126.197,118.59,125.062,118.59z"/>
				<linearGradient id="SVGID_16_" gradientUnits="userSpaceOnUse" x1="100.8872" y1="96.2129" x2="100.8872" y2="120.1724">
					<stop  offset="0" style="stop-color:#FFFFFF"/>
					<stop  offset="0.1585" style="stop-color:#00AEEF"/>
					<stop  offset="0.3521" style="stop-color:#0C132D"/>
					<stop  offset="1" style="stop-color:#A1A6BA"/>
				</linearGradient>
				<polygon fill="url(#SVGID_16_)" points="132.835,118.355 130.296,96.545 153.331,96.545 150.806,118.355 				"/>
				<linearGradient id="SVGID_17_" gradientUnits="userSpaceOnUse" x1="100.8872" y1="96.2129" x2="100.8872" y2="120.1724">
					<stop  offset="0" style="stop-color:#FFFFFF"/>
					<stop  offset="0.1585" style="stop-color:#00AEEF"/>
					<stop  offset="0.3521" style="stop-color:#0C132D"/>
					<stop  offset="1" style="stop-color:#A1A6BA"/>
				</linearGradient>
				<path fill="url(#SVGID_17_)" d="M153.245,118.59c-1.295,0-2.497-0.367-3.574-1.092c-1.453-0.978-2.189-2.671-2.189-5.033V111.4
					c0-0.346,0.016-0.674,0.047-0.984h-0.047v-3.869c0-1.424,0.191-2.567,0.586-3.494c0.483-1.136,1.362-2.091,2.611-2.839
					c1.164-0.698,2.597-1.051,4.256-1.051c1.979,0,3.527,0.407,4.731,1.246c1.314,0.917,2.16,2.166,2.449,3.615
					c0.122,0.614,0.263,1.719,0.263,4.829v9.504h-7.455C154.396,118.512,153.835,118.59,153.245,118.59z"/>
				<linearGradient id="SVGID_18_" gradientUnits="userSpaceOnUse" x1="100.8872" y1="96.2129" x2="100.8872" y2="120.1724">
					<stop  offset="0" style="stop-color:#FFFFFF"/>
					<stop  offset="0.1585" style="stop-color:#00AEEF"/>
					<stop  offset="0.3521" style="stop-color:#0C132D"/>
					<stop  offset="1" style="stop-color:#A1A6BA"/>
				</linearGradient>
				<path fill="url(#SVGID_18_)" d="M164.993,118.59c-1.415,0-2.687-0.242-3.777-0.721c-1.371-0.602-2.363-1.502-2.95-2.678
					c-0.481-0.966-0.716-2.196-0.716-3.762v-3.625h0.091c-0.132-0.57-0.198-1.177-0.198-1.814c0-1.569,0.258-2.796,0.789-3.749
					c0.604-1.086,1.601-1.935,2.881-2.457c1.013-0.413,2.161-0.622,3.412-0.622c1.203,0,2.283,0.17,3.212,0.506
					c1.07,0.387,1.944,0.952,2.598,1.68c0.67,0.744,1.102,1.534,1.283,2.348c0.119,0.533,0.175,1.197,0.175,2.09v3.486
					c0.201,0.677,0.303,1.43,0.303,2.256c0,1.549-0.241,2.775-0.736,3.749c-0.581,1.14-1.552,2.043-2.809,2.612
					C167.52,118.354,166.323,118.59,164.993,118.59z"/>
				<linearGradient id="SVGID_19_" gradientUnits="userSpaceOnUse" x1="100.8872" y1="96.2129" x2="100.8872" y2="120.1724">
					<stop  offset="0" style="stop-color:#FFFFFF"/>
					<stop  offset="0.1585" style="stop-color:#00AEEF"/>
					<stop  offset="0.3521" style="stop-color:#0C132D"/>
					<stop  offset="1" style="stop-color:#A1A6BA"/>
				</linearGradient>
				<path fill="url(#SVGID_19_)" d="M167.149,118.355V96.545h9.945v2.646c1.075,0.1,2.043,0.458,2.886,1.068
					c1.352,0.98,1.86,2.152,2.05,2.962c0.166,0.709,0.24,1.695,0.24,3.198v11.936H167.149z"/>
			</g>
			<g>
				<path fill="#0C132D" d="M21.504,116.355V98.545h3.91c2.031,0,3.39,0.081,4.154,0.248c0.936,0.205,1.705,0.726,2.284,1.549
					c0.56,0.796,0.832,1.948,0.832,3.52c0,1.479-0.206,2.454-0.648,3.066c-0.076,0.104-0.161,0.203-0.253,0.294
					c0.016,0.019,0.032,0.036,0.047,0.055c0.382,0.463,0.619,0.899,0.724,1.336c0.064,0.267,0.13,0.782,0.13,2.573v5.17H21.504z"/>
				<rect x="32.159" y="98.545" fill="#0C132D" width="6.063" height="17.811"/>
				<polygon fill="#0C132D" points="38.94,116.355 36.652,101.396 42.23,101.396 42.308,102.059 42.375,101.396 47.954,101.396 
					45.823,116.355 				"/>
				<path fill="#0C132D" d="M51.898,116.59c-0.952,0-1.813-0.144-2.561-0.426c-0.796-0.301-1.435-0.732-1.899-1.281
					c-0.448-0.53-0.764-1.126-0.939-1.771c-0.161-0.597-0.24-1.402-0.24-2.464v-3.779c0-1.293,0.181-2.309,0.553-3.104
					c0.402-0.86,1.063-1.524,1.962-1.975c0.832-0.417,1.791-0.628,2.85-0.628c1.281,0,2.372,0.258,3.243,0.767
					c0.908,0.529,1.558,1.252,1.932,2.147c0.345,0.825,0.512,1.908,0.512,3.311v3.516c0,0.885-0.058,1.563-0.178,2.073
					c-0.133,0.566-0.431,1.156-0.885,1.755c-0.476,0.625-1.085,1.1-1.813,1.412C53.744,116.439,52.89,116.59,51.898,116.59z"/>
				<path fill="#0C132D" d="M56.602,116.355v-14.959h6.041l-0.003,0.042c0.414-0.175,0.819-0.25,1.175-0.274l1.066-0.07v6.629h-1
					c-0.757,0-1.027,0.122-1.092,0.159c-0.128,0.073-0.14,0.126-0.149,0.168c-0.028,0.125-0.093,0.588-0.093,2.188v6.117H56.602z"/>
				<path fill="#0C132D" d="M73.197,116.688c-1.372,0-2.539-0.263-3.466-0.781c-1.003-0.561-1.681-1.358-2.015-2.372
					c-0.29-0.881-0.431-2.122-0.431-3.794v-4.619c0-1.196,0.042-2.079,0.126-2.699c0.101-0.733,0.398-1.441,0.883-2.102
					c0.491-0.668,1.168-1.196,2.014-1.568c0.811-0.358,1.744-0.539,2.771-0.539c1.388,0,2.568,0.283,3.509,0.842
					c0.991,0.589,1.658,1.355,1.985,2.277c0.288,0.815,0.428,1.991,0.428,3.596v2.502h-5.605v0.588h5.605v1.616
					c0,1.762-0.13,3.005-0.399,3.801c-0.304,0.9-0.955,1.68-1.935,2.318C75.714,116.373,74.547,116.688,73.197,116.688z"/>
				<rect x="78.359" y="98.545" fill="#0C132D" width="6.063" height="17.811"/>
				<path fill="#0C132D" d="M88.637,116.355c-0.974,0-1.666-0.043-2.116-0.131c-0.568-0.111-1.073-0.368-1.502-0.765
					c-0.448-0.414-0.734-0.905-0.848-1.461c-0.06-0.289-0.128-0.853-0.128-2.657v-5.582h-0.85v-4.051h0.85v-2.041h5.955v2.041h1.064
					v4.051h-1.064v5.934c0,0.237,0.003,0.424,0.009,0.57c0.065,0.001,1.222,0.002,1.222,0.002v4.09H88.637z"/>
				<path fill="#0C132D" d="M90.068,118.172v-4.07h1c0.138,0,0.255-0.002,0.355-0.005c-0.032-0.165-2.531-12.7-2.531-12.7h5.663
					l0.091,0.615l0.044-0.615h5.627l-1.262,10.494c-0.184,1.532-0.336,2.559-0.465,3.136c-0.153,0.688-0.421,1.273-0.794,1.743
					c-0.401,0.504-0.95,0.875-1.632,1.102c-0.606,0.202-1.491,0.301-2.704,0.301H90.068z"/>
				<path fill="#0C132D" d="M102.539,116.355V98.545h5.141c1.227,0,2.163,0.1,2.862,0.304c0.778,0.228,1.39,0.58,1.816,1.048
					c0.419,0.459,0.705,1.018,0.851,1.658c0.126,0.553,0.188,1.342,0.188,2.414v1.377c0,1.16-0.131,2.016-0.4,2.616
					c-0.313,0.694-0.87,1.221-1.655,1.569c-0.692,0.308-1.539,0.457-2.587,0.457h-0.104v6.367H102.539z"/>
				<path fill="#0C132D" d="M112.461,116.355v-14.959h6.041l-0.004,0.042c0.415-0.174,0.819-0.25,1.176-0.274l1.066-0.07v6.629h-1
					c-0.757,0-1.027,0.122-1.093,0.159c-0.127,0.073-0.139,0.126-0.148,0.168c-0.027,0.125-0.093,0.588-0.093,2.188v6.117H112.461z"
					/>
				<path fill="#0C132D" d="M125.062,116.59c-0.973,0-1.82-0.112-2.52-0.335c-0.782-0.249-1.41-0.642-1.865-1.169
					c-0.435-0.502-0.747-1.11-0.929-1.807c-0.166-0.638-0.247-1.53-0.247-2.729v-3.32c0-1.342,0.149-2.383,0.457-3.182
					c0.342-0.886,0.954-1.602,1.821-2.127c0.832-0.504,1.881-0.76,3.116-0.76c1.014,0,1.91,0.159,2.664,0.472
					c0.784,0.326,1.41,0.771,1.86,1.321c0.431,0.529,0.732,1.09,0.896,1.67c0.154,0.543,0.229,1.303,0.229,2.322v3.174
					c0,1.248-0.064,2.155-0.198,2.774c-0.15,0.696-0.471,1.351-0.954,1.943c-0.497,0.61-1.139,1.064-1.905,1.351
					C126.774,116.455,125.958,116.59,125.062,116.59z"/>
				<path fill="#0C132D" d="M142.175,116.355l-0.156-0.811c-0.082-0.422-0.162-0.855-0.241-1.299
					c-0.057,0.402-0.301,2.109-0.301,2.109h-6.861l-2.073-17.811h6.042l0.07,0.902c0.002-0.012,0.122-0.902,0.122-0.902h6.028
					c0,0,0.125,1.026,0.136,1.132c0.013-0.092,0.164-1.132,0.164-1.132h5.981l-2.063,17.811H142.175z"/>
				<path fill="#0C132D" d="M153.245,116.59c-0.89,0-1.717-0.253-2.458-0.751c-0.879-0.592-1.306-1.695-1.306-3.374V111.4
					c0-1.247,0.224-2.086,0.704-2.639c0.102-0.116,0.225-0.231,0.372-0.346h-1.076v-1.869c0-1.149,0.14-2.036,0.427-2.711
					c0.314-0.739,0.919-1.381,1.798-1.907c0.85-0.509,1.937-0.767,3.229-0.767c1.557,0,2.731,0.29,3.589,0.888
					c0.894,0.622,1.441,1.417,1.63,2.363c0.151,0.758,0.225,2.21,0.225,4.438v7.504h-5.781
					C154.187,116.511,153.734,116.59,153.245,116.59z"/>
				<path fill="#0C132D" d="M164.993,116.59c-1.137,0-2.138-0.186-2.975-0.553c-0.931-0.408-1.591-0.993-1.963-1.739
					c-0.341-0.682-0.506-1.62-0.506-2.868v-1.625h1.761c-0.698-0.504-1.148-0.99-1.39-1.493c-0.317-0.663-0.479-1.444-0.479-2.321
					c0-1.22,0.176-2.128,0.536-2.776c0.387-0.693,1.021-1.225,1.889-1.577c0.772-0.315,1.666-0.475,2.657-0.475
					c0.971,0,1.822,0.13,2.532,0.387c0.757,0.273,1.358,0.656,1.79,1.136c0.443,0.493,0.711,0.966,0.818,1.446
					c0.086,0.382,0.127,0.923,0.127,1.654v1.752h-1.867c0.663,0.415,1.14,0.826,1.442,1.246c0.49,0.678,0.728,1.575,0.728,2.744
					c0,1.226-0.17,2.155-0.519,2.842c-0.378,0.741-1,1.312-1.852,1.697C166.956,116.414,166.037,116.59,164.993,116.59z"/>
				<path fill="#0C132D" d="M169.149,116.355V98.545h5.945v2.826c0.431-0.139,0.889-0.209,1.363-0.209
					c0.901,0,1.692,0.241,2.35,0.718c0.684,0.496,1.112,1.101,1.275,1.798c0.128,0.546,0.188,1.418,0.188,2.742v9.936H169.149z"/>
			</g>
			<text transform="matrix(1 0 0 1 21.6841 115.3555)" fill="#E4E3EF" font-family="'Impact'" font-size="20">River City Pro Wash</text>
		</g>
		<path fill="#E4E3EF" d="M27.707,141.093l-1.334,2.04l-1.971-1.437l1.344-1.972l-0.261-1.452l0.761-0.882l1.28-0.233l6.238-5.595
			c0,0,0.781-0.794-0.061-3.189c-0.014-0.052-0.03-0.093-0.049-0.14c-0.921-2.503,3.404-3.003,3.404-3.003l12.445,0.856
			c0,0,0.627,0.316,0.777,1.141l2.012,0.092l0.068,0.381l15.666-0.016c0,0-0.148-1.004,1.689-1.089
			c1.833-0.089,0.023,0.133,0.023,0.133l33.92-0.071c0,0,0.868,0.232,0.948,1.069l61.036,0.261l0.428-0.56l1.112-0.099l0.093,0.569
			l0.335-0.542l0.823-0.146l0.087,0.46l0.446-0.509c0,0,1.348-0.51,1.501,0.638l0.141,2.266l-4.654,0.211l-0.385-0.938l-60.77-0.165
			l-0.989,1.297l-34.898-0.08l-1.149-1.339l-15.641,0.083l-0.425,0.289l-1.89,0.187c0,0-0.124,1.094-1.702,1.216l-1.466,0.164
			l-10.406,12.317c0,0-1.481,2.405-5.363,0.181L27.707,141.093z"/>
		<text transform="matrix(1 0 0 1 49.9971 144.5469)" fill="#E4E3EF" font-family="'Impact'" font-size="11">Commercial  |  Residential</text>
		<g>
			<path fill="#0C132D" d="M14.567,88.632h172.851l-2.309-10.183l-2.309-0.462v-6.999l-2.85-0.877v-6.5l-2.258-1.934l-7.341,0.583
				v5.418l-3.198-0.032V57.407l-2.857-1.47l-14.135,0.882v5.152h-4.354V39.485l-5.39-3.295l-14.477,1.541l-0.811,0.583V73.57
				L21,58.789l-4,8.608l9.618,0.904v0.921l4.418,2.119l-4.212,16.058L14.567,88.632z M47.514,76.225c0,0-1.605-4.94-0.184-5.993
				l10.641,0.991v0.929l3.753,1.804l-2.672,10.19l-9.008,0.911C49.581,82.998,48.795,79.992,47.514,76.225z M116.741,76.699
				c0.468,0.27,1.047,0.722,1.636,1.463l-5.768,0.582c0.623-0.949,1.422-1.732,2.443-2.2L116.741,76.699z M110.845,77.687
				l-0.335,1.269l-9.141,0.923c-0.035-0.109-0.066-0.215-0.111-0.329c0,0-1.106-3.43-0.207-4.313l7.007,0.654v0.462L110.845,77.687z
				 M95.938,74.76c1.067,0.567,2.699,1.948,3.9,5.271l-10.229,1.033c0.75-2.702,2.121-5.375,4.619-6.461L95.938,74.76z
				 M89.227,75.985l-1.379,5.258l-10.801,1.089c-0.352-1.243-0.782-2.655-1.319-4.225c0,0-1.534-4.761,0.128-5.219L86,73.835v0.598
				L89.227,75.985z M68.89,72.242c1.391,0.502,4.717,2.507,6.226,10.284l-13.743,1.385c0.53-4.211,2.093-10.166,6.664-11.749
				L68.89,72.242z M120.727,77.927c0.02-0.347,0.1-0.642,0.254-0.833l4.151,0.386L120.727,77.927z M38.084,69.369l1.904,0.179
				c2.097,1.002,6.185,4.409,7.373,15.78l-17.045,1.716C30.411,83.388,31.267,72.119,38.084,69.369z"/>
			<polygon fill="#E4E3EF" points="125.794,38.936 138.481,37.493 138.481,75.229 20.5,64.343 22.355,61.117 125.794,73.665 			"/>
			<polygon fill="#E4E3EF" points="150.985,57.736 162.453,57.014 162.453,75.661 150.985,75.661 			"/>
		</g>
	</g>
</g>
</svg>
