<?xml version="1.0" encoding="utf-8"?>
<!-- Generator: Adobe Illustrator 16.0.0, SVG Export Plug-In . SVG Version: 6.00 Build 0)  -->
<!DOCTYPE svg PUBLIC "-//W3C//DTD SVG 1.1//EN" "http://www.w3.org/Graphics/SVG/1.1/DTD/svg11.dtd">
<svg version="1.1" xmlns="http://www.w3.org/2000/svg" xmlns:xlink="http://www.w3.org/1999/xlink" x="0px" y="0px"
	 width="279.416px" height="168.626px" viewBox="0 0 279.416 168.626" enable-background="new 0 0 279.416 168.626"
	 xml:space="preserve">
<g id="background" display="none">
	<rect x="-0.438" display="inline" fill="#072437" width="280" height="170"/>
</g>
<g id="Layer_1">
	<g>
		<g>
			<g>
				<path fill="#6A8BA2" d="M-0.001,127.181V95.249h7.1c3.574,0,5.973,0.145,7.333,0.442c1.706,0.375,3.104,1.329,4.156,2.837
					c1.008,1.443,1.498,3.52,1.498,6.347c0,2.662-0.375,4.425-1.179,5.547c-0.1,0.14-0.208,0.272-0.325,0.399
					c0.665,0.824,1.08,1.606,1.269,2.394c0.116,0.487,0.235,1.413,0.235,4.599v9.367H-0.001z"/>
				<rect x="18.669" y="95.249" fill="#6A8BA2" width="11.119" height="31.932"/>
				<polygon fill="#6A8BA2" points="30.587,127.181 26.506,100.287 46.878,100.287 43.079,127.181 				"/>
				<path fill="#6A8BA2" d="M53.509,127.595c-1.698,0-3.238-0.259-4.579-0.77c-1.435-0.545-2.59-1.331-3.431-2.336
					c-0.806-0.96-1.375-2.041-1.69-3.214c-0.288-1.071-0.428-2.514-0.428-4.41v-6.677c0-2.316,0.324-4.142,0.99-5.578
					c0.729-1.569,1.922-2.78,3.55-3.601c1.497-0.754,3.216-1.137,5.11-1.137c2.293,0,4.25,0.467,5.815,1.389
					c1.637,0.964,2.81,2.279,3.485,3.908c0.615,1.483,0.914,3.424,0.914,5.933v6.211c0,1.583-0.104,2.798-0.317,3.715
					c-0.241,1.03-0.776,2.101-1.591,3.183c-0.859,1.139-1.961,2.005-3.277,2.573C56.811,127.322,55.281,127.595,53.509,127.595z"/>
				<path fill="#6A8BA2" d="M61.503,127.181v-26.894H72.46c0.674-0.254,1.329-0.371,1.914-0.409l2.133-0.143v12.194h-2
					c-1.322,0-1.741,0.222-1.785,0.247c-0.132,0.077-0.14,0.109-0.148,0.146c-0.037,0.164-0.157,0.932-0.157,3.817v11.04H61.503z"/>
				<path fill="#6A8BA2" d="M90.833,127.768c-2.448,0-4.534-0.476-6.2-1.413c-1.813-1.021-3.039-2.476-3.642-4.323
					c-0.516-1.58-0.766-3.794-0.766-6.771v-8.16c0-2.12,0.073-3.689,0.224-4.799c0.182-1.334,0.716-2.618,1.589-3.815
					c0.885-1.216,2.106-2.174,3.629-2.85c1.454-0.646,3.124-0.975,4.961-0.975c2.479,0,4.592,0.514,6.281,1.525
					c1.786,1.07,2.991,2.465,3.581,4.146c0.514,1.462,0.763,3.563,0.763,6.425v4.653h-9.823v0.571h9.823v3.089
					c0,3.138-0.233,5.357-0.711,6.786c-0.548,1.639-1.721,3.058-3.485,4.216C95.344,127.198,93.25,127.768,90.833,127.768z"/>
				<rect x="99.631" y="95.249" fill="#6A8BA2" width="11.119" height="31.932"/>
				<path fill="#6A8BA2" d="M117.888,127.181c-1.718,0-2.947-0.077-3.756-0.235c-1.04-0.204-1.967-0.679-2.756-1.411
					c-0.824-0.766-1.347-1.676-1.557-2.706c-0.107-0.522-0.229-1.532-0.229-4.738v-9.628h-1.489v-7.623h1.489v-3.605h10.931v3.605
					h1.865v7.623h-1.865v10.249c0,0.305,0.003,0.562,0.009,0.776c0.047,0.001,2.147,0.001,2.147,0.001v7.692H117.888z"/>
				<path fill="#6A8BA2" d="M120.149,130.39v-7.657c0,0,2.226-0.001,2.326-0.002c-0.048-0.248-4.438-22.443-4.438-22.443h20.598
					l-2.243,18.8c-0.323,2.711-0.591,4.53-0.818,5.56c-0.277,1.249-0.76,2.315-1.437,3.172c-0.732,0.927-1.734,1.609-2.977,2.026
					c-1.088,0.366-2.665,0.545-4.82,0.545H120.149z"/>
				<path fill="#6A8BA2" d="M142.003,127.181V95.249h9.256c2.175,0,3.84,0.179,5.091,0.547c1.41,0.415,2.519,1.063,3.298,1.923
					c0.762,0.844,1.281,1.863,1.545,3.032c0.223,0.989,0.332,2.4,0.332,4.313v2.433c0,2.087-0.236,3.629-0.722,4.715
					c-0.57,1.276-1.586,2.249-3.02,2.89c-1.229,0.552-2.727,0.823-4.575,0.83v11.249H142.003z"/>
				<path fill="#6A8BA2" d="M159.389,127.181v-26.894h10.958c0.674-0.254,1.329-0.371,1.914-0.409l2.133-0.143v12.194h-2
					c-1.322,0-1.741,0.222-1.785,0.247c-0.132,0.077-0.14,0.109-0.148,0.146c-0.037,0.164-0.157,0.932-0.157,3.817v11.04H159.389z"
					/>
				<path fill="#6A8BA2" d="M181.72,127.595c-1.728,0-3.239-0.203-4.493-0.604c-1.413-0.451-2.55-1.17-3.381-2.137
					c-0.786-0.916-1.35-2.021-1.677-3.288c-0.296-1.147-0.44-2.741-0.44-4.874v-5.865c0-2.396,0.267-4.261,0.816-5.699
					c0.615-1.613,1.723-2.918,3.291-3.875c1.499-0.915,3.38-1.38,5.594-1.38c1.812,0,3.417,0.287,4.769,0.854
					c1.417,0.593,2.546,1.403,3.358,2.408c0.774,0.957,1.316,1.976,1.611,3.028c0.274,0.979,0.408,2.342,0.408,4.163v5.607
					c0,2.219-0.115,3.837-0.352,4.946c-0.271,1.267-0.849,2.454-1.718,3.53c-0.896,1.11-2.055,1.938-3.443,2.461
					C184.783,127.352,183.323,127.595,181.72,127.595z"/>
				<path fill="#6A8BA2" d="M211.503,127.181c0,0-0.411-2.145-0.46-2.408c-0.032,0.228-0.341,2.408-0.341,2.408h-12.462
					l-3.687-31.932h21.986l0.04,0.33l0.047-0.33h10.975l-3.667,31.932H211.503z"/>
				<path fill="#6A8BA2" d="M231.108,127.595c-1.61,0-3.107-0.461-4.45-1.37c-1.611-1.092-2.393-3.104-2.393-6.15v-1.881
					c0-2.262,0.41-3.79,1.291-4.81c0.066-0.077,0.138-0.153,0.214-0.229h-1.505v-3.535c0-2.061,0.25-3.655,0.765-4.875
					c0.571-1.354,1.664-2.524,3.248-3.48c1.533-0.923,3.48-1.391,5.791-1.391c2.786,0,4.891,0.527,6.438,1.613
					c1.617,1.137,2.61,2.59,2.952,4.32c0.268,1.356,0.397,3.936,0.397,7.884v13.49h-10.331
					C232.788,127.456,231.979,127.595,231.108,127.595z"/>
				<path fill="#6A8BA2" d="M251.695,127.595c-2.028,0-3.817-0.336-5.317-0.999c-1.683-0.743-2.88-1.814-3.56-3.184
					c-0.612-1.232-0.909-2.923-0.909-5.167v-3.104h2.635c-0.952-0.771-1.592-1.527-1.963-2.31c-0.571-1.202-0.86-2.613-0.86-4.195
					c0-2.192,0.316-3.832,0.968-5.012c0.702-1.273,1.855-2.246,3.429-2.894c1.383-0.569,2.983-0.857,4.757-0.857
					c1.733,0,3.256,0.235,4.527,0.698c1.365,0.499,2.454,1.196,3.237,2.074c0.804,0.901,1.29,1.771,1.487,2.658
					c0.155,0.702,0.227,1.645,0.227,2.97v3.328h-2.734c0.858,0.604,1.496,1.208,1.947,1.836c0.887,1.236,1.317,2.865,1.317,4.98
					c0,2.201-0.305,3.876-0.934,5.119c-0.687,1.36-1.817,2.407-3.36,3.11C255.207,127.276,253.561,127.595,251.695,127.595z"/>
				<path fill="#6A8BA2" d="M258.73,127.181V95.249h10.914v4.906c0.684-0.188,1.401-0.282,2.141-0.282
					c1.637,0,3.073,0.443,4.269,1.316c1.245,0.91,2.027,2.024,2.326,3.311c0.228,0.981,0.334,2.537,0.334,4.895v17.786H258.73z"/>
			</g>
			<g>
				<path fill="#072437" d="M10.394,126.181v-10.282c0-1.48-0.121-2.02-0.175-2.187c-0.005-0.002-0.01-0.005-0.016-0.007v12.476
					H0.999V96.249h6.1c3.501,0,5.83,0.138,7.119,0.42c1.452,0.319,2.646,1.137,3.549,2.432c0.887,1.271,1.318,3.159,1.318,5.774
					c0,2.442-0.315,4.021-0.992,4.965c-0.263,0.366-0.599,0.676-1.013,0.93c0.269,0.193,0.496,0.403,0.682,0.63
					c0.593,0.725,0.958,1.395,1.115,2.049c0.097,0.405,0.208,1.266,0.208,4.365v8.367H10.394z M10.204,107.135
					c0.02-0.006,0.038-0.012,0.053-0.018c0.047-0.141,0.137-0.521,0.137-1.397v-1.535c0-0.767-0.136-0.99-0.148-1.009
					c0,0-0.015-0.007-0.042-0.019V107.135z"/>
				<rect x="19.669" y="96.249" fill="#072437" width="9.119" height="29.932"/>
				<path fill="#072437" d="M31.446,126.181l-3.777-24.894h8.228l0.905,7.771c0.179-2.342,0.383-4.649,0.606-6.871l0.091-0.9h8.229
					l-3.517,24.894H31.446z"/>
				<path fill="#072437" d="M53.509,126.595c-1.576,0-2.997-0.237-4.223-0.704c-1.274-0.484-2.291-1.172-3.021-2.044
					c-0.712-0.848-1.214-1.801-1.491-2.831c-0.265-0.985-0.394-2.343-0.394-4.15v-6.677c0-2.168,0.293-3.855,0.897-5.157
					c0.631-1.359,1.671-2.412,3.092-3.128c1.356-0.684,2.924-1.03,4.66-1.03c2.112,0,3.898,0.421,5.308,1.251
					c1.446,0.852,2.479,2.005,3.069,3.429c0.564,1.359,0.838,3.175,0.838,5.55v6.211c0,1.506-0.095,2.646-0.291,3.487
					c-0.209,0.894-0.685,1.838-1.416,2.808c-0.754,0.999-1.721,1.759-2.875,2.258C56.541,126.35,55.144,126.595,53.509,126.595z
					 M53.294,119.091c0,0.854,0.054,1.264,0.09,1.443c0.125-0.001,0.154-0.015,0.154-0.015c0.002-0.049,0.151-0.455,0.151-1.878
					v-3.503h-0.396V119.091z M53.313,109.413v-0.674c0-0.299-0.004-0.553-0.011-0.77c-0.005,0.218-0.008,0.473-0.008,0.77v0.674
					H53.313z"/>
				<path fill="#072437" d="M62.503,126.181v-24.894h9.009l-0.062,0.682c0.862-0.652,1.86-1.019,2.99-1.094l1.066-0.071v10.126h-1
					c-1.347,0-1.987,0.208-2.287,0.382c-0.354,0.206-0.545,0.45-0.622,0.794c-0.067,0.304-0.181,1.233-0.181,4.035v10.04H62.503z"/>
				<path fill="#072437" d="M90.833,126.768c-2.274,0-4.195-0.433-5.709-1.285c-1.588-0.894-2.659-2.159-3.182-3.761
					c-0.482-1.479-0.717-3.592-0.717-6.461v-8.16c0-2.074,0.07-3.6,0.215-4.664c0.159-1.168,0.632-2.299,1.406-3.361
					c0.781-1.071,1.866-1.921,3.226-2.524c1.326-0.59,2.859-0.889,4.556-0.889c2.295,0,4.235,0.466,5.768,1.384
					c1.58,0.946,2.64,2.164,3.15,3.619c0.476,1.354,0.707,3.348,0.707,6.094v3.653h-9.205v-5.854c0-1.419-0.083-1.971-0.125-2.161
					c-0.03-0.004-0.071-0.007-0.124-0.007c-0.174,0-0.235,0.03-0.236,0.03c0.001,0.07-0.133,0.568-0.133,2.368v12.974
					c0,1.605,0.116,2.126,0.164,2.272c0.002,0,0.08,0.006,0.154,0.006c0.117,0,0.161-0.019,0.161-0.019
					c-0.008-0.048,0.14-0.521,0.14-2.526v-4.512h9.205v2.089c0,3.028-0.216,5.144-0.66,6.468c-0.476,1.422-1.514,2.666-3.086,3.698
					C94.961,126.253,93.052,126.768,90.833,126.768z"/>
				<rect x="100.631" y="96.249" fill="#072437" width="9.119" height="29.932"/>
				<path fill="#072437" d="M117.888,126.181c-1.653,0-2.818-0.071-3.563-0.217c-0.854-0.167-1.617-0.559-2.268-1.163
					c-0.667-0.62-1.09-1.351-1.258-2.172c-0.089-0.439-0.208-1.388-0.208-4.539v-10.628h-1.489v-5.623h1.489v-3.605h8.931v3.605
					h1.865v5.623h-1.865v11.249c0,0.922,0.03,1.443,0.059,1.733c0.212,0.022,0.555,0.044,1.097,0.044h1v5.692H117.888z"/>
				<path fill="#072437" d="M121.149,129.39v-5.657h1c0.829,0,1.278-0.034,1.512-0.064c-0.039-0.255-0.137-0.813-0.383-2.034
					l-4.023-20.347h8.357l1.065,7.25l0.52-7.25h8.312l-2.109,17.681c-0.319,2.679-0.582,4.466-0.802,5.463
					c-0.244,1.1-0.663,2.03-1.245,2.768c-0.61,0.772-1.455,1.345-2.511,1.699c-0.984,0.331-2.457,0.492-4.502,0.492H121.149z"/>
				<path fill="#072437" d="M143.003,126.181V96.249h8.256c2.078,0,3.651,0.166,4.809,0.507c1.23,0.361,2.185,0.911,2.838,1.634
					c0.645,0.714,1.086,1.582,1.312,2.581c0.207,0.916,0.307,2.255,0.307,4.094v2.433c0,1.943-0.208,3.352-0.635,4.307
					c-0.467,1.045-1.313,1.848-2.515,2.386c-1.113,0.499-2.498,0.742-4.233,0.742h-0.934v11.249H143.003z M152.208,108.101
					c0.075-0.022,0.112-0.046,0.121-0.056c0.002-0.004,0.172-0.286,0.172-1.428v-2.295c0-0.857-0.137-1.127-0.158-1.163
					c0,0.001,0,0.001-0.001,0.001c-0.007,0-0.047-0.018-0.134-0.039V108.101z"/>
				<path fill="#072437" d="M160.389,126.181v-24.894h9.009l-0.062,0.682c0.862-0.652,1.86-1.019,2.99-1.094l1.066-0.071v10.126h-1
					c-1.347,0-1.987,0.208-2.287,0.382c-0.354,0.206-0.545,0.45-0.622,0.794c-0.067,0.304-0.181,1.233-0.181,4.035v10.04H160.389z"
					/>
				<path fill="#072437" d="M181.72,126.595c-1.624,0-3.033-0.188-4.189-0.557c-1.234-0.394-2.219-1.012-2.927-1.836
					c-0.686-0.798-1.179-1.769-1.468-2.886c-0.275-1.064-0.408-2.577-0.408-4.624v-5.865c0-2.272,0.246-4.02,0.75-5.343
					c0.534-1.402,1.502-2.539,2.877-3.378c1.339-0.818,3.046-1.233,5.073-1.233c1.679,0,3.153,0.261,4.382,0.775
					c1.262,0.529,2.26,1.24,2.967,2.114c0.688,0.851,1.168,1.75,1.426,2.671c0.25,0.89,0.371,2.163,0.371,3.893v5.607
					c0,2.147-0.108,3.697-0.33,4.737c-0.238,1.111-0.749,2.157-1.518,3.11c-0.783,0.971-1.798,1.695-3.018,2.154
					C184.544,126.373,183.203,126.595,181.72,126.595z M181.652,107.901c-0.006,0.198-0.01,0.43-0.01,0.7v10.334
					c0,0.282,0.005,0.52,0.013,0.72c0.004-0.146,0.007-0.31,0.007-0.496v-10.558C181.661,108.332,181.658,108.101,181.652,107.901z"
					/>
				<path fill="#072437" d="M212.329,126.181l-0.156-0.812c-0.428-2.23-0.833-4.64-1.212-7.209c-0.285,2.05-0.62,4.438-1.006,7.161
					l-0.122,0.859H199.13l-3.456-29.932h9.046l0.645,8.26c0.267-2.304,0.576-4.771,0.929-7.393l0.117-0.867h9.242l0.107,0.88
					c0.09,0.738,0.303,3.203,0.65,7.516c0.282-2.541,0.603-5.057,0.959-7.538l0.124-0.857h8.987l-3.438,29.932H212.329z"/>
				<path fill="#072437" d="M231.108,126.595c-1.406,0-2.715-0.403-3.889-1.198c-1.315-0.892-1.954-2.632-1.954-5.322v-1.881
					c0-1.98,0.343-3.34,1.047-4.155c0.518-0.601,1.488-1.209,3.009-1.884h-4.056v-2.535c0-1.924,0.225-3.392,0.686-4.486
					c0.487-1.154,1.443-2.168,2.843-3.013c1.374-0.827,3.148-1.247,5.274-1.247c2.573,0,4.491,0.469,5.863,1.432
					c1.399,0.983,2.255,2.227,2.545,3.695c0.255,1.292,0.378,3.808,0.378,7.69v12.49h-8.726v-0.417
					c-0.037,0.023-0.074,0.047-0.112,0.07C233.192,126.339,232.213,126.595,231.108,126.595z M233.873,120.534
					c0.028-0.211,0.068-0.659,0.068-1.53v-2.261c-0.093,0.333-0.19,0.934-0.19,1.985
					C233.751,119.889,233.872,120.534,233.873,120.534z M233.813,107.021c-0.029,0.276-0.062,0.793-0.062,1.736v1.457
					c0.037-0.022,0.066-0.042,0.089-0.058c0.038-0.156,0.101-0.537,0.101-1.348C233.941,107.704,233.861,107.216,233.813,107.021z"
					/>
				<path fill="#072437" d="M251.695,126.595c-1.888,0-3.541-0.308-4.913-0.913c-1.463-0.646-2.496-1.56-3.068-2.714
					c-0.542-1.092-0.805-2.637-0.805-4.723v-2.104h4.993c-0.094-0.053-0.191-0.107-0.29-0.163c-2.238-1.268-3.587-2.437-4.127-3.575
					c-0.507-1.067-0.764-2.335-0.764-3.767c0-2.02,0.276-3.501,0.843-4.529c0.589-1.068,1.576-1.893,2.934-2.451
					c1.262-0.52,2.734-0.782,4.376-0.782c1.616,0,3.024,0.215,4.185,0.638c1.208,0.441,2.161,1.047,2.833,1.801
					c0.687,0.771,1.098,1.492,1.257,2.209c0.137,0.619,0.204,1.52,0.204,2.753v2.328h-5.54c0.191,0.098,0.397,0.202,0.62,0.313
					c2.175,1.072,3.589,2.089,4.321,3.106c0.76,1.061,1.129,2.498,1.129,4.397c0,2.041-0.27,3.568-0.826,4.669
					c-0.582,1.152-1.551,2.044-2.882,2.65C254.924,126.307,253.417,126.595,251.695,126.595z M251.174,120.534
					c0.124,0,0.201-0.009,0.246-0.017c0.031-0.115,0.079-0.38,0.079-0.909c0-0.927-0.099-1.286-0.138-1.394
					c-0.055-0.043-0.153-0.113-0.326-0.228v0.603c0,1.285,0.089,1.78,0.132,1.944C251.169,120.534,251.171,120.534,251.174,120.534z
					 M251.05,106.937c0.006,0.01-0.066,0.152-0.066,0.543c0,0.791,0.065,1.128,0.104,1.259c0.001,0.003,0.023,0.071,0.138,0.206
					v-0.585c0-0.794-0.036-1.218-0.066-1.433c-0.004,0-0.008,0-0.012,0C251.092,106.927,251.062,106.933,251.05,106.937z"/>
				<path fill="#072437" d="M268.801,126.181v-17.113c0-0.967-0.037-1.531-0.073-1.854c-0.043,0.293-0.083,0.79-0.083,1.629v17.338
					h-8.914V96.249h8.914v5.362c0.182-0.093,0.366-0.177,0.553-0.252c0.804-0.322,1.675-0.486,2.588-0.486
					c1.42,0,2.658,0.378,3.679,1.124c1.045,0.765,1.699,1.683,1.941,2.729c0.208,0.893,0.309,2.42,0.309,4.668v16.786H268.801z"/>
			</g>
			<g>
				<linearGradient id="SVGID_1_" gradientUnits="userSpaceOnUse" x1="139.3569" y1="128.3896" x2="139.3569" y2="96.6621">
					<stop  offset="0" style="stop-color:#072437"/>
					<stop  offset="0.5753" style="stop-color:#FFFFFF"/>
					<stop  offset="1" style="stop-color:#6A8BA2"/>
				</linearGradient>
				<path fill="url(#SVGID_1_)" d="M1.999,97.249h5.1c3.4,0,5.701,0.133,6.905,0.396c1.204,0.265,2.185,0.94,2.943,2.027
					s1.138,2.821,1.138,5.202c0,2.174-0.269,3.634-0.805,4.382s-1.591,1.196-3.166,1.346c1.426,0.356,2.384,0.834,2.875,1.432
					c0.49,0.599,0.795,1.147,0.916,1.647c0.12,0.501,0.18,1.878,0.18,4.132v7.367h-6.691v-9.282c0-1.494-0.117-2.421-0.351-2.777
					c-0.234-0.356-0.847-0.535-1.84-0.535v12.595H1.999V97.249z M9.204,102.028v6.211c0.81,0,1.377-0.112,1.703-0.337
					s0.488-0.951,0.488-2.183v-1.535c0-0.886-0.157-1.467-0.471-1.742C10.609,102.166,10.036,102.028,9.204,102.028z"/>
				<linearGradient id="SVGID_2_" gradientUnits="userSpaceOnUse" x1="139.3569" y1="128.3896" x2="139.3569" y2="96.6621">
					<stop  offset="0" style="stop-color:#072437"/>
					<stop  offset="0.5753" style="stop-color:#FFFFFF"/>
					<stop  offset="1" style="stop-color:#6A8BA2"/>
				</linearGradient>
				<path fill="url(#SVGID_2_)" d="M27.788,97.249v3.641h-7.119v-3.641H27.788z M27.788,102.287v22.894h-7.119v-22.894H27.788z"/>
				<linearGradient id="SVGID_3_" gradientUnits="userSpaceOnUse" x1="139.3569" y1="128.3896" x2="139.3569" y2="96.6621">
					<stop  offset="0" style="stop-color:#072437"/>
					<stop  offset="0.5753" style="stop-color:#FFFFFF"/>
					<stop  offset="1" style="stop-color:#6A8BA2"/>
				</linearGradient>
				<path fill="url(#SVGID_3_)" d="M44.576,102.287l-3.234,22.894h-9.036l-3.474-22.894h6.174l1.946,16.717
					c0.153-1.229,0.412-4.225,0.78-8.985c0.196-2.657,0.419-5.234,0.67-7.731H44.576z"/>
				<linearGradient id="SVGID_4_" gradientUnits="userSpaceOnUse" x1="139.3569" y1="128.3896" x2="139.3569" y2="96.6621">
					<stop  offset="0" style="stop-color:#072437"/>
					<stop  offset="0.5753" style="stop-color:#FFFFFF"/>
					<stop  offset="1" style="stop-color:#6A8BA2"/>
				</linearGradient>
				<path fill="url(#SVGID_4_)" d="M61.244,114.139h-8.95v4.952c0,1.035,0.074,1.702,0.223,2.001
					c0.148,0.299,0.433,0.448,0.855,0.448c0.524,0,0.875-0.198,1.052-0.595s0.266-1.165,0.266-2.304v-3.019h6.554v1.69
					c0,1.415-0.088,2.502-0.265,3.261c-0.177,0.759-0.591,1.57-1.241,2.433c-0.65,0.862-1.475,1.51-2.473,1.941
					c-0.999,0.431-2.25,0.646-3.756,0.646c-1.46,0-2.75-0.213-3.867-0.639c-1.118-0.425-1.988-1.009-2.61-1.751
					c-0.622-0.741-1.052-1.559-1.292-2.449c-0.24-0.892-0.359-2.188-0.359-3.891v-6.677c0-2.001,0.268-3.58,0.804-4.736
					c0.536-1.155,1.415-2.041,2.635-2.656s2.624-0.923,4.21-0.923c1.939,0,3.54,0.37,4.8,1.112c1.26,0.742,2.145,1.726,2.652,2.95
					s0.762,2.947,0.762,5.167V114.139z M54.313,110.413v-1.674c0-1.185-0.063-1.949-0.188-2.295
					c-0.125-0.345-0.382-0.518-0.77-0.518c-0.479,0-0.776,0.146-0.89,0.44c-0.114,0.293-0.171,1.084-0.171,2.372v1.674H54.313z"/>
				<linearGradient id="SVGID_5_" gradientUnits="userSpaceOnUse" x1="139.3569" y1="128.3896" x2="139.3569" y2="96.6621">
					<stop  offset="0" style="stop-color:#072437"/>
					<stop  offset="0.5753" style="stop-color:#FFFFFF"/>
					<stop  offset="1" style="stop-color:#6A8BA2"/>
				</linearGradient>
				<path fill="url(#SVGID_5_)" d="M70.417,102.287l-0.274,3.01c1.004-2.155,2.458-3.297,4.364-3.424v8.057
					c-1.267,0-2.196,0.173-2.79,0.518s-0.958,0.825-1.095,1.44c-0.137,0.615-0.205,2.033-0.205,4.253v9.04h-6.914v-22.894H70.417z"
					/>
				<linearGradient id="SVGID_6_" gradientUnits="userSpaceOnUse" x1="139.3569" y1="128.3896" x2="139.3569" y2="96.6621">
					<stop  offset="0" style="stop-color:#072437"/>
					<stop  offset="0.5753" style="stop-color:#FFFFFF"/>
					<stop  offset="1" style="stop-color:#6A8BA2"/>
				</linearGradient>
				<path fill="url(#SVGID_6_)" d="M99.252,109.412h-7.205v-4.854c0-1.412-0.077-2.293-0.231-2.643
					c-0.154-0.351-0.494-0.525-1.019-0.525c-0.593,0-0.97,0.213-1.129,0.639c-0.16,0.425-0.24,1.346-0.24,2.76v12.974
					c0,1.357,0.08,2.243,0.24,2.657s0.519,0.621,1.078,0.621c0.536,0,0.887-0.207,1.052-0.622s0.249-1.39,0.249-2.923v-3.512h7.205
					v1.089c0,2.892-0.203,4.941-0.608,6.15c-0.405,1.21-1.3,2.27-2.687,3.18s-3.095,1.365-5.125,1.365
					c-2.111,0-3.85-0.386-5.219-1.156s-2.276-1.837-2.721-3.2s-0.667-3.413-0.667-6.15v-8.16c0-2.013,0.069-3.522,0.206-4.529
					c0.137-1.006,0.544-1.976,1.224-2.907c0.679-0.932,1.62-1.665,2.824-2.199c1.204-0.535,2.586-0.803,4.15-0.803
					c2.122,0,3.873,0.414,5.253,1.241s2.288,1.857,2.721,3.093c0.434,1.234,0.65,3.155,0.65,5.763V109.412z"/>
				<linearGradient id="SVGID_7_" gradientUnits="userSpaceOnUse" x1="139.3569" y1="128.3896" x2="139.3569" y2="96.6621">
					<stop  offset="0" style="stop-color:#072437"/>
					<stop  offset="0.5753" style="stop-color:#FFFFFF"/>
					<stop  offset="1" style="stop-color:#6A8BA2"/>
				</linearGradient>
				<path fill="url(#SVGID_7_)" d="M108.75,97.249v3.641h-7.119v-3.641H108.75z M108.75,102.287v22.894h-7.119v-22.894H108.75z"/>
				<linearGradient id="SVGID_8_" gradientUnits="userSpaceOnUse" x1="139.3569" y1="128.3896" x2="139.3569" y2="96.6621">
					<stop  offset="0" style="stop-color:#072437"/>
					<stop  offset="0.5753" style="stop-color:#FFFFFF"/>
					<stop  offset="1" style="stop-color:#6A8BA2"/>
				</linearGradient>
				<path fill="url(#SVGID_8_)" d="M118.521,99.233v3.605h1.865v3.623h-1.865v12.249c0,1.507,0.077,2.347,0.231,2.519
					c0.154,0.173,0.795,0.259,1.925,0.259v3.692h-2.79c-1.574,0-2.698-0.066-3.371-0.198c-0.673-0.132-1.267-0.438-1.78-0.914
					c-0.514-0.478-0.833-1.024-0.958-1.64s-0.188-2.062-0.188-4.339v-11.628h-1.489v-3.623h1.489v-3.605H118.521z"/>
				<linearGradient id="SVGID_9_" gradientUnits="userSpaceOnUse" x1="139.3569" y1="128.3896" x2="139.3569" y2="96.6621">
					<stop  offset="0" style="stop-color:#072437"/>
					<stop  offset="0.5753" style="stop-color:#FFFFFF"/>
					<stop  offset="1" style="stop-color:#6A8BA2"/>
				</linearGradient>
				<path fill="url(#SVGID_9_)" d="M136.383,102.287l-1.976,16.563c-0.313,2.622-0.574,4.41-0.785,5.365
					c-0.211,0.954-0.562,1.742-1.053,2.363c-0.49,0.621-1.172,1.078-2.044,1.371c-0.873,0.294-2.268,0.44-4.184,0.44h-4.192v-3.657
					c1.074,0,1.766-0.055,2.074-0.164s0.463-0.354,0.463-0.733c0-0.184-0.143-0.983-0.428-2.398l-3.786-19.149h6.276l2.272,15.458
					l1.108-15.458H136.383z"/>
				<linearGradient id="SVGID_10_" gradientUnits="userSpaceOnUse" x1="139.3569" y1="128.3896" x2="139.3569" y2="96.6621">
					<stop  offset="0" style="stop-color:#072437"/>
					<stop  offset="0.5753" style="stop-color:#FFFFFF"/>
					<stop  offset="1" style="stop-color:#6A8BA2"/>
				</linearGradient>
				<path fill="url(#SVGID_10_)" d="M144.003,97.249h7.256c1.962,0,3.471,0.155,4.526,0.466s1.848,0.759,2.379,1.346
					c0.53,0.587,0.89,1.297,1.078,2.131c0.188,0.834,0.282,2.125,0.282,3.873v2.433c0,1.783-0.183,3.082-0.548,3.898
					c-0.365,0.817-1.035,1.444-2.011,1.881c-0.975,0.438-2.25,0.655-3.825,0.655h-1.934v11.249h-7.205V97.249z M151.208,102.028
					v7.107c0.206,0.012,0.382,0.018,0.53,0.018c0.662,0,1.121-0.164,1.378-0.492c0.256-0.327,0.385-1.009,0.385-2.044v-2.295
					c0-0.954-0.148-1.575-0.445-1.863C152.759,102.172,152.143,102.028,151.208,102.028z"/>
				<linearGradient id="SVGID_11_" gradientUnits="userSpaceOnUse" x1="139.3569" y1="128.3896" x2="139.3569" y2="96.6621">
					<stop  offset="0" style="stop-color:#072437"/>
					<stop  offset="0.5753" style="stop-color:#FFFFFF"/>
					<stop  offset="1" style="stop-color:#6A8BA2"/>
				</linearGradient>
				<path fill="url(#SVGID_11_)" d="M168.303,102.287l-0.274,3.01c1.004-2.155,2.458-3.297,4.364-3.424v8.057
					c-1.267,0-2.196,0.173-2.79,0.518s-0.958,0.825-1.095,1.44c-0.137,0.615-0.205,2.033-0.205,4.253v9.04h-6.914v-22.894H168.303z"
					/>
				<linearGradient id="SVGID_12_" gradientUnits="userSpaceOnUse" x1="139.3569" y1="128.3896" x2="139.3569" y2="96.6621">
					<stop  offset="0" style="stop-color:#072437"/>
					<stop  offset="0.5753" style="stop-color:#FFFFFF"/>
					<stop  offset="1" style="stop-color:#6A8BA2"/>
				</linearGradient>
				<path fill="url(#SVGID_12_)" d="M189.575,110.326v5.607c0,2.059-0.103,3.568-0.308,4.528c-0.206,0.961-0.645,1.857-1.318,2.691
					s-1.538,1.449-2.592,1.847c-1.056,0.396-2.268,0.595-3.637,0.595c-1.529,0-2.824-0.17-3.885-0.509s-1.885-0.852-2.473-1.535
					c-0.588-0.685-1.007-1.513-1.258-2.484c-0.251-0.973-0.376-2.43-0.376-4.374v-5.865c0-2.128,0.228-3.79,0.685-4.986
					c0.456-1.196,1.277-2.156,2.464-2.881c1.186-0.725,2.704-1.087,4.552-1.087c1.551,0,2.884,0.232,3.996,0.698
					s1.971,1.072,2.575,1.82c0.605,0.748,1.019,1.519,1.241,2.312C189.463,107.497,189.575,108.705,189.575,110.326z
					 M182.661,108.602c0-1.174-0.063-1.912-0.188-2.218c-0.125-0.305-0.394-0.457-0.804-0.457s-0.685,0.152-0.821,0.457
					c-0.137,0.306-0.206,1.044-0.206,2.218v10.334c0,1.081,0.068,1.785,0.206,2.113c0.137,0.328,0.405,0.491,0.804,0.491
					c0.411,0,0.682-0.149,0.813-0.448c0.131-0.299,0.197-0.943,0.197-1.933V108.602z"/>
				<linearGradient id="SVGID_13_" gradientUnits="userSpaceOnUse" x1="139.3569" y1="128.3896" x2="139.3569" y2="96.6621">
					<stop  offset="0" style="stop-color:#072437"/>
					<stop  offset="0.5753" style="stop-color:#FFFFFF"/>
					<stop  offset="1" style="stop-color:#6A8BA2"/>
				</linearGradient>
				<path fill="url(#SVGID_13_)" d="M225.358,97.249l-3.208,27.932h-8.995c-0.824-4.291-1.55-9.174-2.181-14.647
					c-0.288,2.347-0.958,7.229-2.01,14.647h-8.943l-3.225-27.932h6.999l0.761,9.746l0.736,9.421
					c0.266-4.875,0.93-11.265,1.992-19.167h7.481c0.099,0.816,0.361,3.888,0.786,9.213l0.796,10.627
					c0.41-6.761,1.08-13.374,2.011-19.84H225.358z"/>
				<linearGradient id="SVGID_14_" gradientUnits="userSpaceOnUse" x1="139.3569" y1="128.3896" x2="139.3569" y2="96.6621">
					<stop  offset="0" style="stop-color:#072437"/>
					<stop  offset="0.5753" style="stop-color:#FFFFFF"/>
					<stop  offset="1" style="stop-color:#6A8BA2"/>
				</linearGradient>
				<path fill="url(#SVGID_14_)" d="M232.751,111.154h-6.486v-1.535c0-1.771,0.202-3.137,0.607-4.098
					c0.405-0.96,1.218-1.809,2.438-2.545c1.221-0.735,2.807-1.104,4.757-1.104c2.339,0,4.102,0.417,5.288,1.25
					c1.187,0.834,1.899,1.858,2.139,3.071c0.239,1.214,0.359,3.712,0.359,7.496v11.49h-6.726v-2.04
					c-0.422,0.818-0.967,1.432-1.634,1.841c-0.667,0.408-1.463,0.613-2.387,0.613c-1.209,0-2.319-0.343-3.329-1.026
					c-1.01-0.685-1.514-2.183-1.514-4.494v-1.881c0-1.714,0.268-2.881,0.804-3.502c0.536-0.621,1.865-1.346,3.987-2.174
					c2.27-0.897,3.485-1.501,3.645-1.812c0.16-0.311,0.24-0.943,0.24-1.897c0-1.196-0.089-1.976-0.266-2.338
					s-0.47-0.544-0.881-0.544c-0.468,0-0.759,0.152-0.873,0.457c-0.114,0.306-0.171,1.096-0.171,2.373V111.154z M234.941,114.294
					c-1.107,0.817-1.749,1.501-1.925,2.054c-0.177,0.552-0.265,1.346-0.265,2.381c0,1.185,0.077,1.949,0.231,2.294
					c0.154,0.346,0.459,0.518,0.916,0.518c0.433,0,0.716-0.135,0.847-0.405c0.131-0.27,0.197-0.98,0.197-2.131V114.294z"/>
				<linearGradient id="SVGID_15_" gradientUnits="userSpaceOnUse" x1="139.3569" y1="128.3896" x2="139.3569" y2="96.6621">
					<stop  offset="0" style="stop-color:#072437"/>
					<stop  offset="0.5753" style="stop-color:#FFFFFF"/>
					<stop  offset="1" style="stop-color:#6A8BA2"/>
				</linearGradient>
				<path fill="url(#SVGID_15_)" d="M258.352,109.602h-6.126v-1.242c0-1.058-0.06-1.728-0.18-2.01
					c-0.12-0.281-0.419-0.423-0.898-0.423c-0.388,0-0.679,0.13-0.873,0.389s-0.291,0.646-0.291,1.164
					c0,0.702,0.048,1.217,0.146,1.544c0.097,0.328,0.388,0.688,0.873,1.079c0.485,0.391,1.48,0.96,2.986,1.707
					c2.008,0.99,3.326,1.922,3.953,2.795c0.627,0.875,0.941,2.146,0.941,3.813c0,1.863-0.24,3.27-0.719,4.218
					c-0.479,0.949-1.281,1.68-2.404,2.191c-1.124,0.512-2.479,0.768-4.064,0.768c-1.757,0-3.26-0.276-4.509-0.828
					c-1.249-0.552-2.108-1.3-2.576-2.243c-0.468-0.942-0.701-2.369-0.701-4.278v-1.104h6.126v1.449c0,1.231,0.077,2.03,0.231,2.398
					c0.154,0.368,0.459,0.552,0.916,0.552c0.49,0,0.833-0.123,1.027-0.37c0.194-0.248,0.291-0.769,0.291-1.562
					c0-1.093-0.125-1.777-0.376-2.054c-0.262-0.275-1.603-1.092-4.021-2.449c-2.031-1.15-3.269-2.194-3.713-3.132
					c-0.445-0.937-0.667-2.05-0.667-3.338c0-1.829,0.24-3.178,0.719-4.046s1.292-1.538,2.438-2.01s2.479-0.707,3.996-0.707
					c1.506,0,2.787,0.192,3.842,0.577c1.055,0.386,1.865,0.895,2.43,1.527c0.564,0.633,0.907,1.219,1.027,1.76
					c0.12,0.541,0.18,1.386,0.18,2.536V109.602z"/>
				<linearGradient id="SVGID_16_" gradientUnits="userSpaceOnUse" x1="139.3569" y1="128.3896" x2="139.3569" y2="96.6621">
					<stop  offset="0" style="stop-color:#072437"/>
					<stop  offset="0.5753" style="stop-color:#FFFFFF"/>
					<stop  offset="1" style="stop-color:#6A8BA2"/>
				</linearGradient>
				<path fill="url(#SVGID_16_)" d="M267.645,97.249v6.284c0.593-0.554,1.234-0.969,1.925-1.245c0.69-0.277,1.429-0.415,2.216-0.415
					c1.209,0,2.239,0.311,3.089,0.932c0.85,0.621,1.369,1.337,1.557,2.147c0.188,0.811,0.283,2.292,0.283,4.442v15.786h-6.914
					v-16.113c0-1.335-0.066-2.191-0.197-2.571c-0.131-0.379-0.425-0.569-0.881-0.569c-0.422,0-0.708,0.196-0.856,0.587
					s-0.222,1.167-0.222,2.329v16.338h-6.914V97.249H267.645z"/>
			</g>
		</g>
		<path fill="#F0F4F8" d="M20.6,162.136l-2.176,3.357l-3.213-2.363l2.197-3.242l-0.431-2.375l1.245-1.454l2.079-0.386l9.134-9.186
			c0,0,2.304-1.305,0.933-5.244c-0.024-0.071-0.05-0.145-0.079-0.224c-1.499-4.106,5.543-4.938,5.543-4.938l20.271,1.413
			c0,0,1.022,0.515,1.269,1.868l3.276,0.158l0.114,0.625l25.52-0.028c0,0-0.245-1.645,2.745-1.792
			c2.993-0.14,0.042,0.227,0.042,0.227l55.264-0.122c0,0,1.404,0.383,1.539,1.762l99.42,0.42l0.705-0.918l1.801-0.152l0.167,0.928
			l0.535-0.883l1.352-0.251l0.137,0.762l0.719-0.831c0,0,2.196-0.844,2.451,1.039l0.242,3.728l-7.597,0.348l-1.66-1.552
			l-98.988-0.269l-0.583,2.139l-56.845-0.138l-1.878-2.198l-25.476,0.133l-0.695,0.479l-3.08,0.306c0,0-0.195,1.792-2.767,2.001
			l-2.389,0.266l-16.956,20.229c0,0-2.415,3.955-8.735,0.298L20.6,162.136z"/>
		<text transform="matrix(0.9919 0 0 1 65.5527 166.1748)" fill="#F0F4F8" font-family="'Impact'" font-size="14.877">Commercial  |  Residential</text>
		<g>
			<path fill="#26516E" d="M0.564,84.952h276.398l-3.689-16.285l-3.689-0.736V56.735l-4.553-1.403V44.941l-3.618-3.091
				l-11.733,0.932v8.661l-5.117-0.045V35.016l-4.565-2.351l-22.607,1.411v8.242h-6.966V6.361l-8.615-5.269l-23.15,2.464
				l-1.298,0.931v56.378L11.74,37.227L4.308,50.993l15.523,1.446v1.47l7.067,3.393l-6.736,25.674L0.564,84.952z M53.246,65.112
				c0,0-2.563-7.904-0.294-9.586l17.015,1.585v1.481l6.006,2.887l-4.276,16.298l-14.4,1.452
				C56.552,75.939,55.294,71.134,53.246,65.112z M163.945,65.869c0.754,0.431,1.681,1.149,2.622,2.339l-9.23,0.931
				c0.999-1.515,2.278-2.768,3.914-3.521L163.945,65.869z M154.513,67.449l-0.532,2.028l-14.612,1.474
				c-0.059-0.176-0.113-0.344-0.174-0.522c0,0-1.777-5.484-0.331-6.896l11.204,1.044v0.737L154.513,67.449z M130.686,62.77
				c1.706,0.905,4.314,3.114,6.236,8.429l-16.364,1.65c1.205-4.319,3.397-8.597,7.389-10.334L130.686,62.77z M119.949,64.727
				l-2.206,8.406l-17.27,1.742c-0.559-1.985-1.251-4.246-2.106-6.758c0,0-2.458-7.61,0.2-8.341l16.22,1.512v0.957L119.949,64.727z
				 M87.434,58.739c2.218,0.803,7.538,4.013,9.954,16.446l-21.975,2.217c0.845-6.736,3.345-16.257,10.652-18.791L87.434,58.739z
				 M170.324,67.829c0.032-0.551,0.153-1.022,0.41-1.327l6.628,0.617L170.324,67.829z M38.169,54.148l3.047,0.284
				c3.351,1.605,9.887,7.052,11.788,25.23l-27.254,2.748C25.903,76.562,27.269,58.546,38.169,54.148z"/>
			<polygon fill="#F0F4F8" points="178.426,5.483 198.714,3.173 198.714,63.519 10.05,46.108 13.016,40.947 178.426,61.018 			"/>
			<polygon fill="#F0F4F8" points="218.708,35.545 237.044,34.388 237.044,64.206 218.708,64.206 			"/>
		</g>
	</g>
</g>
</svg>
