<?xml version="1.0" encoding="utf-8"?>
<!-- Generator: Adobe Illustrator 16.0.0, SVG Export Plug-In . SVG Version: 6.00 Build 0)  -->
<!DOCTYPE svg PUBLIC "-//W3C//DTD SVG 1.1//EN" "http://www.w3.org/Graphics/SVG/1.1/DTD/svg11.dtd">
<svg version="1.1" id="Layer_1" xmlns="http://www.w3.org/2000/svg" xmlns:xlink="http://www.w3.org/1999/xlink" x="0px" y="0px"
	 width="152px" height="46px" viewBox="0 0 152 46" enable-background="new 0 0 152 46" xml:space="preserve">
<g>
	<polygon fill="#6A8BA2" points="6.408,20.012 2.328,27.51 136.344,40.696 136.344,38.152 	"/>
	<g>
		<path fill="#6A8BA2" d="M9.476,28.122v1.155l3.013,1.358c0,0,0.949,0.411,0.916,0.513L9.476,46h0.973
			c0,0,2.299-17.554,9.797-16.813L9.476,28.122z"/>
		<path fill="#6A8BA2" d="M12.215,46h-1.766c0,0,1.431-17.642,9.797-16.813c0,0-7.214,0.903-7.486,16.813"/>
		<path fill="#6A8BA2" d="M20.246,29.188c0,0,6.653,0.225,7.876,16.813h2.72c0,0-0.409-3.469-2.312-8.941
			c0,0-2.468-7.294-0.125-7.063L20.246,29.188z"/>
	</g>
	<path fill="#6A8BA2" d="M65.307,34.379"/>
	<g>
		<path fill="#6A8BA2" d="M63.067,33.285v0.82l2.142,0.967c0,0,0.676,0.293,0.653,0.361L63.067,46h0.691
			c0,0,1.635-12.484,6.968-11.957L63.067,33.285z"/>
		<path fill="#6A8BA2" d="M65.017,46h-1.259c0,0,1.018-12.547,6.968-11.957c0,0-5.13,0.643-5.325,11.957"/>
		<path fill="#6A8BA2" d="M70.727,34.043c0,0,4.731,0.16,5.604,11.957h1.933c0,0-0.291-2.468-1.644-6.358
			c0,0-1.756-5.188-0.09-5.023L70.727,34.043z"/>
	</g>
	<g>
		<path fill="#6A8BA2" d="M38.463,30.994v0.97l2.528,1.14c0,0,0.797,0.347,0.771,0.431L38.463,46h0.816
			c0,0,1.931-14.734,8.225-14.111L38.463,30.994z"/>
		<path fill="#6A8BA2" d="M40.763,46h-1.484c0,0,1.202-14.806,8.225-14.111c0,0-6.057,0.759-6.285,14.111"/>
		<path fill="#6A8BA2" d="M47.504,31.889c0,0,5.583,0.188,6.609,14.111h2.282c0,0-0.341-2.91-1.94-7.503
			c0,0-2.071-6.124-0.106-5.929L47.504,31.889z"/>
	</g>
	<g>
		<path fill="#6A8BA2" d="M83.039,35.092v0.691l1.798,0.811c0,0,0.567,0.245,0.547,0.306l-2.345,8.865h0.582
			c0,0,1.37-10.479,5.848-10.036L83.039,35.092z"/>
		<path fill="#6A8BA2" d="M84.674,45.765h-1.053c0,0,0.853-10.528,5.848-10.036c0,0-4.307,0.542-4.47,10.036"/>
		<path fill="#6A8BA2" d="M89.469,35.729c0,0,3.973,0.134,4.703,10.036h1.623c0,0-0.242-2.069-1.381-5.336
			c0,0-1.472-4.355-0.074-4.218L89.469,35.729z"/>
	</g>
	<polygon fill="#6A8BA2" points="97.324,32.885 97.324,2.186 98.037,1.679 109.355,0.557 109.56,34.583 	"/>
	<polygon fill="#6A8BA2" points="109.355,0.557 110.427,0.557 110.427,34.501 109.355,34.379 	"/>
	<polygon fill="#6A8BA2" points="110.427,0.557 115.475,3.207 115.475,35.229 110.427,34.703 	"/>
	<polygon fill="#6A8BA2" points="115.475,22.785 119.298,22.785 119.298,35.906 115.475,35.396 	"/>
	<polygon fill="#6A8BA2" points="119.298,35.906 119.298,18.297 131.992,17.529 131.533,37.586 	"/>
	<polygon fill="#6A8BA2" points="131.992,17.529 134.388,18.809 134.031,37.977 131.533,37.586 	"/>
	<polygon fill="#6A8BA2" points="134.216,27.729 137.023,27.65 137.023,38.487 134.031,37.774 	"/>
	<polygon fill="#6A8BA2" points="137.023,23.038 137.023,38.487 143.465,39.354 143.465,22.53 	"/>
	<polygon fill="#6A8BA2" points="143.465,22.53 145.45,24.214 145.45,39.558 143.465,39.354 	"/>
	<polygon fill="#6A8BA2" points="145.45,29.871 147.95,30.636 147.95,40.169 145.45,39.354 	"/>
	<path fill="#6A8BA2" d="M3.311,46H152l-2.024-8.867C149.056,36.68,134.338,32.926,3.311,46z"/>
	<path fill="#6A8BA2" d="M94.34,36.211L0.273,46l147.677-2.907C147.95,43.093,105.426,33.427,94.34,36.211z"/>
	<polygon fill="#F0F4F8" points="108.736,2.041 97.909,2.728 97.909,32.804 109.355,33.688 	"/>
	<polygon fill="#F0F4F8" points="110.427,34.703 7.109,22.039 5.48,24.85 	"/>
	<polygon fill="#F0F4F8" points="130.087,18.182 120.021,19.097 120.021,34.703 130.087,34.703 	"/>
</g>
</svg>
