<?xml version="1.0" encoding="utf-8"?>
<!-- Generator: Adobe Illustrator 16.0.0, SVG Export Plug-In . SVG Version: 6.00 Build 0)  -->
<!DOCTYPE svg PUBLIC "-//W3C//DTD SVG 1.1//EN" "http://www.w3.org/Graphics/SVG/1.1/DTD/svg11.dtd">
<svg version="1.1" xmlns="http://www.w3.org/2000/svg" xmlns:xlink="http://www.w3.org/1999/xlink" x="0px" y="0px" width="210px"
	 height="210px" viewBox="0 0 210 210" enable-background="new 0 0 210 210" xml:space="preserve">
<g id="background" display="none">
	<rect x="40.75" y="8.5" display="inline" fill="#0C132D" width="200" height="200"/>
</g>
<g id="Layer_1">
	<linearGradient id="SVGID_1_" gradientUnits="userSpaceOnUse" x1="0" y1="105" x2="210" y2="105">
		<stop  offset="0" style="stop-color:#FFFFFF"/>
		<stop  offset="0.2782" style="stop-color:#A1A6BA"/>
		<stop  offset="0.5282" style="stop-color:#00AEEF"/>
		<stop  offset="1" style="stop-color:#0C132D"/>
	</linearGradient>
	<path fill="none" stroke="url(#SVGID_1_)" stroke-width="10" stroke-miterlimit="10" d="M105,5C49.768,5,5,49.77,5,105
		s44.768,100,100,100c55.232,0,100-44.77,100-100S160.232,5,105,5z"/>
	<linearGradient id="SVGID_2_" gradientUnits="userSpaceOnUse" x1="199" y1="105.0005" x2="11.0005" y2="105.0005">
		<stop  offset="0" style="stop-color:#FFFFFF"/>
		<stop  offset="0.2782" style="stop-color:#A1A6BA"/>
		<stop  offset="0.5282" style="stop-color:#00AEEF"/>
		<stop  offset="1" style="stop-color:#0C132D"/>
	</linearGradient>
	<path fill="none" stroke="url(#SVGID_2_)" stroke-width="10" stroke-miterlimit="10" d="M194,105c0,49.089-39.855,88.888-89,88.888
		c-49.154,0-89-39.799-89-88.888c0-49.093,39.846-88.888,89-88.888C154.145,16.112,194,55.907,194,105z"/>
	<path fill="#0C132D" d="M23.822,120.854h160.68l-2.139-9.474l-2.16-0.424v-6.517l-2.646-0.82v-6.031l-2.088-1.807l-6.833,0.553
		v5.038l-2.972-0.033v-9.513l-2.655-1.381l-13.133,0.824v4.801h-4.054V75.164l-5.02-3.076l-13.452,1.434l-0.749,0.552v32.772
		l-96.283-13.75l-4.323,8.003l9.027,0.843v0.867l4.111,1.958l-3.914,14.931L23.822,120.854z M54.454,109.308
		c0,0-1.493-4.597-0.174-5.56l9.893,0.919v0.85l3.482,1.693l-2.48,9.458l-8.371,0.855C56.369,115.607,55.637,112.817,54.454,109.308
		z M118.809,109.745c0.429,0.265,0.967,0.675,1.513,1.375l-5.365,0.528c0.583-0.874,1.332-1.604,2.283-2.046L118.809,109.745z
		 M113.328,110.674l-0.311,1.177l-8.501,0.857c-0.037-0.106-0.07-0.194-0.116-0.313c0,0-1.02-3.177-0.176-4.002l6.502,0.604v0.424
		L113.328,110.674z M99.466,107.954c0.987,0.523,2.509,1.799,3.627,4.906l-9.511,0.952c0.695-2.51,1.972-5.005,4.29-6.002
		L99.466,107.954z M93.221,109.099l-1.274,4.868l-10.042,1.023c-0.328-1.163-0.729-2.462-1.233-3.928c0,0-1.42-4.431,0.125-4.85
		l9.432,0.872v0.567L93.221,109.099z M74.316,105.615c1.298,0.467,4.386,2.329,5.796,9.56l-12.785,1.291
		c0.496-3.913,1.955-9.455,6.197-10.936L74.316,105.615z M122.504,110.892c0.021-0.322,0.097-0.592,0.248-0.772l3.85,0.367
		L122.504,110.892z M45.679,102.944l1.777,0.167c1.948,0.931,5.749,4.102,6.847,14.657l-15.843,1.6
		C38.548,115.976,39.345,105.492,45.679,102.944z"/>
	<polygon fill="#FFFFFF" points="127.523,74.356 139.478,73.007 139.478,108.543 28.343,98.298 30.09,95.259 127.523,107.063 	"/>
	<polygon fill="#FFFFFF" points="151.258,92.074 162.06,91.387 162.06,108.954 151.258,108.954 	"/>
	<path fill="none" stroke="#000000" stroke-width="2" stroke-miterlimit="10" d="M5,155.12"/>
</g>
</svg>
