<?xml version="1.0" encoding="utf-8"?>
<!-- Generator: Adobe Illustrator 16.0.0, SVG Export Plug-In . SVG Version: 6.00 Build 0)  -->
<!DOCTYPE svg PUBLIC "-//W3C//DTD SVG 1.1//EN" "http://www.w3.org/Graphics/SVG/1.1/DTD/svg11.dtd">
<svg version="1.1" id="Layer_1" xmlns="http://www.w3.org/2000/svg" xmlns:xlink="http://www.w3.org/1999/xlink" x="0px" y="0px"
	 width="360px" height="100px" viewBox="0 0 360 100" enable-background="new 0 0 360 100" xml:space="preserve">
<g>
	<g>
		<g>
			<linearGradient id="SVGID_1_" gradientUnits="userSpaceOnUse" x1="26.1235" y1="24.626" x2="325.5195" y2="24.626">
				<stop  offset="0" style="stop-color:#27AAE1"/>
				<stop  offset="0.629" style="stop-color:#F1F2F2"/>
				<stop  offset="1" style="stop-color:#27AAE1"/>
			</linearGradient>
			<path fill="url(#SVGID_1_)" d="M26.124,40.123V6.331h7.483c3.833,0,6.401,0.154,7.851,0.47c1.793,0.391,3.265,1.389,4.374,2.965
				c1.069,1.519,1.588,3.709,1.588,6.699c0,2.815-0.396,4.673-1.245,5.846c-0.125,0.173-0.263,0.336-0.413,0.49
				c0.007,0.009,0.014,0.017,0.021,0.026c0.73,0.883,1.184,1.721,1.387,2.561c0.124,0.514,0.249,1.492,0.249,4.877v9.857H26.124z"/>
			<linearGradient id="SVGID_2_" gradientUnits="userSpaceOnUse" x1="26.1235" y1="24.626" x2="325.5195" y2="24.626">
				<stop  offset="0" style="stop-color:#27AAE1"/>
				<stop  offset="0.629" style="stop-color:#F1F2F2"/>
				<stop  offset="1" style="stop-color:#27AAE1"/>
			</linearGradient>
			<rect x="46.199" y="6.331" fill="url(#SVGID_2_)" width="11.655" height="33.792"/>
			<linearGradient id="SVGID_3_" gradientUnits="userSpaceOnUse" x1="26.1235" y1="24.626" x2="325.5195" y2="24.626">
				<stop  offset="0" style="stop-color:#27AAE1"/>
				<stop  offset="0.629" style="stop-color:#F1F2F2"/>
				<stop  offset="1" style="stop-color:#27AAE1"/>
			</linearGradient>
			<polygon fill="url(#SVGID_3_)" points="58.995,40.123 54.647,11.704 65.394,11.704 65.429,12.003 65.459,11.704 76.211,11.704 
				72.163,40.123 			"/>
			<linearGradient id="SVGID_4_" gradientUnits="userSpaceOnUse" x1="26.1235" y1="24.626" x2="325.5195" y2="24.626">
				<stop  offset="0" style="stop-color:#27AAE1"/>
				<stop  offset="0.629" style="stop-color:#F1F2F2"/>
				<stop  offset="1" style="stop-color:#27AAE1"/>
			</linearGradient>
			<path fill="url(#SVGID_4_)" d="M83.511,40.564c-1.806,0-3.443-0.272-4.865-0.81c-1.52-0.574-2.741-1.398-3.628-2.449
				c-0.855-1.011-1.458-2.148-1.792-3.379c-0.307-1.133-0.456-2.661-0.456-4.672v-7.122c0-2.453,0.344-4.382,1.053-5.898
				c0.77-1.646,2.032-2.917,3.751-3.776c1.586-0.793,3.41-1.195,5.421-1.195c2.435,0,4.511,0.491,6.17,1.46
				c1.733,1.012,2.974,2.392,3.688,4.103c0.655,1.568,0.974,3.623,0.974,6.282v6.625c0,1.678-0.11,2.965-0.338,3.935
				c-0.255,1.083-0.823,2.208-1.689,3.348c-0.908,1.194-2.073,2.103-3.463,2.698C87.02,40.278,85.396,40.564,83.511,40.564z"/>
			<linearGradient id="SVGID_5_" gradientUnits="userSpaceOnUse" x1="26.1235" y1="24.626" x2="325.5195" y2="24.626">
				<stop  offset="0" style="stop-color:#27AAE1"/>
				<stop  offset="0.629" style="stop-color:#F1F2F2"/>
				<stop  offset="1" style="stop-color:#27AAE1"/>
			</linearGradient>
			<path fill="url(#SVGID_5_)" d="M92.257,40.123V11.704h11.625l-0.001,0.016c0.732-0.283,1.443-0.411,2.076-0.453l2.132-0.141
				v12.73h-2c-1.435,0-1.917,0.236-1.999,0.284c-0.197,0.114-0.212,0.182-0.226,0.242c-0.041,0.182-0.173,1.009-0.173,4.098v11.643
				H92.257z"/>
			<linearGradient id="SVGID_6_" gradientUnits="userSpaceOnUse" x1="26.1235" y1="24.626" x2="325.5195" y2="24.626">
				<stop  offset="0" style="stop-color:#27AAE1"/>
				<stop  offset="0.629" style="stop-color:#F1F2F2"/>
				<stop  offset="1" style="stop-color:#27AAE1"/>
			</linearGradient>
			<path fill="url(#SVGID_6_)" d="M123.645,40.749c-2.604,0-4.821-0.5-6.587-1.487c-1.916-1.069-3.212-2.594-3.85-4.534
				c-0.551-1.673-0.818-4.023-0.818-7.186v-8.703c0-2.258,0.079-3.928,0.24-5.103c0.192-1.401,0.759-2.751,1.685-4.012
				c0.938-1.276,2.23-2.282,3.842-2.992c1.544-0.681,3.316-1.025,5.269-1.025c2.637,0,4.882,0.54,6.672,1.604
				c1.889,1.123,3.164,2.586,3.789,4.349c0.548,1.55,0.814,3.778,0.814,6.815v4.83h-10.563v0.876h10.563v3.161
				c0,3.332-0.248,5.687-0.758,7.2c-0.581,1.721-1.823,3.21-3.693,4.427C128.434,40.15,126.212,40.749,123.645,40.749z"/>
			<linearGradient id="SVGID_7_" gradientUnits="userSpaceOnUse" x1="26.1235" y1="24.626" x2="325.5195" y2="24.626">
				<stop  offset="0" style="stop-color:#27AAE1"/>
				<stop  offset="0.629" style="stop-color:#F1F2F2"/>
				<stop  offset="1" style="stop-color:#27AAE1"/>
			</linearGradient>
			<rect x="133.255" y="6.331" fill="url(#SVGID_7_)" width="11.655" height="33.792"/>
			<linearGradient id="SVGID_8_" gradientUnits="userSpaceOnUse" x1="26.1235" y1="24.626" x2="325.5195" y2="24.626">
				<stop  offset="0" style="stop-color:#27AAE1"/>
				<stop  offset="0.629" style="stop-color:#F1F2F2"/>
				<stop  offset="1" style="stop-color:#27AAE1"/>
			</linearGradient>
			<path fill="url(#SVGID_8_)" d="M152.737,40.123c-1.841,0-3.152-0.082-4.009-0.249c-1.087-0.211-2.059-0.705-2.885-1.467
				c-0.864-0.796-1.414-1.744-1.634-2.816c-0.113-0.551-0.243-1.621-0.243-5.03V20.157h-1.601v-7.864h1.601V8.447h11.453v3.846
				h2.005v7.864h-2.005v11.065c0,0.389,0.005,0.705,0.013,0.96c0.093,0.001,2.305,0.002,2.305,0.002v7.938H152.737z"/>
			<linearGradient id="SVGID_9_" gradientUnits="userSpaceOnUse" x1="26.1235" y1="24.626" x2="325.5195" y2="24.626">
				<stop  offset="0" style="stop-color:#27AAE1"/>
				<stop  offset="0.629" style="stop-color:#F1F2F2"/>
				<stop  offset="1" style="stop-color:#27AAE1"/>
			</linearGradient>
			<path fill="url(#SVGID_9_)" d="M155.319,43.546v-7.901h2c0.198,0,0.374-0.002,0.529-0.005c-0.057-0.293-4.77-23.936-4.77-23.936
				h10.912l0.032,0.218l0.016-0.218h10.841l-2.393,19.905c-0.348,2.892-0.635,4.828-0.878,5.919
				c-0.292,1.313-0.804,2.433-1.519,3.332c-0.769,0.967-1.823,1.679-3.131,2.114c-1.152,0.385-2.831,0.572-5.13,0.572H155.319z"/>
			<linearGradient id="SVGID_10_" gradientUnits="userSpaceOnUse" x1="26.1235" y1="24.626" x2="325.5195" y2="24.626">
				<stop  offset="0" style="stop-color:#27AAE1"/>
				<stop  offset="0.629" style="stop-color:#F1F2F2"/>
				<stop  offset="1" style="stop-color:#27AAE1"/>
			</linearGradient>
			<path fill="url(#SVGID_10_)" d="M178.817,40.123V6.331h9.802c2.321,0,4.096,0.189,5.428,0.577
				c1.486,0.434,2.655,1.109,3.476,2.007c0.803,0.88,1.352,1.949,1.631,3.177c0.238,1.044,0.354,2.541,0.354,4.574v2.595
				c0,2.208-0.251,3.837-0.767,4.981c-0.598,1.328-1.666,2.341-3.174,3.011c-1.316,0.586-2.928,0.872-4.924,0.872h-0.079v11.998
				H178.817z"/>
			<linearGradient id="SVGID_11_" gradientUnits="userSpaceOnUse" x1="26.1235" y1="24.626" x2="325.5195" y2="24.626">
				<stop  offset="0" style="stop-color:#27AAE1"/>
				<stop  offset="0.629" style="stop-color:#F1F2F2"/>
				<stop  offset="1" style="stop-color:#27AAE1"/>
			</linearGradient>
			<path fill="url(#SVGID_11_)" d="M197.513,40.123V11.704h11.627l-0.002,0.016c0.732-0.283,1.442-0.411,2.075-0.453l2.132-0.141
				v12.73h-2c-1.435,0-1.917,0.236-1.999,0.284c-0.197,0.114-0.213,0.181-0.226,0.241c-0.041,0.183-0.173,1.009-0.173,4.1v11.643
				H197.513z"/>
			<linearGradient id="SVGID_12_" gradientUnits="userSpaceOnUse" x1="26.1235" y1="24.626" x2="325.5195" y2="24.626">
				<stop  offset="0" style="stop-color:#27AAE1"/>
				<stop  offset="0.629" style="stop-color:#F1F2F2"/>
				<stop  offset="1" style="stop-color:#27AAE1"/>
			</linearGradient>
			<path fill="url(#SVGID_12_)" d="M221.373,40.564c-1.842,0-3.451-0.214-4.781-0.637c-1.49-0.472-2.69-1.224-3.566-2.234
				c-0.833-0.963-1.43-2.125-1.775-3.456c-0.316-1.209-0.47-2.901-0.47-5.168v-6.256c0-2.542,0.284-4.516,0.87-6.037
				c0.649-1.691,1.82-3.06,3.479-4.065c1.588-0.962,3.583-1.449,5.932-1.449c1.925,0,3.628,0.302,5.063,0.898
				c1.499,0.623,2.693,1.472,3.553,2.524c0.821,1.008,1.396,2.08,1.709,3.187c0.292,1.035,0.435,2.477,0.435,4.408v5.98
				c0,2.357-0.123,4.075-0.377,5.251c-0.286,1.329-0.898,2.578-1.818,3.711c-0.95,1.167-2.176,2.035-3.642,2.582
				C224.632,40.309,223.08,40.564,221.373,40.564z"/>
			<linearGradient id="SVGID_13_" gradientUnits="userSpaceOnUse" x1="26.1235" y1="24.626" x2="325.5195" y2="24.626">
				<stop  offset="0" style="stop-color:#27AAE1"/>
				<stop  offset="0.629" style="stop-color:#F1F2F2"/>
				<stop  offset="1" style="stop-color:#27AAE1"/>
			</linearGradient>
			<path fill="url(#SVGID_13_)" d="M253.525,40.123l-0.313-1.62c-0.11-0.571-0.219-1.152-0.327-1.745
				c-0.076,0.536-0.48,3.365-0.48,3.365h-13.132L235.34,6.331h11.62l0.058,0.728l0.099-0.728h11.561l0.167,1.356l0.197-1.356h11.501
				l-3.912,33.792H253.525z"/>
			<linearGradient id="SVGID_14_" gradientUnits="userSpaceOnUse" x1="26.1235" y1="24.626" x2="325.5195" y2="24.626">
				<stop  offset="0" style="stop-color:#27AAE1"/>
				<stop  offset="0.629" style="stop-color:#F1F2F2"/>
				<stop  offset="1" style="stop-color:#27AAE1"/>
			</linearGradient>
			<path fill="url(#SVGID_14_)" d="M274.48,40.564c-1.698,0-3.278-0.482-4.695-1.435c-1.691-1.137-2.513-3.248-2.513-6.454v-2.005
				c0-2.38,0.431-3.984,1.354-5.048c0.135-0.154,0.289-0.307,0.465-0.459h-1.819v-3.638c0-2.182,0.266-3.867,0.813-5.154
				c0.604-1.418,1.76-2.646,3.437-3.648c1.621-0.969,3.688-1.461,6.143-1.461c2.959,0,5.192,0.554,6.828,1.693
				c1.711,1.193,2.76,2.716,3.119,4.527c0.286,1.436,0.425,4.179,0.425,8.385v14.255H277.05
				C276.27,40.417,275.41,40.564,274.48,40.564z"/>
			<linearGradient id="SVGID_15_" gradientUnits="userSpaceOnUse" x1="26.1235" y1="24.626" x2="325.5195" y2="24.626">
				<stop  offset="0" style="stop-color:#27AAE1"/>
				<stop  offset="0.629" style="stop-color:#F1F2F2"/>
				<stop  offset="1" style="stop-color:#27AAE1"/>
			</linearGradient>
			<path fill="url(#SVGID_15_)" d="M296.617,40.564c-2.159,0-4.061-0.354-5.652-1.051c-1.775-0.779-3.038-1.898-3.755-3.329
				c-0.65-1.303-0.966-3.088-0.966-5.459v-3.178h3.081c-1.171-0.888-1.941-1.753-2.369-2.647c-0.606-1.267-0.914-2.755-0.914-4.424
				c0-2.319,0.335-4.048,1.024-5.288c0.741-1.33,1.957-2.347,3.616-3.023c1.468-0.599,3.168-0.903,5.052-0.903
				c1.842,0,3.461,0.248,4.811,0.735c1.444,0.523,2.595,1.254,3.42,2.173c0.849,0.942,1.361,1.851,1.569,2.777
				c0.162,0.728,0.241,1.755,0.241,3.142v3.417h-3.24c1.09,0.717,1.89,1.433,2.418,2.162c0.938,1.298,1.393,3.012,1.393,5.242
				c0,2.328-0.324,4.097-0.991,5.406c-0.726,1.423-1.917,2.518-3.544,3.252C300.349,40.229,298.602,40.564,296.617,40.564z"/>
			<linearGradient id="SVGID_16_" gradientUnits="userSpaceOnUse" x1="26.1235" y1="24.626" x2="325.5195" y2="24.626">
				<stop  offset="0" style="stop-color:#27AAE1"/>
				<stop  offset="0.629" style="stop-color:#F1F2F2"/>
				<stop  offset="1" style="stop-color:#27AAE1"/>
			</linearGradient>
			<path fill="url(#SVGID_16_)" d="M304.332,40.123V6.331h11.435v5.284c0.782-0.234,1.604-0.353,2.453-0.353
				c1.726,0,3.237,0.463,4.496,1.375c1.31,0.949,2.134,2.111,2.447,3.455c0.243,1.039,0.356,2.689,0.356,5.193v18.837H304.332z"/>
		</g>
		<g>
			<path fill="#103955" d="M37.226,39.123V28.224c0-1.831-0.175-2.325-0.214-2.414c0,0.001-0.002,0.001-0.005,0.001
				c-0.015,0-0.057-0.013-0.136-0.031v13.343h-9.747V7.331h6.483c3.761,0,6.259,0.146,7.638,0.447
				c1.541,0.336,2.809,1.198,3.77,2.563c0.946,1.344,1.406,3.347,1.406,6.124c0,2.594-0.335,4.266-1.055,5.26
				c-0.294,0.407-0.677,0.748-1.153,1.023c0.32,0.218,0.586,0.457,0.8,0.716c0.632,0.764,1.02,1.47,1.187,2.159
				c0.095,0.395,0.221,1.305,0.221,4.642v8.857H37.226z M36.87,18.965c0.089-0.021,0.152-0.042,0.194-0.06
				c0.051-0.135,0.162-0.54,0.162-1.539v-1.638c0-0.876-0.166-1.105-0.173-1.115l0,0c-0.001,0-0.049-0.036-0.182-0.076V18.965z"/>
			<rect x="47.199" y="7.331" fill="#103955" width="9.655" height="31.792"/>
			<path fill="#103955" d="M59.853,39.123l-4.041-26.419h8.693l1.057,9.003c0.208-2.775,0.447-5.501,0.71-8.104l0.091-0.899h8.695
				l-3.763,26.419H59.853z"/>
			<path fill="#103955" d="M83.511,39.564c-1.685,0-3.203-0.25-4.512-0.745c-1.358-0.513-2.441-1.239-3.217-2.159
				c-0.76-0.899-1.295-1.907-1.59-2.996c-0.284-1.046-0.421-2.489-0.421-4.411v-7.122c0-2.304,0.313-4.094,0.959-5.474
				c0.672-1.438,1.78-2.549,3.292-3.305c1.446-0.723,3.12-1.09,4.974-1.09c2.255,0,4.162,0.445,5.666,1.324
				c1.541,0.899,2.642,2.119,3.271,3.625c0.603,1.443,0.896,3.372,0.896,5.896v6.625c0,1.6-0.102,2.813-0.312,3.706
				c-0.222,0.945-0.731,1.944-1.512,2.971c-0.802,1.056-1.832,1.857-3.061,2.384C86.751,39.305,85.26,39.564,83.511,39.564z
				 M83.364,33.24c0.161,0,0.216-0.031,0.217-0.031c0.049-0.117,0.2-0.569,0.2-2.06v-3.803h-0.576v4.28
				c0,1.019,0.072,1.45,0.112,1.612C83.33,33.24,83.346,33.24,83.364,33.24z M83.376,21.371v-0.784c0-1.131-0.056-1.672-0.099-1.92
				c-0.033,0.276-0.073,0.834-0.073,1.92v0.784H83.376z"/>
			<path fill="#103955" d="M93.257,39.123V12.704h9.53l-0.075,0.821c0.946-0.755,2.053-1.177,3.312-1.26l1.066-0.07v10.662h-1
				c-1.467,0-2.169,0.227-2.499,0.418c-0.394,0.227-0.617,0.51-0.702,0.89c-0.09,0.4-0.197,1.473-0.197,4.316v10.643H93.257z"/>
			<path fill="#103955" d="M123.645,39.749c-2.432,0-4.484-0.458-6.1-1.36c-1.69-0.943-2.83-2.28-3.388-3.973
				c-0.517-1.571-0.768-3.819-0.768-6.874v-8.703c0-2.212,0.075-3.837,0.23-4.967c0.169-1.234,0.674-2.431,1.5-3.556
				c0.833-1.132,1.989-2.03,3.439-2.669c1.417-0.624,3.053-0.94,4.866-0.94c2.455,0,4.527,0.493,6.161,1.464
				c1.683,1,2.813,2.287,3.357,3.823c0.509,1.44,0.757,3.56,0.757,6.481v3.83h-9.747v-6.179c0-1.673-0.109-2.224-0.15-2.373
				c-0.005,0.001-0.11-0.005-0.193-0.005c-0.184,0-0.275,0.031-0.294,0.043c-0.03,0.111-0.178,0.652-0.178,2.582v13.838
				c0,1.839,0.145,2.355,0.189,2.47c0.014,0.004,0.082,0.026,0.228,0.026c0.129,0,0.195-0.021,0.209-0.029
				c0.027-0.088,0.189-0.602,0.189-2.753v-4.744h9.747v2.161c0,3.221-0.231,5.472-0.706,6.88c-0.507,1.502-1.615,2.817-3.291,3.909
				C128.053,39.205,126.015,39.749,123.645,39.749z"/>
			<rect x="134.255" y="7.331" fill="#103955" width="9.655" height="31.792"/>
			<path fill="#103955" d="M152.737,39.123c-1.776,0-3.024-0.075-3.817-0.23c-0.904-0.175-1.711-0.586-2.399-1.221
				c-0.707-0.651-1.155-1.419-1.333-2.282c-0.096-0.465-0.223-1.472-0.223-4.829V19.157h-1.601v-5.864h1.601V9.447h9.453v3.846
				h2.005v5.864h-2.005v12.065c0,1.041,0.036,1.607,0.069,1.909c0.227,0.027,0.613,0.054,1.249,0.054h1v5.938H152.737z"/>
			<path fill="#103955" d="M156.319,42.546v-5.901h1c0.983,0,1.475-0.044,1.709-0.079c-0.035-0.248-0.136-0.833-0.421-2.236
				l-4.31-21.625h8.83l1.238,8.353l0.604-8.353h8.783l-2.259,18.785c-0.344,2.859-0.625,4.763-0.861,5.821
				c-0.259,1.163-0.705,2.147-1.325,2.926c-0.647,0.813-1.543,1.415-2.665,1.789c-1.049,0.351-2.624,0.521-4.814,0.521H156.319z"/>
			<path fill="#103955" d="M179.817,39.123V7.331h8.802c2.225,0,3.908,0.176,5.147,0.537c1.308,0.381,2.322,0.96,3.017,1.721
				c0.686,0.751,1.155,1.668,1.396,2.725c0.222,0.971,0.329,2.395,0.329,4.353v2.595c0,2.063-0.222,3.558-0.679,4.569
				c-0.494,1.098-1.392,1.942-2.667,2.509c-1.188,0.528-2.666,0.785-4.519,0.785h-1.079v11.998H179.817z M189.564,19.992
				c0.168-0.034,0.246-0.082,0.266-0.106c0.007-0.011,0.199-0.308,0.199-1.562v-2.447c0-0.989-0.17-1.259-0.183-1.278l0,0
				c-0.005,0-0.079-0.043-0.282-0.086V19.992z"/>
			<path fill="#103955" d="M198.513,39.123V12.704h9.53l-0.075,0.821c0.946-0.755,2.053-1.177,3.311-1.26l1.066-0.07v10.662h-1
				c-1.468,0-2.169,0.227-2.499,0.418c-0.395,0.227-0.617,0.509-0.702,0.889c-0.09,0.4-0.196,1.473-0.196,4.317v10.643H198.513z"/>
			<path fill="#103955" d="M221.373,39.564c-1.739,0-3.246-0.198-4.479-0.59c-1.313-0.416-2.36-1.067-3.113-1.936
				c-0.73-0.845-1.257-1.872-1.563-3.053c-0.294-1.127-0.438-2.735-0.438-4.917v-6.256c0-2.417,0.263-4.273,0.803-5.678
				c0.569-1.48,1.601-2.681,3.064-3.569c1.429-0.866,3.25-1.304,5.413-1.304c1.792,0,3.367,0.276,4.681,0.821
				c1.344,0.559,2.407,1.31,3.16,2.233c0.734,0.901,1.246,1.852,1.521,2.826c0.268,0.945,0.397,2.298,0.397,4.136v5.98
				c0,2.286-0.116,3.935-0.354,5.041c-0.253,1.173-0.797,2.281-1.617,3.291c-0.836,1.026-1.917,1.792-3.215,2.275
				C224.394,39.33,222.96,39.564,221.373,39.564z M221.305,18.682c-0.039,0.242-0.09,0.75-0.09,1.758v11.022
				c0,0.952,0.053,1.437,0.095,1.671c0.035-0.226,0.076-0.654,0.076-1.432V20.439C221.386,19.451,221.341,18.938,221.305,18.682z"/>
			<path fill="#103955" d="M254.351,39.123l-0.156-0.81c-0.489-2.528-0.95-5.272-1.38-8.206c-0.32,2.3-0.706,5.022-1.154,8.157
				l-0.123,0.858h-11.375l-3.699-31.792h9.573l0.749,9.521c0.306-2.676,0.668-5.564,1.087-8.655l0.117-0.866h9.803l0.108,0.877
				c0.102,0.822,0.352,3.703,0.764,8.794c0.323-2.974,0.697-5.917,1.118-8.815l0.124-0.856h9.513l-3.681,31.792H254.351z"/>
			<path fill="#103955" d="M274.48,39.564c-1.496,0-2.889-0.425-4.138-1.265c-1.394-0.937-2.07-2.776-2.07-5.624v-2.005
				c0-2.096,0.363-3.533,1.109-4.392c0.583-0.669,1.708-1.351,3.5-2.116h-4.609v-2.638c0-2.044,0.24-3.602,0.733-4.762
				c0.519-1.22,1.538-2.29,3.029-3.181c1.463-0.875,3.357-1.319,5.629-1.319c2.748,0,4.794,0.495,6.257,1.513
				c1.49,1.04,2.402,2.352,2.709,3.901c0.273,1.372,0.406,4.051,0.406,8.191v13.255h-9.231V38.61
				c-0.078,0.054-0.157,0.105-0.238,0.154C276.695,39.295,275.656,39.564,274.48,39.564z M277.518,33.24
				c0.032-0.203,0.084-0.684,0.084-1.705v-2.751c-0.074,0.111-0.105,0.185-0.119,0.225c-0.107,0.335-0.236,0.995-0.236,2.232
				c0,1.385,0.106,1.864,0.147,1.998c0.003,0,0.006,0,0.009,0C277.42,33.239,277.506,33.24,277.518,33.24z M277.332,18.6
				c-0.036,0.247-0.086,0.804-0.086,2.006v1.677c0.115-0.065,0.19-0.113,0.239-0.147c0.042-0.16,0.116-0.57,0.116-1.476
				c0-1.631-0.164-2.013-0.183-2.051C277.386,18.604,277.356,18.602,277.332,18.6z"/>
			<path fill="#103955" d="M296.617,39.564c-2.021,0-3.787-0.325-5.251-0.967c-1.556-0.682-2.653-1.645-3.263-2.861
				c-0.578-1.16-0.859-2.798-0.859-5.011v-2.178h5.554c-0.169-0.095-0.347-0.194-0.532-0.297c-2.393-1.344-3.833-2.581-4.408-3.782
				c-0.541-1.131-0.815-2.474-0.815-3.992c0-2.144,0.294-3.715,0.898-4.802c0.627-1.126,1.677-1.995,3.119-2.583
				c1.348-0.55,2.921-0.829,4.675-0.829c1.726,0,3.23,0.228,4.471,0.676c1.287,0.466,2.302,1.106,3.017,1.901
				c0.73,0.812,1.168,1.573,1.336,2.327c0.146,0.655,0.218,1.611,0.218,2.923v2.417h-6.161c0.271,0.14,0.572,0.292,0.91,0.458
				c2.325,1.135,3.837,2.212,4.619,3.29c0.798,1.105,1.202,2.67,1.202,4.655c0,2.167-0.289,3.787-0.882,4.953
				c-0.62,1.215-1.65,2.156-3.064,2.794C300.067,39.259,298.458,39.564,296.617,39.564z M296.064,33.24
				c0.211,0,0.31-0.03,0.343-0.043c-0.01-0.025,0.075-0.296,0.075-1.017c0-1.238-0.167-1.542-0.174-1.555
				c-0.019-0.011-0.127-0.093-0.477-0.311v0.78c0,1.547,0.119,2.025,0.16,2.145l0,0C296.007,33.238,296.031,33.24,296.064,33.24z
				 M296.027,18.587c-0.105,0-0.144,0.019-0.144,0.019c-0.008,0.013-0.106,0.158-0.106,0.637c0,0.854,0.071,1.218,0.113,1.359
				c0.004,0.01,0.044,0.139,0.297,0.387v-0.807c0-0.921-0.046-1.379-0.08-1.593C296.084,18.588,296.058,18.587,296.027,18.587z"/>
			<path fill="#103955" d="M315.086,39.123V20.937c0-1.569-0.092-2.152-0.137-2.344l-0.071-0.002
				c0.021,0.086-0.111,0.554-0.111,2.107v18.426h-9.435V7.331h9.435v5.77c0.229-0.121,0.463-0.229,0.701-0.324
				c0.858-0.341,1.784-0.514,2.752-0.514c1.51,0,2.825,0.398,3.908,1.185c1.11,0.804,1.804,1.771,2.062,2.873
				c0.222,0.949,0.33,2.574,0.33,4.966v17.837H315.086z"/>
		</g>
		<text transform="matrix(1 0 0 1 26.5776 38.123)" fill="#FFFFFF" font-family="'Impact'" font-size="37.6859">River City Pro Wash</text>
	</g>
	<g>
		<path fill="#FFFFFF" d="M24.806,86.476l-2.722,4.166l-4.019-2.933l2.748-4.021l-0.539-2.948l1.557-1.805l2.599-0.479
			l12.717-11.393c0,0,1.592-1.62-0.124-6.505c-0.032-0.092-0.064-0.183-0.099-0.28c-1.876-5.096,6.932-6.124,6.932-6.124
			l25.354,1.752c0,0,1.277,0.637,1.584,2.32l4.1,0.193l0.141,0.776l31.92-0.034c0,0-0.305-2.046,3.435-2.227
			c3.743-0.173,0.052,0.281,0.052,0.281l69.12-0.149c0,0,1.754,0.476,1.922,2.187l124.354,0.518l0.879-1.136l2.25-0.193l0.213,1.157
			l0.668-1.101l1.688-0.309l0.172,0.944l0.9-1.031c0,0,2.746-1.048,3.064,1.288l0.301,4.625l-9.5,0.431l-0.785-1.924L181.879,62.19
			l-2.02,2.654l-71.099-0.172l-2.35-2.726l-31.86,0.163l-0.871,0.594l-3.85,0.38c0,0-0.246,2.221-3.463,2.482l-2.987,0.328
			L42.174,90.993c0,0-3.02,4.907-10.925,0.368L24.806,86.476z"/>
	</g>
</g>
</svg>
