<?xml version="1.0" encoding="utf-8"?>
<!-- Generator: Adobe Illustrator 16.0.0, SVG Export Plug-In . SVG Version: 6.00 Build 0)  -->
<!DOCTYPE svg PUBLIC "-//W3C//DTD SVG 1.1//EN" "http://www.w3.org/Graphics/SVG/1.1/DTD/svg11.dtd">
<svg version="1.1" xmlns="http://www.w3.org/2000/svg" xmlns:xlink="http://www.w3.org/1999/xlink" x="0px" y="0px" width="200px"
	 height="200px" viewBox="0 0 200 200" enable-background="new 0 0 200 200" xml:space="preserve">
<g id="background" display="none">
	<rect display="inline" fill="#262262" width="200" height="200"/>
</g>
<g id="Layer_1">
	<g>
		<linearGradient id="SVGID_1_" gradientUnits="userSpaceOnUse" x1="0" y1="100" x2="200" y2="100">
			<stop  offset="0" style="stop-color:#FFFFFF"/>
			<stop  offset="0.5282" style="stop-color:#00AEEF"/>
			<stop  offset="1" style="stop-color:#262262"/>
		</linearGradient>
		<path fill="url(#SVGID_1_)" d="M100,0C44.768,0,0,44.77,0,100c0,55.23,44.768,100,100,100c55.232,0,100-44.77,100-100
			C200,44.77,155.232,0,100,0z"/>
		<linearGradient id="SVGID_2_" gradientUnits="userSpaceOnUse" x1="193.9805" y1="100.0005" x2="6.02" y2="100.0005">
			<stop  offset="0" style="stop-color:#FFFFFF"/>
			<stop  offset="0.5282" style="stop-color:#00AEEF"/>
			<stop  offset="1" style="stop-color:#262262"/>
		</linearGradient>
		<path fill="url(#SVGID_2_)" d="M193.98,100c0,51.908-42.068,93.982-93.98,93.982c-51.911,0-93.98-42.074-93.98-93.982
			c0-51.909,42.07-93.982,93.98-93.982C151.912,6.018,193.98,48.091,193.98,100z"/>
		<linearGradient id="SVGID_3_" gradientUnits="userSpaceOnUse" x1="11.1138" y1="100" x2="188.8867" y2="100">
			<stop  offset="0" style="stop-color:#FFFFFF"/>
			<stop  offset="0.5282" style="stop-color:#00AEEF"/>
			<stop  offset="1" style="stop-color:#262262"/>
		</linearGradient>
		<path fill="url(#SVGID_3_)" d="M188.887,100c0,49.088-39.805,88.887-88.887,88.887c-49.091,0-88.886-39.799-88.886-88.887
			c0-49.093,39.795-88.888,88.886-88.888C149.082,11.112,188.887,50.907,188.887,100z"/>
		<path fill="#262262" d="M90.805,60.281"/>
		<path fill="#262262" d="M11.146,87.632c-0.653,4.296-1.003,8.688-1.003,13.165c0,49.09,40.232,88.888,89.857,88.888
			c49.62,0,89.857-39.798,89.857-88.888c0-4.477-0.354-8.869-1.003-13.165H11.146z"/>
		<g>
			<g>
				<path fill="#E4E3EF" d="M16.541,118.355v-22.52h6.041c2.326,0,3.792,0.093,4.755,0.303c1.453,0.317,2.687,1.148,3.57,2.404
					c0.825,1.171,1.225,2.742,1.225,4.803c0,1.484-0.177,2.605-0.563,3.494c0.167,0.332,0.29,0.668,0.373,1.012
					c0.118,0.488,0.19,1.185,0.19,3.146v7.357H16.541z"/>
				<rect x="27.673" y="95.836" fill="#E4E3EF" width="10.245" height="22.52"/>
				<polygon fill="#E4E3EF" points="35.035,118.355 32.046,98.815 48.385,98.815 45.602,118.355 				"/>
				<path fill="#E4E3EF" d="M50.254,118.601c-1.23,0-2.363-0.192-3.367-0.571c-1.143-0.431-2.081-1.071-2.785-1.903
					c-0.657-0.78-1.119-1.655-1.376-2.604c-0.217-0.8-0.318-1.78-0.318-3.084v-3.949c0-1.644,0.25-2.976,0.762-4.072
					c0.603-1.288,1.622-2.32,2.946-2.983c1.145-0.572,2.44-0.863,3.853-0.863c1.689,0,3.16,0.359,4.374,1.067
					c1.325,0.773,2.279,1.842,2.838,3.18c0.432,1.032,0.656,2.307,0.683,3.886l0.003,5.122h-0.032
					c-0.037,0.572-0.104,1.06-0.206,1.491c-0.202,0.86-0.63,1.725-1.272,2.569c-0.702,0.925-1.605,1.629-2.681,2.09
					C52.706,118.391,51.555,118.601,50.254,118.601z"/>
				<path fill="#E4E3EF" d="M53.213,118.355v-19.54h8.052c0.493-0.149,0.945-0.214,1.31-0.239l3.198-0.211v10.97h-2.434
					c-0.003,0.194-0.004,0.418-0.004,0.674v8.347H53.213z"/>
				<path fill="#E4E3EF" d="M72.508,118.702c-1.771,0-3.311-0.358-4.575-1.064c-1.468-0.818-2.509-2.055-3.009-3.574
					c-0.374-1.134-0.548-2.588-0.548-4.575v-4.826c0-1.34,0.049-2.35,0.15-3.086c0.151-1.095,0.583-2.133,1.284-3.087
					c0.718-0.978,1.691-1.741,2.892-2.271c1.098-0.484,2.338-0.729,3.685-0.729c1.807,0,3.376,0.389,4.666,1.155
					c1.437,0.853,2.419,1.999,2.917,3.406c0.382,1.081,0.56,2.481,0.56,4.41v4.917c0,2.085-0.165,3.546-0.52,4.597
					c-0.462,1.368-1.407,2.524-2.808,3.437C75.884,118.268,74.305,118.702,72.508,118.702z"/>
				<rect x="75.946" y="95.836" fill="#E4E3EF" width="10.245" height="22.52"/>
				<path fill="#E4E3EF" d="M88.64,118.355c-1.158,0-1.979-0.055-2.583-0.173c-0.954-0.186-1.803-0.616-2.523-1.281
					c-0.764-0.704-1.275-1.594-1.476-2.571c-0.09-0.438-0.173-1.125-0.173-3.168v-3.878h-0.888v-8.143h0.888v-2.132h10.133v2.132
					h1.112v8.143h-1.112v2.888h1.286v8.184H88.64z"/>
				<path fill="#E4E3EF" d="M88.18,120.253v-8.163h0.989l-2.646-13.274h16.525l-1.581,13.154c-0.203,1.686-0.367,2.787-0.518,3.466
					c-0.226,1.012-0.633,1.892-1.209,2.615c-0.659,0.827-1.539,1.429-2.616,1.788c-0.846,0.282-1.941,0.414-3.445,0.414H88.18z"/>
				<path fill="#E4E3EF" d="M101.211,118.355v-22.52h7.326c1.47,0,2.627,0.129,3.539,0.396c1.163,0.339,2.104,0.896,2.795,1.655
					c0.668,0.731,1.123,1.612,1.351,2.616c0.166,0.725,0.243,1.665,0.243,2.956v1.438c0,1.52-0.188,2.644-0.591,3.539
					c-0.523,1.159-1.464,2.065-2.72,2.622c-0.501,0.223-1.048,0.388-1.648,0.495v6.803H101.211z"/>
				<path fill="#E4E3EF" d="M111.577,118.355v-19.54h8.054c0.492-0.149,0.944-0.214,1.31-0.239l3.198-0.211v10.97h-2.435
					c-0.003,0.194-0.005,0.418-0.005,0.674v8.347H111.577z"/>
				<path fill="#E4E3EF" d="M126.698,118.601c-1.231,0-2.285-0.145-3.222-0.44c-1.169-0.372-2.122-0.979-2.838-1.807
					c-0.652-0.755-1.119-1.655-1.384-2.678c-0.219-0.836-0.321-1.898-0.321-3.341v-3.469c0-1.646,0.199-2.963,0.608-4.026
					c0.506-1.318,1.444-2.423,2.713-3.192c1.182-0.715,2.617-1.077,4.271-1.077c1.317,0,2.506,0.216,3.532,0.643
					c1.121,0.465,2.033,1.121,2.71,1.949c0.623,0.766,1.061,1.59,1.304,2.455c0.211,0.746,0.311,1.687,0.311,2.953v3.316
					c0,1.462-0.08,2.514-0.251,3.309c-0.221,1.029-0.688,1.989-1.389,2.852c-0.747,0.916-1.696,1.591-2.827,2.013
					C128.954,118.418,127.871,118.601,126.698,118.601z"/>
				<polygon fill="#E4E3EF" points="134.94,118.355 132.319,95.836 156.085,95.836 153.479,118.355 				"/>
				<path fill="#E4E3EF" d="M156.146,118.601c-1.324,0-2.555-0.376-3.658-1.117c-1.479-0.993-2.229-2.726-2.229-5.148v-1.112
					c0-0.348,0.012-0.744,0.06-1.163h-0.06v-3.908c0-1.467,0.196-2.643,0.601-3.595c0.493-1.161,1.393-2.14,2.675-2.907
					c1.196-0.716,2.669-1.079,4.378-1.079c2.042,0,3.634,0.418,4.868,1.28c1.342,0.935,2.208,2.211,2.502,3.691
					c0.127,0.633,0.272,1.777,0.272,5.019v9.796h-7.674C157.338,118.519,156.758,118.601,156.146,118.601z"/>
				<path fill="#E4E3EF" d="M168.422,118.601c-1.462,0-2.773-0.25-3.896-0.744c-1.396-0.611-2.411-1.529-3.012-2.729
					c-0.495-0.988-0.735-2.256-0.735-3.874v-3.653h0.132c-0.162-0.635-0.244-1.313-0.244-2.03c0-1.616,0.265-2.877,0.808-3.853
					c0.612-1.103,1.63-1.971,2.94-2.507c1.046-0.425,2.228-0.641,3.517-0.641c1.242,0,2.356,0.175,3.312,0.521
					c1.094,0.396,1.988,0.973,2.657,1.716c0.684,0.761,1.123,1.563,1.31,2.386c0.124,0.557,0.181,1.24,0.181,2.162v3.661
					c0.21,0.699,0.316,1.48,0.316,2.339c0,1.598-0.247,2.859-0.756,3.857c-0.59,1.162-1.583,2.086-2.871,2.667
					C171.022,118.358,169.792,118.601,168.422,118.601z"/>
				<path fill="#E4E3EF" d="M170.809,118.355v-22.52h10.122v2.754c1.148,0.086,2.18,0.456,3.071,1.102
					c1.377,0.998,1.896,2.19,2.09,3.015c0.171,0.729,0.247,1.751,0.247,3.313v12.336H170.809z"/>
			</g>
			<g>
				<path fill="#262262" d="M18.541,116.355v-18.52h4.041c2.118,0,3.535,0.084,4.33,0.257c0.967,0.211,1.761,0.75,2.36,1.601
					c0.579,0.823,0.86,2.017,0.86,3.652c0,1.536-0.212,2.546-0.669,3.178c-0.086,0.118-0.183,0.229-0.291,0.33
					c0.027,0.029,0.053,0.059,0.078,0.089c0.395,0.478,0.639,0.928,0.748,1.378c0.066,0.276,0.135,0.812,0.135,2.678v5.357H18.541z"
					/>
				<rect x="29.673" y="97.836" fill="#262262" width="6.245" height="18.52"/>
				<path fill="#262262" d="M36.752,116.355l-2.377-15.54h5.735l0.125,1.062c0.005-0.055,0.107-1.062,0.107-1.062h5.737
					l-2.213,15.54H36.752z"/>
				<path fill="#262262" d="M50.254,116.601c-0.988,0-1.883-0.148-2.66-0.442c-0.823-0.31-1.484-0.756-1.966-1.324
					c-0.465-0.553-0.792-1.169-0.972-1.835c-0.167-0.617-0.249-1.455-0.249-2.562v-3.949c0-1.345,0.188-2.399,0.574-3.225
					c0.416-0.889,1.099-1.576,2.03-2.042c0.864-0.432,1.859-0.651,2.958-0.651c1.33,0,2.462,0.267,3.366,0.795
					c0.94,0.548,1.613,1.296,2,2.223c0.357,0.854,0.531,1.98,0.531,3.441v3.673c0,0.922-0.061,1.628-0.185,2.157
					c-0.137,0.585-0.446,1.195-0.917,1.815c-0.491,0.647-1.123,1.14-1.876,1.462C52.169,116.444,51.283,116.601,50.254,116.601z"/>
				<path fill="#262262" d="M55.213,116.355v-15.54h6.218l-0.006,0.07c0.452-0.201,0.895-0.287,1.283-0.313l1.066-0.07v6.833h-1
					c-0.802,0-1.093,0.132-1.163,0.173c-0.151,0.087-0.167,0.157-0.177,0.204c-0.029,0.132-0.098,0.62-0.098,2.297v6.347H55.213z"/>
				<path fill="#262262" d="M72.508,116.702c-1.426,0-2.637-0.272-3.6-0.811c-1.038-0.578-1.739-1.403-2.084-2.453
					c-0.302-0.914-0.448-2.206-0.448-3.95v-4.826c0-1.248,0.043-2.169,0.131-2.814c0.105-0.761,0.413-1.492,0.914-2.175
					c0.508-0.691,1.21-1.238,2.086-1.624c0.842-0.371,1.811-0.56,2.878-0.56c1.442,0,2.668,0.294,3.644,0.875
					c1.025,0.608,1.716,1.401,2.054,2.354c0.3,0.848,0.445,2.071,0.445,3.742v2.569h-5.857v0.704h5.857v1.644
					c0,1.836-0.136,3.13-0.415,3.957c-0.314,0.932-0.989,1.738-2.004,2.399C75.122,116.376,73.911,116.702,72.508,116.702z"/>
				<rect x="77.946" y="97.836" fill="#262262" width="6.245" height="18.52"/>
				<path fill="#262262" d="M88.64,116.355c-1.012,0-1.732-0.044-2.201-0.136c-0.584-0.113-1.105-0.379-1.548-0.788
					c-0.462-0.426-0.756-0.932-0.873-1.503c-0.057-0.277-0.133-0.865-0.133-2.767v-5.878h-0.888v-4.143h0.888v-2.132h6.133v2.132
					h1.112v4.143h-1.112v6.245c0,0.271,0.004,0.48,0.011,0.639c0.079,0.003,1.275,0.004,1.275,0.004v4.184H88.64z"/>
				<path fill="#262262" d="M90.18,118.253v-4.163h1c0.169,0,0.309-0.002,0.425-0.006c-0.034-0.18-2.644-13.269-2.644-13.269h5.824
					l0.149,1.007l0.073-1.007h5.787l-1.313,10.915c-0.192,1.597-0.351,2.667-0.485,3.271c-0.159,0.712-0.435,1.319-0.821,1.804
					c-0.414,0.52-0.98,0.901-1.685,1.137c-0.627,0.21-1.547,0.312-2.812,0.312H90.18z"/>
				<path fill="#262262" d="M103.211,116.355v-18.52h5.326c1.277,0,2.251,0.103,2.979,0.315c0.806,0.235,1.438,0.599,1.878,1.082
					c0.432,0.474,0.728,1.05,0.878,1.713c0.13,0.568,0.193,1.391,0.193,2.512v1.438c0,1.21-0.136,2.099-0.414,2.718
					c-0.322,0.713-0.896,1.256-1.706,1.614c-0.717,0.319-1.596,0.475-2.686,0.475h-0.153v6.652H103.211z"/>
				<path fill="#262262" d="M113.577,116.355v-15.54h6.218l-0.006,0.07c0.452-0.201,0.896-0.287,1.283-0.313l1.066-0.07v6.833h-1
					c-0.802,0-1.093,0.132-1.163,0.173c-0.151,0.087-0.167,0.157-0.178,0.203c-0.029,0.134-0.099,0.621-0.099,2.298v6.347H113.577z"
					/>
				<path fill="#262262" d="M126.698,116.601c-1.009,0-1.89-0.117-2.617-0.348c-0.811-0.258-1.459-0.663-1.93-1.207
					c-0.45-0.521-0.773-1.151-0.961-1.873c-0.173-0.66-0.257-1.589-0.257-2.838v-3.469c0-1.396,0.155-2.478,0.475-3.309
					c0.352-0.915,0.985-1.655,1.884-2.2c0.863-0.522,1.951-0.787,3.233-0.787c1.053,0,1.983,0.165,2.766,0.489
					c0.813,0.338,1.462,0.798,1.927,1.367c0.447,0.55,0.76,1.132,0.928,1.73c0.159,0.561,0.236,1.351,0.236,2.413v3.316
					c0,1.299-0.067,2.244-0.206,2.888c-0.154,0.719-0.486,1.396-0.986,2.012c-0.517,0.634-1.18,1.104-1.973,1.399
					C128.479,116.461,127.631,116.601,126.698,116.601z"/>
				<path fill="#262262" d="M144.617,116.355l-0.156-0.81c-0.103-0.529-0.203-1.075-0.301-1.636
					c-0.071,0.504-0.349,2.445-0.349,2.445h-7.091l-2.155-18.52h6.22l0.104,1.323c0.021-0.151,0.179-1.323,0.179-1.323h6.221
					l0.107,0.879c0.015,0.128,0.037,0.34,0.064,0.638c0.031-0.221,0.219-1.518,0.219-1.518h6.16l-2.144,18.52H144.617z"/>
				<path fill="#262262" d="M156.146,116.601c-0.919,0-1.774-0.262-2.542-0.777c-0.905-0.607-1.346-1.749-1.346-3.488v-1.112
					c0-1.292,0.23-2.159,0.725-2.728c0.128-0.146,0.29-0.291,0.49-0.436h-1.215v-1.908c0-1.192,0.145-2.113,0.441-2.813
					c0.324-0.764,0.95-1.427,1.861-1.973c0.882-0.527,2.009-0.795,3.351-0.795c1.618,0,2.837,0.301,3.725,0.92
					c0.923,0.644,1.489,1.464,1.684,2.44c0.158,0.787,0.234,2.302,0.234,4.629v7.796h-6.004
					C157.126,116.519,156.655,116.601,156.146,116.601z"/>
				<path fill="#262262" d="M168.422,116.601c-1.184,0-2.224-0.193-3.091-0.575c-0.959-0.42-1.643-1.023-2.028-1.793
					c-0.353-0.704-0.523-1.679-0.523-2.979v-1.653h1.935c-0.788-0.55-1.289-1.078-1.551-1.623c-0.329-0.69-0.496-1.5-0.496-2.407
					c0-1.267,0.182-2.209,0.555-2.879c0.396-0.714,1.053-1.263,1.95-1.629c0.803-0.327,1.73-0.492,2.76-0.492
					c1.01,0,1.895,0.135,2.631,0.401c0.782,0.283,1.405,0.678,1.853,1.175c0.457,0.509,0.732,0.995,0.845,1.488
					c0.088,0.397,0.131,0.959,0.131,1.721v1.786h-2.065c0.76,0.459,1.297,0.912,1.63,1.372c0.506,0.699,0.752,1.628,0.752,2.842
					c0,1.274-0.176,2.239-0.538,2.949c-0.388,0.765-1.032,1.355-1.912,1.753C170.459,116.418,169.506,116.601,168.422,116.601z"/>
				<path fill="#262262" d="M172.809,116.355v-18.52h6.122v2.969c0.465-0.156,0.958-0.235,1.47-0.235c0.933,0,1.75,0.25,2.429,0.741
					c0.704,0.511,1.147,1.134,1.315,1.852c0.133,0.566,0.194,1.474,0.194,2.856v10.336H172.809z"/>
			</g>
			<g>
				<linearGradient id="SVGID_4_" gradientUnits="userSpaceOnUse" x1="101.4404" y1="98.4888" x2="101.4404" y2="117.2534">
					<stop  offset="0" style="stop-color:#FFFFFF"/>
					<stop  offset="1" style="stop-color:#00AEEF"/>
				</linearGradient>
				<path fill="url(#SVGID_4_)" d="M19.541,98.836h3.041c2.027,0,3.399,0.078,4.117,0.234c0.717,0.157,1.302,0.556,1.755,1.199
					c0.452,0.643,0.678,1.668,0.678,3.076c0,1.286-0.16,2.149-0.479,2.592s-0.949,0.708-1.888,0.796
					c0.851,0.211,1.422,0.493,1.714,0.847s0.475,0.679,0.546,0.975s0.107,1.11,0.107,2.443v4.357h-3.989v-5.489
					c0-0.885-0.07-1.433-0.209-1.644c-0.139-0.21-0.505-0.315-1.097-0.315v7.448h-4.296V98.836z M23.837,101.662v3.674
					c0.483,0,0.821-0.066,1.015-0.199s0.291-0.563,0.291-1.291v-0.908c0-0.523-0.094-0.867-0.281-1.03
					S24.333,101.662,23.837,101.662z"/>
				<linearGradient id="SVGID_5_" gradientUnits="userSpaceOnUse" x1="101.4404" y1="98.4888" x2="101.4404" y2="117.2534">
					<stop  offset="0" style="stop-color:#FFFFFF"/>
					<stop  offset="1" style="stop-color:#00AEEF"/>
				</linearGradient>
				<path fill="url(#SVGID_5_)" d="M34.918,98.836v2.153h-4.245v-2.153H34.918z M34.918,101.815v13.54h-4.245v-13.54H34.918z"/>
				<linearGradient id="SVGID_6_" gradientUnits="userSpaceOnUse" x1="101.4404" y1="98.4888" x2="101.4404" y2="117.2534">
					<stop  offset="0" style="stop-color:#FFFFFF"/>
					<stop  offset="1" style="stop-color:#00AEEF"/>
				</linearGradient>
				<path fill="url(#SVGID_6_)" d="M44.927,101.815l-1.928,13.54h-5.388l-2.071-13.54h3.681l1.161,9.887
					c0.091-0.727,0.246-2.498,0.465-5.313c0.117-1.572,0.25-3.097,0.4-4.573H44.927z"/>
				<linearGradient id="SVGID_7_" gradientUnits="userSpaceOnUse" x1="101.4404" y1="98.4888" x2="101.4404" y2="117.2534">
					<stop  offset="0" style="stop-color:#FFFFFF"/>
					<stop  offset="1" style="stop-color:#00AEEF"/>
				</linearGradient>
				<path fill="url(#SVGID_7_)" d="M54.866,108.825h-5.336v2.929c0,0.612,0.044,1.007,0.133,1.184s0.258,0.265,0.51,0.265
					c0.313,0,0.522-0.117,0.627-0.352s0.158-0.688,0.158-1.362v-1.785h3.908v0.999c0,0.837-0.053,1.479-0.158,1.929
					s-0.352,0.929-0.74,1.438c-0.388,0.511-0.879,0.894-1.474,1.148s-1.342,0.383-2.24,0.383c-0.871,0-1.64-0.126-2.306-0.378
					c-0.667-0.251-1.185-0.597-1.556-1.035c-0.371-0.439-0.627-0.922-0.77-1.449c-0.143-0.527-0.214-1.294-0.214-2.301v-3.949
					c0-1.184,0.16-2.117,0.479-2.801s0.843-1.207,1.571-1.571s1.564-0.546,2.51-0.546c1.156,0,2.11,0.22,2.862,0.658
					s1.279,1.021,1.582,1.745c0.303,0.724,0.454,1.743,0.454,3.056V108.825z M50.733,106.621v-0.989
					c0-0.701-0.038-1.153-0.112-1.357s-0.228-0.307-0.459-0.307c-0.286,0-0.463,0.087-0.531,0.261
					c-0.068,0.173-0.102,0.641-0.102,1.403v0.989H50.733z"/>
				<linearGradient id="SVGID_8_" gradientUnits="userSpaceOnUse" x1="101.4404" y1="98.4888" x2="101.4404" y2="117.2534">
					<stop  offset="0" style="stop-color:#FFFFFF"/>
					<stop  offset="1" style="stop-color:#00AEEF"/>
				</linearGradient>
				<path fill="url(#SVGID_8_)" d="M60.335,101.815l-0.163,1.78c0.598-1.275,1.466-1.95,2.602-2.025v4.765
					c-0.755,0-1.31,0.103-1.663,0.307s-0.571,0.488-0.653,0.852c-0.082,0.364-0.123,1.203-0.123,2.516v5.347h-4.122v-13.54H60.335z"
					/>
				<linearGradient id="SVGID_9_" gradientUnits="userSpaceOnUse" x1="101.4404" y1="98.4888" x2="101.4404" y2="117.2534">
					<stop  offset="0" style="stop-color:#FFFFFF"/>
					<stop  offset="1" style="stop-color:#00AEEF"/>
				</linearGradient>
				<path fill="url(#SVGID_9_)" d="M77.528,106.029h-4.296v-2.871c0-0.835-0.046-1.355-0.138-1.563
					c-0.092-0.206-0.294-0.31-0.607-0.31c-0.354,0-0.578,0.125-0.673,0.377c-0.096,0.252-0.143,0.796-0.143,1.633v7.673
					c0,0.803,0.047,1.326,0.143,1.571c0.095,0.245,0.309,0.367,0.643,0.367c0.32,0,0.529-0.122,0.627-0.368
					c0.099-0.245,0.148-0.821,0.148-1.729v-2.076h4.296v0.644c0,1.71-0.121,2.923-0.362,3.638c-0.242,0.716-0.775,1.343-1.602,1.881
					c-0.826,0.538-1.845,0.807-3.056,0.807c-1.259,0-2.296-0.228-3.112-0.684c-0.816-0.455-1.357-1.087-1.622-1.893
					c-0.266-0.806-0.398-2.019-0.398-3.638v-4.826c0-1.19,0.041-2.083,0.122-2.679c0.082-0.595,0.325-1.168,0.729-1.719
					c0.405-0.551,0.966-0.984,1.684-1.301s1.542-0.475,2.475-0.475c1.265,0,2.31,0.245,3.132,0.734
					c0.823,0.489,1.364,1.099,1.623,1.829c0.258,0.73,0.388,1.866,0.388,3.408V106.029z"/>
				<linearGradient id="SVGID_10_" gradientUnits="userSpaceOnUse" x1="101.4404" y1="98.4888" x2="101.4404" y2="117.2534">
					<stop  offset="0" style="stop-color:#FFFFFF"/>
					<stop  offset="1" style="stop-color:#00AEEF"/>
				</linearGradient>
				<path fill="url(#SVGID_10_)" d="M83.191,98.836v2.153h-4.245v-2.153H83.191z M83.191,101.815v13.54h-4.245v-13.54H83.191z"/>
				<linearGradient id="SVGID_11_" gradientUnits="userSpaceOnUse" x1="101.4404" y1="98.4888" x2="101.4404" y2="117.2534">
					<stop  offset="0" style="stop-color:#FFFFFF"/>
					<stop  offset="1" style="stop-color:#00AEEF"/>
				</linearGradient>
				<path fill="url(#SVGID_11_)" d="M89.018,100.009v2.132h1.112v2.143h-1.112v7.245c0,0.891,0.046,1.388,0.138,1.489
					c0.092,0.103,0.474,0.153,1.148,0.153v2.184H88.64c-0.938,0-1.608-0.039-2.01-0.117s-0.755-0.259-1.061-0.541
					c-0.306-0.282-0.497-0.605-0.572-0.97c-0.075-0.363-0.112-1.219-0.112-2.565v-6.878h-0.888v-2.143h0.888v-2.132H89.018z"/>
				<linearGradient id="SVGID_12_" gradientUnits="userSpaceOnUse" x1="101.4404" y1="98.4888" x2="101.4404" y2="117.2534">
					<stop  offset="0" style="stop-color:#FFFFFF"/>
					<stop  offset="1" style="stop-color:#00AEEF"/>
				</linearGradient>
				<path fill="url(#SVGID_12_)" d="M99.667,101.815l-1.178,9.796c-0.187,1.551-0.343,2.608-0.468,3.173
					c-0.126,0.564-0.335,1.03-0.627,1.397s-0.699,0.638-1.219,0.812s-1.352,0.26-2.495,0.26h-2.5v-2.163
					c0.641,0,1.053-0.032,1.237-0.097s0.276-0.209,0.276-0.434c0-0.108-0.085-0.582-0.255-1.418l-2.257-11.326h3.742l1.354,9.143
					l0.661-9.143H99.667z"/>
				<linearGradient id="SVGID_13_" gradientUnits="userSpaceOnUse" x1="101.4404" y1="98.4888" x2="101.4404" y2="117.2534">
					<stop  offset="0" style="stop-color:#FFFFFF"/>
					<stop  offset="1" style="stop-color:#00AEEF"/>
				</linearGradient>
				<path fill="url(#SVGID_13_)" d="M104.211,98.836h4.326c1.17,0,2.069,0.092,2.698,0.275c0.63,0.184,1.103,0.449,1.419,0.796
					c0.316,0.347,0.53,0.767,0.643,1.261c0.112,0.492,0.168,1.256,0.168,2.29v1.438c0,1.055-0.108,1.823-0.326,2.307
					c-0.218,0.482-0.617,0.854-1.199,1.111c-0.581,0.259-1.342,0.389-2.28,0.389h-1.153v6.652h-4.295V98.836z M108.506,101.662
					v4.204c0.123,0.007,0.229,0.01,0.316,0.01c0.395,0,0.669-0.097,0.821-0.29c0.153-0.194,0.23-0.598,0.23-1.21v-1.356
					c0-0.564-0.089-0.933-0.266-1.103S109.064,101.662,108.506,101.662z"/>
				<linearGradient id="SVGID_14_" gradientUnits="userSpaceOnUse" x1="101.4404" y1="98.4888" x2="101.4404" y2="117.2534">
					<stop  offset="0" style="stop-color:#FFFFFF"/>
					<stop  offset="1" style="stop-color:#00AEEF"/>
				</linearGradient>
				<path fill="url(#SVGID_14_)" d="M118.699,101.815l-0.163,1.78c0.599-1.275,1.466-1.95,2.603-2.025v4.765
					c-0.756,0-1.31,0.103-1.663,0.307c-0.354,0.204-0.572,0.488-0.653,0.852c-0.082,0.364-0.123,1.203-0.123,2.516v5.347h-4.122
					v-13.54H118.699z"/>
				<linearGradient id="SVGID_15_" gradientUnits="userSpaceOnUse" x1="101.4404" y1="98.4888" x2="101.4404" y2="117.2534">
					<stop  offset="0" style="stop-color:#FFFFFF"/>
					<stop  offset="1" style="stop-color:#00AEEF"/>
				</linearGradient>
				<path fill="url(#SVGID_15_)" d="M131.382,106.57v3.316c0,1.218-0.062,2.11-0.184,2.678c-0.122,0.568-0.385,1.099-0.785,1.592
					c-0.402,0.493-0.917,0.857-1.546,1.092c-0.63,0.235-1.353,0.353-2.169,0.353c-0.911,0-1.684-0.101-2.315-0.301
					c-0.633-0.201-1.125-0.504-1.475-0.908c-0.351-0.405-0.601-0.895-0.75-1.47c-0.15-0.575-0.225-1.437-0.225-2.587v-3.469
					c0-1.259,0.136-2.241,0.408-2.949c0.271-0.707,0.762-1.275,1.469-1.704c0.708-0.429,1.612-0.643,2.715-0.643
					c0.925,0,1.719,0.138,2.382,0.413c0.664,0.275,1.176,0.635,1.536,1.076c0.36,0.442,0.607,0.898,0.739,1.368
					C131.315,104.896,131.382,105.611,131.382,106.57z M127.26,105.55c0-0.694-0.037-1.131-0.112-1.312
					c-0.075-0.18-0.234-0.271-0.479-0.271s-0.408,0.091-0.49,0.271c-0.081,0.181-0.122,0.617-0.122,1.312v6.112
					c0,0.639,0.041,1.056,0.122,1.25c0.082,0.193,0.242,0.29,0.48,0.29c0.244,0,0.406-0.088,0.484-0.265s0.117-0.558,0.117-1.144
					V105.55z"/>
				<linearGradient id="SVGID_16_" gradientUnits="userSpaceOnUse" x1="101.4404" y1="98.4888" x2="101.4404" y2="117.2534">
					<stop  offset="0" style="stop-color:#FFFFFF"/>
					<stop  offset="1" style="stop-color:#00AEEF"/>
				</linearGradient>
				<path fill="url(#SVGID_16_)" d="M152.718,98.836l-1.912,16.52h-5.363c-0.491-2.538-0.925-5.426-1.3-8.663
					c-0.172,1.389-0.571,4.275-1.198,8.663h-5.333l-1.923-16.52h4.173l0.454,5.764l0.439,5.572
					c0.158-2.884,0.554-6.662,1.188-11.336h4.461c0.059,0.483,0.215,2.299,0.469,5.448l0.474,6.286
					c0.244-3.999,0.645-7.91,1.199-11.734H152.718z"/>
				<linearGradient id="SVGID_17_" gradientUnits="userSpaceOnUse" x1="101.4404" y1="98.4888" x2="101.4404" y2="117.2534">
					<stop  offset="0" style="stop-color:#FFFFFF"/>
					<stop  offset="1" style="stop-color:#00AEEF"/>
				</linearGradient>
				<path fill="url(#SVGID_17_)" d="M157.126,107.06h-3.867v-0.908c0-1.047,0.121-1.854,0.362-2.423s0.727-1.069,1.454-1.505
					s1.674-0.653,2.837-0.653c1.395,0,2.445,0.247,3.152,0.74c0.708,0.493,1.133,1.099,1.275,1.815
					c0.144,0.718,0.215,2.196,0.215,4.434v6.796h-4.01v-1.207c-0.252,0.484-0.577,0.848-0.975,1.089
					c-0.398,0.242-0.873,0.363-1.424,0.363c-0.721,0-1.383-0.203-1.984-0.607c-0.603-0.404-0.903-1.291-0.903-2.658v-1.112
					c0-1.013,0.16-1.704,0.479-2.071c0.32-0.367,1.112-0.796,2.378-1.285c1.354-0.531,2.078-0.888,2.173-1.071
					c0.096-0.184,0.144-0.558,0.144-1.123c0-0.707-0.053-1.168-0.158-1.382c-0.105-0.215-0.281-0.322-0.525-0.322
					c-0.279,0-0.453,0.091-0.521,0.271c-0.068,0.181-0.103,0.648-0.103,1.403V107.06z M158.433,108.917
					c-0.66,0.483-1.043,0.888-1.148,1.214c-0.105,0.327-0.158,0.796-0.158,1.408c0,0.701,0.046,1.153,0.138,1.357
					s0.274,0.306,0.546,0.306c0.259,0,0.427-0.079,0.505-0.239s0.118-0.58,0.118-1.261V108.917z"/>
				<linearGradient id="SVGID_18_" gradientUnits="userSpaceOnUse" x1="101.4404" y1="98.4888" x2="101.4404" y2="117.2534">
					<stop  offset="0" style="stop-color:#FFFFFF"/>
					<stop  offset="1" style="stop-color:#00AEEF"/>
				</linearGradient>
				<path fill="url(#SVGID_18_)" d="M172.391,106.142h-3.652v-0.734c0-0.626-0.036-1.022-0.107-1.189
					c-0.071-0.166-0.25-0.25-0.536-0.25c-0.23,0-0.404,0.077-0.52,0.23c-0.116,0.152-0.174,0.382-0.174,0.688
					c0,0.415,0.029,0.719,0.087,0.913c0.058,0.193,0.231,0.406,0.521,0.638s0.882,0.568,1.78,1.01
					c1.197,0.586,1.982,1.137,2.356,1.653s0.562,1.269,0.562,2.255c0,1.103-0.143,1.934-0.429,2.495
					c-0.285,0.562-0.764,0.993-1.434,1.296s-1.478,0.454-2.423,0.454c-1.048,0-1.944-0.163-2.688-0.49
					c-0.745-0.326-1.257-0.769-1.536-1.326s-0.418-1.401-0.418-2.53v-0.653h3.652v0.857c0,0.728,0.046,1.2,0.138,1.418
					s0.274,0.326,0.546,0.326c0.293,0,0.497-0.072,0.612-0.219c0.116-0.146,0.174-0.454,0.174-0.924
					c0-0.646-0.075-1.051-0.225-1.214c-0.156-0.163-0.956-0.646-2.397-1.449c-1.211-0.68-1.949-1.298-2.215-1.852
					c-0.265-0.555-0.397-1.213-0.397-1.975c0-1.082,0.143-1.879,0.429-2.393c0.285-0.514,0.771-0.91,1.454-1.189
					c0.684-0.278,1.478-0.418,2.382-0.418c0.898,0,1.662,0.114,2.291,0.342s1.112,0.529,1.449,0.903
					c0.336,0.374,0.54,0.721,0.612,1.04c0.071,0.32,0.106,0.82,0.106,1.5V106.142z"/>
				<linearGradient id="SVGID_19_" gradientUnits="userSpaceOnUse" x1="101.4404" y1="98.4888" x2="101.4404" y2="117.2534">
					<stop  offset="0" style="stop-color:#FFFFFF"/>
					<stop  offset="1" style="stop-color:#00AEEF"/>
				</linearGradient>
				<path fill="url(#SVGID_19_)" d="M177.931,98.836v3.717c0.354-0.327,0.736-0.573,1.148-0.737
					c0.411-0.163,0.852-0.245,1.321-0.245c0.721,0,1.335,0.184,1.842,0.551s0.816,0.791,0.929,1.271s0.168,1.355,0.168,2.628v9.336
					h-4.122v-9.53c0-0.789-0.039-1.296-0.117-1.521s-0.254-0.337-0.525-0.337c-0.252,0-0.422,0.116-0.511,0.348
					c-0.088,0.231-0.133,0.69-0.133,1.377v9.663h-4.122v-16.52H177.931z"/>
			</g>
		</g>
		<path fill="#E4E3EF" d="M27.707,141.093l-1.334,2.04l-1.971-1.437l1.344-1.972l-0.261-1.452l0.761-0.882l1.28-0.233l6.238-5.595
			c0,0,0.781-0.794-0.061-3.189c-0.014-0.052-0.03-0.093-0.049-0.14c-0.921-2.503,3.404-3.003,3.404-3.003l12.445,0.856
			c0,0,0.627,0.316,0.777,1.141l2.012,0.092l0.068,0.381l15.666-0.016c0,0-0.148-1.004,1.689-1.089
			c1.833-0.089,0.023,0.133,0.023,0.133l33.92-0.071c0,0,0.868,0.232,0.948,1.069l61.036,0.261l0.428-0.56l1.112-0.099l0.093,0.569
			l0.335-0.542l0.823-0.146l0.087,0.46l0.446-0.509c0,0,1.348-0.51,1.501,0.638l0.141,2.266l-4.654,0.211l-0.385-0.938l-60.77-0.165
			l-0.989,1.297l-34.898-0.08l-1.149-1.339l-15.641,0.083l-0.425,0.289l-1.89,0.187c0,0-0.124,1.094-1.702,1.216l-1.466,0.164
			l-10.406,12.317c0,0-1.481,2.405-5.363,0.181L27.707,141.093z"/>
		<text transform="matrix(1 0 0 1 50.9971 145.5469)" fill="#E4E3EF" font-family="'Impact'" font-size="11">Commercial  |  Residential</text>
		<g>
			<path fill="#262262" d="M14.567,87.632h172.851l-2.309-10.183l-2.309-0.462v-6.999l-2.85-0.877v-6.5l-2.258-1.934l-7.341,0.583
				v5.418l-3.198-0.032V56.407l-2.857-1.47l-14.135,0.882v5.152h-4.354V38.485l-5.39-3.295l-14.477,1.541l-0.811,0.583V72.57
				L21.557,57.789l-4.649,8.608l9.71,0.904v0.921l4.418,2.119l-4.212,16.058L14.567,87.632z M47.514,75.225
				c0,0-1.605-4.94-0.184-5.993l10.641,0.991v0.929l3.753,1.804l-2.672,10.19l-9.008,0.911
				C49.581,81.998,48.795,78.992,47.514,75.225z M116.741,75.699c0.468,0.27,1.047,0.722,1.636,1.463l-5.768,0.582
				c0.623-0.949,1.422-1.732,2.443-2.2L116.741,75.699z M110.845,76.687l-0.335,1.269l-9.141,0.923
				c-0.035-0.109-0.066-0.215-0.111-0.329c0,0-1.106-3.43-0.207-4.313l7.007,0.654v0.462L110.845,76.687z M95.938,73.76
				c1.067,0.567,2.699,1.948,3.9,5.271l-10.229,1.033c0.75-2.702,2.121-5.375,4.619-6.461L95.938,73.76z M89.227,74.985
				l-1.379,5.258l-10.801,1.089c-0.352-1.243-0.782-2.655-1.319-4.225c0,0-1.534-4.761,0.128-5.219L86,72.835v0.598L89.227,74.985z
				 M68.89,71.242c1.391,0.502,4.717,2.507,6.226,10.284l-13.743,1.385c0.53-4.211,2.093-10.166,6.664-11.749L68.89,71.242z
				 M120.727,76.927c0.02-0.347,0.1-0.642,0.254-0.833l4.151,0.386L120.727,76.927z M38.084,68.369l1.904,0.179
				c2.097,1.002,6.185,4.409,7.373,15.78l-17.045,1.716C30.411,82.388,31.267,71.119,38.084,68.369z"/>
			<polygon fill="#E4E3EF" points="125.794,37.936 138.481,36.493 138.481,74.229 20.5,63.343 22.355,60.117 125.794,72.665 			"/>
			<polygon fill="#E4E3EF" points="150.985,56.736 162.453,56.014 162.453,74.661 150.985,74.661 			"/>
		</g>
	</g>
</g>
</svg>
