<?xml version="1.0" encoding="utf-8"?>
<!-- Generator: Adobe Illustrator 16.0.0, SVG Export Plug-In . SVG Version: 6.00 Build 0)  -->
<!DOCTYPE svg PUBLIC "-//W3C//DTD SVG 1.1//EN" "http://www.w3.org/Graphics/SVG/1.1/DTD/svg11.dtd">
<svg version="1.1" id="Layer_1" xmlns="http://www.w3.org/2000/svg" xmlns:xlink="http://www.w3.org/1999/xlink" x="0px" y="0px"
	 width="160px" height="70px" viewBox="0 0 160 70" enable-background="new 0 0 160 70" xml:space="preserve">
<g>
	<polygon fill="#6A8BA2" points="10.408,20.455 6.328,27.953 140.344,41.14 140.344,38.596 	"/>
	<g>
		<path fill="#6A8BA2" d="M13.476,28.565v1.156l3.013,1.358c0,0,0.949,0.411,0.916,0.513l-3.929,14.851h0.973
			c0,0,2.299-17.554,9.797-16.813L13.476,28.565z"/>
		<path fill="#6A8BA2" d="M16.215,46.443h-1.766c0,0,1.431-17.642,9.797-16.813c0,0-7.214,0.903-7.486,16.813"/>
		<path fill="#6A8BA2" d="M24.246,29.631c0,0,6.653,0.224,7.876,16.813h2.72c0,0-0.409-3.469-2.312-8.941
			c0,0-2.468-7.294-0.125-7.062L24.246,29.631z"/>
	</g>
	<path fill="#6A8BA2" d="M69.307,34.822"/>
	<g>
		<path fill="#6A8BA2" d="M67.067,33.728v0.82l2.142,0.968c0,0,0.676,0.293,0.653,0.361l-2.794,10.566h0.691
			c0,0,1.635-12.484,6.968-11.957L67.067,33.728z"/>
		<path fill="#6A8BA2" d="M69.017,46.443h-1.259c0,0,1.018-12.546,6.968-11.957c0,0-5.13,0.642-5.325,11.957"/>
		<path fill="#6A8BA2" d="M74.727,34.487c0,0,4.731,0.16,5.604,11.957h1.933c0,0-0.291-2.468-1.644-6.358
			c0,0-1.756-5.188-0.09-5.023L74.727,34.487z"/>
	</g>
	<g>
		<path fill="#6A8BA2" d="M42.463,31.437v0.97l2.528,1.14c0,0,0.797,0.346,0.771,0.43l-3.299,12.466h0.816
			c0,0,1.931-14.735,8.225-14.111L42.463,31.437z"/>
		<path fill="#6A8BA2" d="M44.763,46.443h-1.484c0,0,1.202-14.806,8.225-14.111c0,0-6.057,0.758-6.285,14.111"/>
		<path fill="#6A8BA2" d="M51.504,32.333c0,0,5.583,0.187,6.609,14.111h2.282c0,0-0.341-2.91-1.94-7.503
			c0,0-2.071-6.125-0.106-5.929L51.504,32.333z"/>
	</g>
	<g>
		<path fill="#6A8BA2" d="M87.039,35.535v0.692l1.798,0.811c0,0,0.567,0.245,0.547,0.306l-2.345,8.865h0.582
			c0,0,1.37-10.48,5.848-10.036L87.039,35.535z"/>
		<path fill="#6A8BA2" d="M88.674,46.208h-1.053c0,0,0.853-10.528,5.848-10.036c0,0-4.307,0.542-4.47,10.036"/>
		<path fill="#6A8BA2" d="M93.469,36.172c0,0,3.973,0.134,4.703,10.036h1.623c0,0-0.242-2.069-1.381-5.336
			c0,0-1.472-4.355-0.074-4.218L93.469,36.172z"/>
	</g>
	<polygon fill="#6A8BA2" points="101.324,33.328 101.324,2.629 102.037,2.122 113.355,1 113.56,35.026 	"/>
	<polygon fill="#6A8BA2" points="113.355,1 114.427,1 114.427,34.944 113.355,34.822 	"/>
	<polygon fill="#6A8BA2" points="114.427,1 119.475,3.65 119.475,35.672 114.427,35.146 	"/>
	<polygon fill="#6A8BA2" points="119.475,23.229 123.298,23.229 123.298,36.35 119.475,35.839 	"/>
	<polygon fill="#6A8BA2" points="123.298,36.35 123.298,18.741 135.992,17.973 135.533,38.029 	"/>
	<polygon fill="#6A8BA2" points="135.992,17.973 138.388,19.252 138.031,38.42 135.533,38.029 	"/>
	<polygon fill="#6A8BA2" points="138.216,28.173 141.023,28.094 141.023,38.931 138.031,38.218 	"/>
	<polygon fill="#6A8BA2" points="141.023,23.481 141.023,38.931 147.465,39.798 147.465,22.974 	"/>
	<polygon fill="#6A8BA2" points="147.465,22.974 149.45,24.657 149.45,40.001 147.465,39.798 	"/>
	<polygon fill="#6A8BA2" points="149.45,30.315 151.95,31.079 151.95,40.612 149.45,39.798 	"/>
	<path fill="#6A8BA2" d="M7.311,46.443H156l-2.024-8.867C153.056,37.123,138.338,33.369,7.311,46.443z"/>
	<path fill="#6A8BA2" d="M98.34,36.654L4.273,46.443l147.677-2.907C151.95,43.536,109.426,33.87,98.34,36.654z"/>
	<polygon fill="#F0F4F8" points="112.736,2.484 101.909,3.171 101.909,33.247 113.355,34.132 	"/>
	<polygon fill="#F0F4F8" points="114.427,35.146 11.109,22.482 9.48,25.292 	"/>
	<polygon fill="#F0F4F8" points="134.087,18.625 124.021,19.54 124.021,35.146 134.087,35.146 	"/>
	<g>
		<text transform="matrix(1 0 0 1 3.2612 66.5791)" fill="#F0F4F8" font-family="'Impact'" font-size="19">River City Pro Wash</text>
	</g>
</g>
</svg>
