<?xml version="1.0" encoding="utf-8"?>
<!-- Generator: Adobe Illustrator 16.0.0, SVG Export Plug-In . SVG Version: 6.00 Build 0)  -->
<!DOCTYPE svg PUBLIC "-//W3C//DTD SVG 1.1//EN" "http://www.w3.org/Graphics/SVG/1.1/DTD/svg11.dtd">
<svg version="1.1" xmlns="http://www.w3.org/2000/svg" xmlns:xlink="http://www.w3.org/1999/xlink" x="0px" y="0px" width="200px"
	 height="200px" viewBox="0 0 200 200" enable-background="new 0 0 200 200" xml:space="preserve">
<g id="background" display="none">
	<rect display="inline" fill="#0C132D" width="200" height="200"/>
</g>
<g id="Layer_1">
	<g>
		<linearGradient id="SVGID_1_" gradientUnits="userSpaceOnUse" x1="99.9995" y1="0" x2="99.9995" y2="200.0005">
			<stop  offset="0" style="stop-color:#FFFFFF"/>
			<stop  offset="0.2782" style="stop-color:#A1A6BA"/>
			<stop  offset="1" style="stop-color:#0C132D"/>
		</linearGradient>
		<path fill="url(#SVGID_1_)" d="M100,0C44.768,0,0,44.77,0,100c0,55.23,44.768,100,100,100c55.232,0,100-44.77,100-100
			C200,44.77,155.232,0,100,0z"/>
		<linearGradient id="SVGID_2_" gradientUnits="userSpaceOnUse" x1="100.0005" y1="193.9824" x2="100.0005" y2="6.0181">
			<stop  offset="0" style="stop-color:#FFFFFF"/>
			<stop  offset="0.6021" style="stop-color:#A1A6BA"/>
			<stop  offset="0.8204" style="stop-color:#00AEEF"/>
			<stop  offset="1" style="stop-color:#0C132D"/>
		</linearGradient>
		<path fill="url(#SVGID_2_)" stroke="#E4E3EF" stroke-miterlimit="10" d="M193.98,100c0,51.908-42.068,93.982-93.98,93.982
			c-51.911,0-93.98-42.074-93.98-93.982c0-51.909,42.07-93.982,93.98-93.982C151.912,6.018,193.98,48.091,193.98,100z"/>
		<linearGradient id="SVGID_3_" gradientUnits="userSpaceOnUse" x1="100" y1="11.1123" x2="100" y2="188.8882">
			<stop  offset="0" style="stop-color:#FFFFFF"/>
			<stop  offset="0.5282" style="stop-color:#00AEEF"/>
			<stop  offset="1" style="stop-color:#262262"/>
		</linearGradient>
		<path fill="url(#SVGID_3_)" d="M188.887,100c0,49.088-39.805,88.887-88.887,88.887c-49.091,0-88.886-39.799-88.886-88.887
			c0-49.093,39.795-88.888,88.886-88.888C149.082,11.112,188.887,50.907,188.887,100z"/>
		<path fill="#262262" d="M90.805,60.281"/>
		<path fill="#0C132D" d="M12.488,87.632c-0.643,4.296-0.988,8.688-0.988,13.165c0,49.09,39.625,88.888,88.5,88.888
			c48.87,0,88.5-39.798,88.5-88.888c0-4.477-0.349-8.869-0.987-13.165H12.488z"/>
		<g>
			<g>
				<linearGradient id="SVGID_4_" gradientUnits="userSpaceOnUse" x1="101.0879" y1="96.2129" x2="101.0879" y2="120.1724">
					<stop  offset="0" style="stop-color:#FFFFFF"/>
					<stop  offset="0.1585" style="stop-color:#00AEEF"/>
					<stop  offset="0.3521" style="stop-color:#0C132D"/>
					<stop  offset="1" style="stop-color:#A1A6BA"/>
				</linearGradient>
				<path fill="url(#SVGID_4_)" d="M19.504,118.355V96.545h5.91c2.237,0,3.649,0.09,4.58,0.293c1.421,0.311,2.628,1.124,3.493,2.352
					c0.805,1.146,1.196,2.673,1.196,4.671c0,1.409-0.166,2.482-0.526,3.341c0.15,0.309,0.263,0.621,0.34,0.94
					c0.118,0.489,0.186,1.144,0.186,3.043v7.17H19.504z"/>
				<linearGradient id="SVGID_5_" gradientUnits="userSpaceOnUse" x1="101.0879" y1="96.2129" x2="101.0879" y2="120.1724">
					<stop  offset="0" style="stop-color:#FFFFFF"/>
					<stop  offset="0.1585" style="stop-color:#00AEEF"/>
					<stop  offset="0.3521" style="stop-color:#0C132D"/>
					<stop  offset="1" style="stop-color:#A1A6BA"/>
				</linearGradient>
				<rect x="30.159" y="96.545" fill="url(#SVGID_5_)" width="10.063" height="21.811"/>
				<linearGradient id="SVGID_6_" gradientUnits="userSpaceOnUse" x1="101.0879" y1="96.2129" x2="101.0879" y2="120.1724">
					<stop  offset="0" style="stop-color:#FFFFFF"/>
					<stop  offset="0.1585" style="stop-color:#00AEEF"/>
					<stop  offset="0.3521" style="stop-color:#0C132D"/>
					<stop  offset="1" style="stop-color:#A1A6BA"/>
				</linearGradient>
				<polygon fill="url(#SVGID_6_)" points="37.223,118.355 34.323,99.396 50.259,99.396 47.559,118.355 				"/>
				<linearGradient id="SVGID_7_" gradientUnits="userSpaceOnUse" x1="101.0879" y1="96.2129" x2="101.0879" y2="120.1724">
					<stop  offset="0" style="stop-color:#FFFFFF"/>
					<stop  offset="0.1585" style="stop-color:#00AEEF"/>
					<stop  offset="0.3521" style="stop-color:#0C132D"/>
					<stop  offset="1" style="stop-color:#A1A6BA"/>
				</linearGradient>
				<path fill="url(#SVGID_7_)" d="M51.899,118.59c-1.194,0-2.294-0.187-3.269-0.556c-1.117-0.422-2.032-1.048-2.719-1.86
					c-0.639-0.756-1.09-1.609-1.342-2.539c-0.211-0.779-0.31-1.729-0.31-2.986v-3.779c0-1.593,0.243-2.886,0.742-3.952
					c0.589-1.26,1.585-2.268,2.879-2.916c1.112-0.557,2.373-0.839,3.745-0.839c1.64,0,3.07,0.35,4.251,1.039
					c1.292,0.754,2.224,1.798,2.77,3.103c0.409,0.979,0.626,2.174,0.662,3.642h0.005v5.16h-0.041c-0.037,0.504-0.1,0.942-0.19,1.326
					c-0.198,0.843-0.615,1.687-1.24,2.509c-0.687,0.903-1.568,1.59-2.618,2.04C54.268,118.391,53.181,118.59,51.899,118.59z"/>
				<linearGradient id="SVGID_8_" gradientUnits="userSpaceOnUse" x1="101.0879" y1="96.2129" x2="101.0879" y2="120.1724">
					<stop  offset="0" style="stop-color:#FFFFFF"/>
					<stop  offset="0.1585" style="stop-color:#00AEEF"/>
					<stop  offset="0.3521" style="stop-color:#0C132D"/>
					<stop  offset="1" style="stop-color:#A1A6BA"/>
				</linearGradient>
				<path fill="url(#SVGID_8_)" d="M54.602,118.355V99.396h7.817c0.475-0.142,0.91-0.204,1.263-0.228l3.199-0.213v10.767H64.55
					c-0.001,0.154-0.002,8.633-0.002,8.633H54.602z"/>
				<linearGradient id="SVGID_9_" gradientUnits="userSpaceOnUse" x1="101.0879" y1="96.2129" x2="101.0879" y2="120.1724">
					<stop  offset="0" style="stop-color:#FFFFFF"/>
					<stop  offset="0.1585" style="stop-color:#00AEEF"/>
					<stop  offset="0.3521" style="stop-color:#0C132D"/>
					<stop  offset="1" style="stop-color:#A1A6BA"/>
				</linearGradient>
				<path fill="url(#SVGID_9_)" d="M73.198,118.688c-1.718,0-3.212-0.349-4.442-1.035c-1.435-0.802-2.451-2.01-2.939-3.493
					c-0.362-1.101-0.531-2.505-0.531-4.419v-4.619c0-1.288,0.047-2.26,0.145-2.972c0.146-1.066,0.568-2.081,1.252-3.013
					c0.7-0.954,1.649-1.699,2.82-2.215c1.066-0.47,2.27-0.709,3.578-0.709c1.752,0,3.276,0.378,4.53,1.123
					c1.404,0.834,2.362,1.955,2.849,3.329c0.371,1.047,0.543,2.401,0.543,4.263v4.706c0,2.01-0.16,3.421-0.504,4.44
					c-0.452,1.337-1.373,2.464-2.738,3.354C76.476,118.265,74.941,118.688,73.198,118.688z"/>
				<linearGradient id="SVGID_10_" gradientUnits="userSpaceOnUse" x1="101.0879" y1="96.2129" x2="101.0879" y2="120.1724">
					<stop  offset="0" style="stop-color:#FFFFFF"/>
					<stop  offset="0.1585" style="stop-color:#00AEEF"/>
					<stop  offset="0.3521" style="stop-color:#0C132D"/>
					<stop  offset="1" style="stop-color:#A1A6BA"/>
				</linearGradient>
				<rect x="76.36" y="96.545" fill="url(#SVGID_10_)" width="10.063" height="21.811"/>
				<linearGradient id="SVGID_11_" gradientUnits="userSpaceOnUse" x1="101.0879" y1="96.2129" x2="101.0879" y2="120.1724">
					<stop  offset="0" style="stop-color:#FFFFFF"/>
					<stop  offset="0.1585" style="stop-color:#00AEEF"/>
					<stop  offset="0.3521" style="stop-color:#0C132D"/>
					<stop  offset="1" style="stop-color:#A1A6BA"/>
				</linearGradient>
				<path fill="url(#SVGID_11_)" d="M88.637,118.355c-1.135,0-1.906-0.052-2.5-0.168c-0.937-0.184-1.77-0.606-2.475-1.258
					c-0.751-0.693-1.252-1.567-1.45-2.527c-0.088-0.426-0.169-1.092-0.169-3.061v-3.582h-0.85v-8.051h0.85v-2.041h9.955v2.041h1.064
					v8.051h-1.064v2.506h1.23v8.09H88.637z"/>
				<linearGradient id="SVGID_12_" gradientUnits="userSpaceOnUse" x1="101.0879" y1="96.2129" x2="101.0879" y2="120.1724">
					<stop  offset="0" style="stop-color:#FFFFFF"/>
					<stop  offset="0.1585" style="stop-color:#00AEEF"/>
					<stop  offset="0.3521" style="stop-color:#0C132D"/>
					<stop  offset="1" style="stop-color:#A1A6BA"/>
				</linearGradient>
				<path fill="url(#SVGID_12_)" d="M88.469,120.172v-8.07h0.918l-2.532-12.705h16.119l-1.531,12.733
					c-0.195,1.621-0.354,2.68-0.5,3.333c-0.22,0.984-0.617,1.844-1.181,2.552c-0.646,0.813-1.509,1.402-2.565,1.754
					c-0.825,0.275-1.885,0.403-3.336,0.403H88.469z"/>
				<linearGradient id="SVGID_13_" gradientUnits="userSpaceOnUse" x1="101.0879" y1="96.2129" x2="101.0879" y2="120.1724">
					<stop  offset="0" style="stop-color:#FFFFFF"/>
					<stop  offset="0.1585" style="stop-color:#00AEEF"/>
					<stop  offset="0.3521" style="stop-color:#0C132D"/>
					<stop  offset="1" style="stop-color:#A1A6BA"/>
				</linearGradient>
				<path fill="url(#SVGID_13_)" d="M100.939,118.355V96.545h7.141c1.418,0,2.537,0.125,3.423,0.383
					c1.139,0.333,2.058,0.878,2.735,1.621c0.654,0.718,1.1,1.58,1.323,2.562c0.161,0.704,0.235,1.612,0.235,2.858v1.377
					c0,1.476-0.184,2.57-0.579,3.443c-0.515,1.137-1.435,2.025-2.663,2.57c-0.462,0.205-0.961,0.358-1.504,0.463v6.533H100.939z"/>
				<linearGradient id="SVGID_14_" gradientUnits="userSpaceOnUse" x1="101.0879" y1="96.2129" x2="101.0879" y2="120.1724">
					<stop  offset="0" style="stop-color:#FFFFFF"/>
					<stop  offset="0.1585" style="stop-color:#00AEEF"/>
					<stop  offset="0.3521" style="stop-color:#0C132D"/>
					<stop  offset="1" style="stop-color:#A1A6BA"/>
				</linearGradient>
				<path fill="url(#SVGID_14_)" d="M110.861,118.355V99.396h7.817c0.475-0.142,0.91-0.204,1.263-0.228l3.199-0.213v10.767h-2.331
					c-0.002,0.154-0.003,8.633-0.003,8.633H110.861z"/>
				<linearGradient id="SVGID_15_" gradientUnits="userSpaceOnUse" x1="101.0879" y1="96.2129" x2="101.0879" y2="120.1724">
					<stop  offset="0" style="stop-color:#FFFFFF"/>
					<stop  offset="0.1585" style="stop-color:#00AEEF"/>
					<stop  offset="0.3521" style="stop-color:#0C132D"/>
					<stop  offset="1" style="stop-color:#A1A6BA"/>
				</linearGradient>
				<path fill="url(#SVGID_15_)" d="M125.463,118.59c-1.194,0-2.217-0.141-3.125-0.429c-1.14-0.362-2.073-0.957-2.773-1.768
					c-0.636-0.736-1.09-1.614-1.35-2.609c-0.213-0.815-0.313-1.843-0.313-3.233v-3.32c0-1.593,0.193-2.868,0.591-3.9
					c0.497-1.29,1.414-2.369,2.651-3.118c1.149-0.697,2.546-1.05,4.152-1.05c1.278,0,2.433,0.21,3.431,0.625
					c1.092,0.454,1.98,1.093,2.642,1.902c0.607,0.744,1.034,1.548,1.272,2.392c0.207,0.732,0.304,1.644,0.304,2.866v3.174
					c0,1.41-0.077,2.426-0.243,3.195c-0.217,1.008-0.674,1.944-1.357,2.785c-0.727,0.891-1.653,1.55-2.757,1.962
					C127.649,118.413,126.599,118.59,125.463,118.59z"/>
				<linearGradient id="SVGID_16_" gradientUnits="userSpaceOnUse" x1="101.0879" y1="96.2129" x2="101.0879" y2="120.1724">
					<stop  offset="0" style="stop-color:#FFFFFF"/>
					<stop  offset="0.1585" style="stop-color:#00AEEF"/>
					<stop  offset="0.3521" style="stop-color:#0C132D"/>
					<stop  offset="1" style="stop-color:#A1A6BA"/>
				</linearGradient>
				<polygon fill="url(#SVGID_16_)" points="133.236,118.355 130.697,96.545 153.732,96.545 151.207,118.355 				"/>
				<linearGradient id="SVGID_17_" gradientUnits="userSpaceOnUse" x1="101.0879" y1="96.2129" x2="101.0879" y2="120.1724">
					<stop  offset="0" style="stop-color:#FFFFFF"/>
					<stop  offset="0.1585" style="stop-color:#00AEEF"/>
					<stop  offset="0.3521" style="stop-color:#0C132D"/>
					<stop  offset="1" style="stop-color:#A1A6BA"/>
				</linearGradient>
				<path fill="url(#SVGID_17_)" d="M153.646,118.59c-1.295,0-2.497-0.367-3.574-1.092c-1.453-0.978-2.189-2.671-2.189-5.033V111.4
					c0-0.346,0.016-0.674,0.047-0.984h-0.047v-3.869c0-1.424,0.191-2.567,0.586-3.494c0.483-1.136,1.362-2.091,2.611-2.839
					c1.164-0.698,2.597-1.051,4.256-1.051c1.979,0,3.527,0.407,4.731,1.246c1.314,0.917,2.16,2.166,2.449,3.615
					c0.122,0.614,0.263,1.719,0.263,4.829v9.504h-7.455C154.798,118.512,154.236,118.59,153.646,118.59z"/>
				<linearGradient id="SVGID_18_" gradientUnits="userSpaceOnUse" x1="101.0879" y1="96.2129" x2="101.0879" y2="120.1724">
					<stop  offset="0" style="stop-color:#FFFFFF"/>
					<stop  offset="0.1585" style="stop-color:#00AEEF"/>
					<stop  offset="0.3521" style="stop-color:#0C132D"/>
					<stop  offset="1" style="stop-color:#A1A6BA"/>
				</linearGradient>
				<path fill="url(#SVGID_18_)" d="M165.395,118.59c-1.415,0-2.687-0.242-3.777-0.721c-1.371-0.602-2.363-1.502-2.95-2.678
					c-0.481-0.966-0.716-2.196-0.716-3.762v-3.625h0.091c-0.132-0.57-0.198-1.177-0.198-1.814c0-1.569,0.258-2.796,0.789-3.749
					c0.604-1.086,1.601-1.935,2.881-2.457c1.013-0.413,2.161-0.622,3.412-0.622c1.203,0,2.283,0.17,3.212,0.506
					c1.07,0.387,1.944,0.952,2.598,1.68c0.67,0.744,1.102,1.534,1.283,2.348c0.119,0.533,0.175,1.197,0.175,2.09v3.486
					c0.201,0.677,0.303,1.43,0.303,2.256c0,1.549-0.241,2.775-0.736,3.749c-0.581,1.14-1.552,2.043-2.809,2.612
					C167.921,118.354,166.725,118.59,165.395,118.59z"/>
				<linearGradient id="SVGID_19_" gradientUnits="userSpaceOnUse" x1="101.0879" y1="96.2129" x2="101.0879" y2="120.1724">
					<stop  offset="0" style="stop-color:#FFFFFF"/>
					<stop  offset="0.1585" style="stop-color:#00AEEF"/>
					<stop  offset="0.3521" style="stop-color:#0C132D"/>
					<stop  offset="1" style="stop-color:#A1A6BA"/>
				</linearGradient>
				<path fill="url(#SVGID_19_)" d="M167.551,118.355V96.545h9.945v2.646c1.075,0.1,2.043,0.458,2.886,1.068
					c1.352,0.98,1.86,2.152,2.05,2.962c0.166,0.709,0.24,1.695,0.24,3.198v11.936H167.551z"/>
			</g>
			<g>
				<path fill="#0C132D" d="M21.504,116.355V98.545h3.91c2.031,0,3.39,0.081,4.154,0.248c0.936,0.205,1.705,0.726,2.284,1.549
					c0.56,0.796,0.832,1.948,0.832,3.52c0,1.479-0.206,2.454-0.648,3.066c-0.076,0.104-0.161,0.203-0.253,0.294
					c0.016,0.019,0.032,0.036,0.047,0.055c0.382,0.463,0.619,0.899,0.724,1.336c0.064,0.267,0.13,0.782,0.13,2.573v5.17H21.504z"/>
				<rect x="32.159" y="98.545" fill="#0C132D" width="6.063" height="17.811"/>
				<polygon fill="#0C132D" points="38.94,116.355 36.652,101.396 42.23,101.396 42.308,102.059 42.375,101.396 47.954,101.396 
					45.823,116.355 				"/>
				<path fill="#0C132D" d="M51.899,116.59c-0.952,0-1.813-0.144-2.561-0.426c-0.796-0.301-1.435-0.732-1.899-1.281
					c-0.448-0.53-0.764-1.126-0.939-1.771c-0.161-0.597-0.24-1.402-0.24-2.464v-3.779c0-1.293,0.181-2.309,0.553-3.104
					c0.402-0.86,1.063-1.524,1.962-1.975c0.832-0.417,1.791-0.628,2.85-0.628c1.281,0,2.372,0.258,3.243,0.767
					c0.908,0.529,1.558,1.252,1.932,2.147c0.345,0.825,0.512,1.908,0.512,3.311v3.516c0,0.885-0.058,1.563-0.178,2.073
					c-0.133,0.566-0.431,1.156-0.885,1.755c-0.476,0.625-1.085,1.1-1.813,1.412C53.744,116.439,52.89,116.59,51.899,116.59z"/>
				<path fill="#0C132D" d="M56.602,116.355v-14.959h6.041l-0.003,0.042c0.414-0.175,0.819-0.25,1.175-0.274l1.066-0.07v6.629h-1
					c-0.757,0-1.027,0.122-1.092,0.159c-0.128,0.073-0.14,0.126-0.149,0.168c-0.028,0.125-0.093,0.588-0.093,2.188v6.117H56.602z"/>
				<path fill="#0C132D" d="M73.198,116.688c-1.372,0-2.539-0.263-3.466-0.781c-1.003-0.561-1.681-1.358-2.015-2.372
					c-0.29-0.881-0.431-2.122-0.431-3.794v-4.619c0-1.196,0.042-2.079,0.126-2.699c0.101-0.733,0.398-1.441,0.883-2.102
					c0.491-0.668,1.168-1.196,2.014-1.568c0.811-0.358,1.744-0.539,2.771-0.539c1.388,0,2.568,0.283,3.509,0.842
					c0.991,0.589,1.658,1.355,1.985,2.277c0.288,0.815,0.428,1.991,0.428,3.596v2.502h-5.605v0.588h5.605v1.616
					c0,1.762-0.13,3.005-0.399,3.801c-0.304,0.9-0.955,1.68-1.935,2.318C75.715,116.373,74.547,116.688,73.198,116.688z"/>
				<rect x="78.36" y="98.545" fill="#0C132D" width="6.063" height="17.811"/>
				<path fill="#0C132D" d="M88.637,116.355c-0.974,0-1.666-0.043-2.116-0.131c-0.568-0.111-1.073-0.368-1.502-0.765
					c-0.448-0.414-0.734-0.905-0.848-1.461c-0.06-0.289-0.128-0.853-0.128-2.657v-5.582h-0.85v-4.051h0.85v-2.041h5.955v2.041h1.064
					v4.051h-1.064v5.934c0,0.237,0.003,0.424,0.009,0.57c0.065,0.001,1.222,0.002,1.222,0.002v4.09H88.637z"/>
				<path fill="#0C132D" d="M90.469,118.172v-4.07h1c0.138,0,0.255-0.002,0.355-0.005c-0.032-0.165-2.531-12.7-2.531-12.7h5.663
					l0.091,0.615l0.044-0.615h5.627l-1.262,10.494c-0.184,1.532-0.336,2.559-0.465,3.136c-0.153,0.688-0.421,1.273-0.794,1.743
					c-0.401,0.504-0.95,0.875-1.632,1.102c-0.606,0.202-1.491,0.301-2.704,0.301H90.469z"/>
				<path fill="#0C132D" d="M102.939,116.355V98.545h5.141c1.226,0,2.162,0.099,2.863,0.304c0.779,0.228,1.391,0.58,1.817,1.048
					c0.419,0.459,0.705,1.018,0.851,1.658c0.125,0.547,0.186,1.336,0.186,2.414v1.377c0,1.165-0.131,2.022-0.401,2.619
					c-0.313,0.691-0.869,1.219-1.652,1.566c-0.692,0.308-1.539,0.457-2.589,0.457h-0.104v6.367H102.939z"/>
				<path fill="#0C132D" d="M112.861,116.355v-14.959h6.041l-0.004,0.042c0.415-0.174,0.819-0.25,1.176-0.274l1.066-0.07v6.629h-1
					c-0.757,0-1.027,0.122-1.093,0.159c-0.127,0.073-0.139,0.126-0.148,0.168c-0.027,0.125-0.093,0.588-0.093,2.188v6.117H112.861z"
					/>
				<path fill="#0C132D" d="M125.463,116.59c-0.973,0-1.82-0.112-2.52-0.335c-0.782-0.249-1.41-0.642-1.865-1.169
					c-0.435-0.502-0.747-1.11-0.929-1.807c-0.166-0.638-0.247-1.53-0.247-2.729v-3.32c0-1.342,0.149-2.383,0.457-3.182
					c0.342-0.886,0.954-1.602,1.821-2.127c0.832-0.504,1.881-0.76,3.116-0.76c1.014,0,1.91,0.159,2.664,0.472
					c0.784,0.326,1.41,0.771,1.86,1.321c0.431,0.529,0.732,1.09,0.896,1.67c0.154,0.543,0.229,1.303,0.229,2.322v3.174
					c0,1.248-0.064,2.155-0.198,2.774c-0.15,0.696-0.471,1.351-0.954,1.943c-0.497,0.61-1.139,1.064-1.905,1.351
					C127.176,116.455,126.359,116.59,125.463,116.59z"/>
				<path fill="#0C132D" d="M142.576,116.355l-0.156-0.811c-0.082-0.422-0.162-0.855-0.241-1.299
					c-0.057,0.402-0.301,2.109-0.301,2.109h-6.861l-2.073-17.811h6.042l0.07,0.902c0.002-0.012,0.122-0.902,0.122-0.902h6.028
					c0,0,0.125,1.026,0.136,1.132c0.013-0.092,0.164-1.132,0.164-1.132h5.981l-2.063,17.811H142.576z"/>
				<path fill="#0C132D" d="M153.646,116.59c-0.89,0-1.717-0.253-2.458-0.751c-0.879-0.592-1.306-1.695-1.306-3.374V111.4
					c0-1.247,0.224-2.086,0.704-2.639c0.102-0.116,0.225-0.231,0.372-0.346h-1.076v-1.869c0-1.149,0.14-2.036,0.427-2.711
					c0.314-0.739,0.919-1.381,1.798-1.907c0.85-0.509,1.937-0.767,3.229-0.767c1.557,0,2.731,0.29,3.589,0.888
					c0.894,0.622,1.441,1.417,1.63,2.363c0.151,0.758,0.225,2.21,0.225,4.438v7.504h-5.781
					C154.588,116.511,154.136,116.59,153.646,116.59z"/>
				<path fill="#0C132D" d="M165.395,116.59c-1.137,0-2.138-0.186-2.975-0.553c-0.931-0.408-1.591-0.993-1.963-1.739
					c-0.341-0.682-0.506-1.62-0.506-2.868v-1.625h1.761c-0.698-0.504-1.148-0.99-1.39-1.493c-0.317-0.663-0.479-1.444-0.479-2.321
					c0-1.22,0.176-2.128,0.536-2.776c0.387-0.693,1.021-1.225,1.889-1.577c0.772-0.315,1.666-0.475,2.657-0.475
					c0.971,0,1.822,0.13,2.532,0.387c0.757,0.273,1.358,0.656,1.79,1.136c0.443,0.493,0.711,0.966,0.818,1.446
					c0.086,0.382,0.127,0.923,0.127,1.654v1.752h-1.867c0.663,0.415,1.14,0.826,1.442,1.246c0.49,0.678,0.728,1.575,0.728,2.744
					c0,1.226-0.17,2.155-0.519,2.842c-0.378,0.741-1,1.312-1.852,1.697C167.357,116.414,166.438,116.59,165.395,116.59z"/>
				<path fill="#0C132D" d="M169.551,116.355V98.545h5.945v2.826c0.431-0.139,0.889-0.209,1.363-0.209
					c0.901,0,1.692,0.241,2.35,0.718c0.684,0.496,1.112,1.101,1.275,1.798c0.128,0.546,0.188,1.418,0.188,2.742v9.936H169.551z"/>
			</g>
			<g>
				<path fill="#E4E3EF" d="M22.504,99.545h2.91c1.94,0,3.253,0.075,3.94,0.225c0.687,0.15,1.247,0.532,1.68,1.147
					c0.433,0.615,0.649,1.597,0.649,2.944c0,1.23-0.153,2.058-0.459,2.48c-0.306,0.423-0.908,0.677-1.807,0.762
					c0.813,0.202,1.36,0.472,1.641,0.811c0.28,0.339,0.454,0.649,0.522,0.933s0.103,1.063,0.103,2.339v4.17h-3.818v-5.254
					c0-0.847-0.067-1.37-0.2-1.572c-0.134-0.202-0.483-0.303-1.05-0.303v7.129h-4.111V99.545z M26.616,102.25v3.516
					c0.462,0,0.786-0.063,0.972-0.19s0.278-0.539,0.278-1.235v-0.869c0-0.501-0.09-0.83-0.269-0.986
					C27.418,102.328,27.091,102.25,26.616,102.25z"/>
				<path fill="#E4E3EF" d="M37.221,99.545v2.061h-4.063v-2.061H37.221z M37.221,102.396v12.959h-4.063v-12.959H37.221z"/>
				<path fill="#E4E3EF" d="M46.801,102.396l-1.846,12.959h-5.156l-1.982-12.959h3.523l1.11,9.463
					c0.087-0.696,0.235-2.392,0.445-5.086c0.112-1.505,0.239-2.963,0.383-4.377H46.801z"/>
				<path fill="#E4E3EF" d="M56.313,109.105h-5.107v2.803c0,0.586,0.042,0.964,0.127,1.133c0.084,0.169,0.247,0.254,0.488,0.254
					c0.299,0,0.5-0.112,0.601-0.337c0.101-0.225,0.151-0.659,0.151-1.304v-1.709h3.74v0.957c0,0.801-0.051,1.416-0.151,1.846
					c-0.101,0.43-0.337,0.889-0.708,1.377s-0.842,0.854-1.411,1.099c-0.57,0.244-1.284,0.366-2.144,0.366
					c-0.833,0-1.569-0.12-2.207-0.361c-0.638-0.241-1.134-0.571-1.489-0.991s-0.601-0.882-0.737-1.387s-0.205-1.238-0.205-2.202
					v-3.779c0-1.133,0.153-2.026,0.459-2.681s0.807-1.155,1.504-1.504c0.696-0.349,1.497-0.522,2.402-0.522
					c1.106,0,2.02,0.21,2.739,0.63c0.719,0.42,1.224,0.977,1.514,1.67c0.29,0.693,0.435,1.668,0.435,2.925V109.105z M52.358,106.996
					v-0.947c0-0.671-0.036-1.104-0.107-1.299c-0.072-0.195-0.218-0.293-0.439-0.293c-0.273,0-0.443,0.083-0.508,0.249
					c-0.065,0.166-0.098,0.613-0.098,1.343v0.947H52.358z"/>
				<path fill="#E4E3EF" d="M61.547,102.396l-0.156,1.704c0.573-1.221,1.403-1.866,2.49-1.938v4.561
					c-0.723,0-1.253,0.098-1.592,0.293c-0.339,0.195-0.547,0.467-0.625,0.815s-0.117,1.15-0.117,2.407v5.117h-3.945v-12.959H61.547z
					"/>
				<path fill="#E4E3EF" d="M78.002,106.43h-4.111v-2.748c0-0.799-0.044-1.298-0.132-1.496c-0.088-0.197-0.282-0.297-0.581-0.297
					c-0.339,0-0.554,0.12-0.645,0.361c-0.091,0.241-0.137,0.762-0.137,1.563v7.344c0,0.769,0.045,1.27,0.137,1.504
					c0.091,0.234,0.296,0.352,0.615,0.352c0.306,0,0.506-0.117,0.601-0.353c0.094-0.234,0.142-0.786,0.142-1.654v-1.987h4.111v0.616
					c0,1.637-0.116,2.797-0.347,3.481c-0.231,0.685-0.742,1.284-1.533,1.8c-0.791,0.515-1.766,0.772-2.925,0.772
					c-1.205,0-2.197-0.218-2.979-0.654s-1.299-1.04-1.553-1.812s-0.381-1.932-0.381-3.481v-4.619c0-1.14,0.039-1.994,0.117-2.563
					s0.311-1.118,0.698-1.646s0.924-0.942,1.611-1.245c0.687-0.303,1.476-0.454,2.368-0.454c1.211,0,2.21,0.234,2.998,0.702
					c0.788,0.468,1.305,1.052,1.553,1.751c0.247,0.698,0.371,1.786,0.371,3.262V106.43z"/>
				<path fill="#E4E3EF" d="M83.422,99.545v2.061H79.36v-2.061H83.422z M83.422,102.396v12.959H79.36v-12.959H83.422z"/>
				<path fill="#E4E3EF" d="M88.999,100.668v2.041h1.064v2.051h-1.064v6.934c0,0.853,0.044,1.328,0.132,1.426
					s0.454,0.146,1.099,0.146v2.09h-1.592c-0.898,0-1.54-0.037-1.924-0.112s-0.723-0.247-1.016-0.518s-0.475-0.579-0.547-0.928
					s-0.107-1.167-0.107-2.456v-6.582h-0.85v-2.051h0.85v-2.041H88.999z"/>
				<path fill="#E4E3EF" d="M99.592,102.396l-1.127,9.375c-0.178,1.484-0.328,2.497-0.448,3.037s-0.321,0.986-0.601,1.338
					s-0.668,0.61-1.167,0.776s-1.294,0.249-2.388,0.249h-2.392v-2.07c0.613,0,1.007-0.031,1.184-0.093s0.264-0.2,0.264-0.415
					c0-0.104-0.082-0.557-0.245-1.357l-2.16-10.84h3.582l1.296,8.75l0.632-8.75H99.592z"/>
				<path fill="#E4E3EF" d="M103.939,99.545h4.141c1.119,0,1.98,0.088,2.584,0.264c0.602,0.176,1.055,0.43,1.357,0.762
					s0.508,0.734,0.615,1.206s0.16,1.203,0.16,2.192v1.377c0,1.009-0.104,1.745-0.313,2.207s-0.59,0.817-1.146,1.064
					s-1.285,0.371-2.184,0.371h-1.104v6.367h-4.111V99.545z M108.051,102.25v4.023c0.117,0.007,0.219,0.01,0.303,0.01
					c0.379,0,0.641-0.093,0.787-0.278s0.219-0.571,0.219-1.157v-1.299c0-0.54-0.084-0.892-0.254-1.055
					C108.938,102.331,108.586,102.25,108.051,102.25z"/>
				<path fill="#E4E3EF" d="M117.807,102.396l-0.156,1.704c0.573-1.221,1.403-1.866,2.49-1.938v4.561
					c-0.723,0-1.253,0.098-1.592,0.293s-0.547,0.467-0.625,0.815s-0.117,1.15-0.117,2.407v5.117h-3.945v-12.959H117.807z"/>
				<path fill="#E4E3EF" d="M129.945,106.947v3.174c0,1.165-0.059,2.02-0.176,2.563s-0.368,1.052-0.752,1.523
					c-0.385,0.472-0.878,0.82-1.479,1.045c-0.603,0.225-1.294,0.337-2.075,0.337c-0.872,0-1.611-0.096-2.217-0.288
					s-1.076-0.481-1.411-0.869s-0.574-0.856-0.718-1.406s-0.215-1.375-0.215-2.476v-3.32c0-1.204,0.13-2.146,0.391-2.822
					s0.729-1.221,1.406-1.631s1.543-0.615,2.598-0.615c0.886,0,1.646,0.132,2.28,0.396s1.124,0.607,1.47,1.03
					c0.345,0.423,0.581,0.859,0.708,1.309S129.945,106.029,129.945,106.947z M126,105.971c0-0.664-0.036-1.082-0.107-1.255
					s-0.225-0.259-0.459-0.259s-0.391,0.086-0.469,0.259s-0.117,0.591-0.117,1.255v5.85c0,0.612,0.039,1.011,0.117,1.196
					s0.231,0.278,0.459,0.278c0.234,0,0.389-0.085,0.464-0.254s0.112-0.534,0.112-1.094V105.971z"/>
				<path fill="#E4E3EF" d="M150.365,99.545l-1.831,15.811h-5.133c-0.47-2.429-0.885-5.192-1.244-8.291
					c-0.164,1.328-0.546,4.092-1.146,8.291h-5.104l-1.841-15.811h3.994l0.435,5.517l0.42,5.333c0.151-2.76,0.53-6.376,1.137-10.85
					h4.27c0.057,0.462,0.206,2.2,0.448,5.215l0.454,6.016c0.233-3.827,0.616-7.57,1.147-11.23H150.365z"/>
				<path fill="#E4E3EF" d="M154.584,107.416h-3.701v-0.869c0-1.003,0.115-1.775,0.347-2.319s0.695-1.023,1.392-1.44
					s1.602-0.625,2.715-0.625c1.334,0,2.34,0.236,3.018,0.708c0.677,0.472,1.084,1.052,1.221,1.738s0.205,2.102,0.205,4.243v6.504
					h-3.838v-1.154c-0.241,0.463-0.552,0.81-0.933,1.041s-0.835,0.348-1.362,0.348c-0.69,0-1.323-0.193-1.899-0.581
					s-0.864-1.235-0.864-2.544V111.4c0-0.97,0.153-1.631,0.459-1.982s1.064-0.762,2.275-1.23c1.296-0.508,1.989-0.85,2.08-1.025
					s0.137-0.534,0.137-1.074c0-0.677-0.051-1.118-0.151-1.323s-0.269-0.308-0.503-0.308c-0.267,0-0.433,0.086-0.498,0.259
					s-0.098,0.62-0.098,1.343V107.416z M155.834,109.193c-0.632,0.462-0.998,0.85-1.099,1.162s-0.151,0.762-0.151,1.348
					c0,0.671,0.044,1.104,0.132,1.299s0.262,0.293,0.522,0.293c0.247,0,0.408-0.076,0.483-0.229s0.112-0.555,0.112-1.206V109.193z"
					/>
				<path fill="#E4E3EF" d="M169.193,106.537h-3.496v-0.703c0-0.599-0.034-0.979-0.103-1.138s-0.239-0.239-0.513-0.239
					c-0.222,0-0.388,0.073-0.498,0.22s-0.166,0.366-0.166,0.659c0,0.397,0.027,0.688,0.083,0.874s0.222,0.389,0.498,0.61
					s0.845,0.544,1.704,0.967c1.146,0.56,1.897,1.087,2.256,1.582c0.357,0.495,0.537,1.214,0.537,2.158
					c0,1.055-0.137,1.851-0.41,2.388s-0.731,0.95-1.372,1.24c-0.642,0.29-1.414,0.435-2.319,0.435c-1.003,0-1.86-0.156-2.573-0.469
					s-1.203-0.735-1.47-1.27s-0.4-1.341-0.4-2.422v-0.625h3.496v0.82c0,0.696,0.044,1.149,0.132,1.357s0.262,0.313,0.522,0.313
					c0.28,0,0.476-0.07,0.586-0.21s0.166-0.435,0.166-0.884c0-0.618-0.071-1.006-0.215-1.162c-0.149-0.156-0.915-0.618-2.295-1.387
					c-1.159-0.651-1.865-1.242-2.119-1.772s-0.381-1.16-0.381-1.89c0-1.035,0.137-1.799,0.41-2.29s0.737-0.871,1.392-1.138
					s1.414-0.4,2.28-0.4c0.859,0,1.59,0.109,2.192,0.327c0.602,0.218,1.064,0.506,1.387,0.864s0.518,0.69,0.586,0.996
					s0.103,0.784,0.103,1.436V106.537z"/>
				<path fill="#E4E3EF" d="M174.496,99.545v3.557c0.339-0.313,0.705-0.548,1.099-0.704c0.394-0.157,0.815-0.235,1.265-0.235
					c0.689,0,1.277,0.176,1.763,0.527c0.484,0.352,0.781,0.757,0.889,1.216s0.161,1.297,0.161,2.515v8.936h-3.945v-9.121
					c0-0.755-0.037-1.24-0.112-1.455s-0.242-0.322-0.503-0.322c-0.241,0-0.403,0.11-0.488,0.332s-0.127,0.661-0.127,1.318v9.248
					h-3.945V99.545H174.496z"/>
			</g>
		</g>
		<path fill="#E4E3EF" d="M27.707,141.093l-1.334,2.04l-1.971-1.437l1.344-1.972l-0.261-1.452l0.761-0.882l1.28-0.233l6.238-5.595
			c0,0,0.781-0.794-0.061-3.189c-0.014-0.052-0.03-0.093-0.049-0.14c-0.921-2.503,3.404-3.003,3.404-3.003l12.445,0.856
			c0,0,0.627,0.316,0.777,1.141l2.012,0.092l0.068,0.381l15.666-0.016c0,0-0.148-1.004,1.689-1.089
			c1.833-0.089,0.023,0.133,0.023,0.133l33.92-0.071c0,0,0.868,0.232,0.948,1.069l61.036,0.261l0.428-0.56l1.112-0.099l0.093,0.569
			l0.335-0.542l0.823-0.146l0.087,0.46l0.446-0.509c0,0,1.348-0.51,1.501,0.638l0.141,2.266l-4.654,0.211l-0.385-0.938l-60.77-0.165
			l-0.989,1.297l-34.898-0.08l-1.149-1.339l-15.641,0.083l-0.425,0.289l-1.89,0.187c0,0-0.124,1.094-1.702,1.216l-1.466,0.164
			l-10.406,12.317c0,0-1.481,2.405-5.363,0.181L27.707,141.093z"/>
		<g>
			<path fill="#E4E3EF" d="M52.728,139.638h-2.261v-1.512c0-0.439-0.024-0.713-0.073-0.822s-0.155-0.163-0.319-0.163
				c-0.186,0-0.304,0.065-0.354,0.198s-0.075,0.419-0.075,0.859v4.039c0,0.423,0.025,0.698,0.075,0.827s0.163,0.193,0.338,0.193
				c0.168,0,0.278-0.064,0.33-0.193c0.052-0.13,0.078-0.433,0.078-0.91v-1.094h2.261v0.34c0,0.899-0.063,1.538-0.191,1.914
				c-0.127,0.377-0.408,0.707-0.843,0.99s-0.971,0.425-1.608,0.425c-0.663,0-1.208-0.12-1.638-0.36
				c-0.43-0.239-0.714-0.571-0.854-0.996c-0.14-0.424-0.209-1.063-0.209-1.914v-2.541c0-0.627,0.021-1.097,0.064-1.41
				s0.171-0.615,0.384-0.904c0.213-0.291,0.509-0.519,0.886-0.686c0.378-0.166,0.812-0.25,1.303-0.25
				c0.666,0,1.216,0.129,1.649,0.387s0.718,0.578,0.854,0.963c0.136,0.385,0.204,0.982,0.204,1.794V139.638z"/>
			<path fill="#E4E3EF" d="M58.384,139.922v1.746c0,0.641-0.032,1.111-0.097,1.41s-0.202,0.578-0.414,0.838
				s-0.482,0.451-0.814,0.574c-0.331,0.124-0.711,0.186-1.141,0.186c-0.48,0-0.886-0.053-1.219-0.158s-0.592-0.266-0.776-0.479
				c-0.184-0.213-0.316-0.471-0.395-0.773s-0.118-0.756-0.118-1.361v-1.826c0-0.662,0.072-1.18,0.215-1.553
				c0.143-0.372,0.401-0.671,0.773-0.896s0.849-0.338,1.429-0.338c0.487,0,0.905,0.072,1.254,0.217
				c0.349,0.146,0.619,0.334,0.809,0.566c0.19,0.233,0.319,0.473,0.389,0.721C58.349,139.041,58.384,139.418,58.384,139.922z
				 M56.214,139.385c0-0.365-0.02-0.595-0.059-0.689s-0.124-0.143-0.252-0.143s-0.215,0.048-0.258,0.143s-0.064,0.324-0.064,0.689
				v3.218c0,0.337,0.021,0.556,0.064,0.658c0.043,0.102,0.127,0.153,0.252,0.153c0.129,0,0.214-0.047,0.255-0.141
				c0.042-0.093,0.062-0.293,0.062-0.602V139.385z"/>
			<path fill="#E4E3EF" d="M61.241,137.42l-0.038,0.678c0.168-0.27,0.369-0.471,0.602-0.605s0.498-0.201,0.795-0.201
				c0.58,0,1.037,0.269,1.37,0.807c0.183-0.27,0.388-0.471,0.618-0.605c0.229-0.135,0.483-0.201,0.763-0.201
				c0.369,0,0.674,0.089,0.916,0.268c0.242,0.18,0.396,0.398,0.465,0.658c0.068,0.26,0.102,0.682,0.102,1.266v5.064h-2.105V139.9
				c0-0.608-0.021-0.985-0.062-1.13c-0.041-0.146-0.137-0.218-0.287-0.218c-0.154,0-0.253,0.071-0.298,0.215
				c-0.044,0.144-0.067,0.521-0.067,1.133v4.646h-2.105v-4.527c0-0.699-0.017-1.117-0.051-1.258
				c-0.034-0.139-0.128-0.209-0.282-0.209c-0.097,0-0.179,0.037-0.247,0.11s-0.105,0.163-0.113,0.269s-0.011,0.33-0.011,0.674v4.941
				h-2.105v-7.127H61.241z"/>
			<path fill="#E4E3EF" d="M69.722,137.42l-0.038,0.678c0.168-0.27,0.369-0.471,0.602-0.605s0.498-0.201,0.795-0.201
				c0.58,0,1.037,0.269,1.37,0.807c0.183-0.27,0.388-0.471,0.618-0.605c0.229-0.135,0.483-0.201,0.763-0.201
				c0.369,0,0.674,0.089,0.916,0.268c0.242,0.18,0.396,0.398,0.465,0.658c0.068,0.26,0.102,0.682,0.102,1.266v5.064h-2.105V139.9
				c0-0.608-0.021-0.985-0.062-1.13c-0.041-0.146-0.137-0.218-0.287-0.218c-0.154,0-0.253,0.071-0.298,0.215
				c-0.044,0.144-0.067,0.521-0.067,1.133v4.646h-2.105v-4.527c0-0.699-0.017-1.117-0.051-1.258
				c-0.034-0.139-0.128-0.209-0.282-0.209c-0.097,0-0.179,0.037-0.247,0.11s-0.105,0.163-0.113,0.269s-0.011,0.33-0.011,0.674v4.941
				h-2.105v-7.127H69.722z"/>
			<path fill="#E4E3EF" d="M80.974,141.109h-2.809v1.541c0,0.322,0.023,0.53,0.07,0.623c0.046,0.094,0.136,0.141,0.269,0.141
				c0.165,0,0.275-0.063,0.33-0.186c0.056-0.124,0.083-0.363,0.083-0.717v-0.94h2.057v0.526c0,0.44-0.028,0.779-0.083,1.016
				c-0.055,0.236-0.185,0.488-0.389,0.757s-0.463,0.47-0.776,0.604c-0.313,0.134-0.706,0.201-1.179,0.201
				c-0.458,0-0.863-0.066-1.214-0.199c-0.351-0.132-0.624-0.313-0.819-0.545c-0.195-0.23-0.33-0.485-0.405-0.763
				s-0.113-0.681-0.113-1.211v-2.079c0-0.623,0.084-1.114,0.252-1.474c0.168-0.36,0.444-0.636,0.827-0.827s0.824-0.287,1.321-0.287
				c0.609,0,1.111,0.115,1.506,0.346c0.396,0.231,0.673,0.537,0.833,0.919c0.16,0.381,0.239,0.917,0.239,1.608V141.109z
				 M78.799,139.949v-0.521c0-0.368-0.02-0.606-0.059-0.714s-0.12-0.161-0.242-0.161c-0.15,0-0.244,0.046-0.279,0.137
				c-0.036,0.092-0.054,0.338-0.054,0.738v0.521H78.799z"/>
			<path fill="#E4E3EF" d="M83.853,137.42l-0.086,0.937c0.315-0.671,0.771-1.026,1.37-1.065v2.508c-0.397,0-0.689,0.054-0.875,0.161
				s-0.301,0.257-0.344,0.448s-0.064,0.633-0.064,1.324v2.814h-2.17v-7.127H83.853z"/>
			<path fill="#E4E3EF" d="M90.416,140.11H88.37v-0.821c0-0.287-0.023-0.481-0.07-0.583c-0.046-0.103-0.132-0.153-0.258-0.153
				s-0.209,0.045-0.252,0.135c-0.043,0.089-0.064,0.289-0.064,0.602v3.361c0,0.255,0.032,0.445,0.097,0.572s0.159,0.191,0.285,0.191
				c0.147,0,0.246-0.066,0.298-0.199c0.052-0.133,0.078-0.383,0.078-0.752v-0.849h1.933c-0.003,0.569-0.023,0.996-0.062,1.281
				c-0.037,0.284-0.157,0.576-0.359,0.875s-0.467,0.524-0.792,0.677c-0.326,0.152-0.729,0.229-1.209,0.229
				c-0.612,0-1.098-0.104-1.456-0.314c-0.358-0.209-0.611-0.503-0.76-0.881c-0.148-0.378-0.223-0.914-0.223-1.608v-2.024
				c0-0.605,0.061-1.063,0.183-1.37s0.381-0.583,0.779-0.824c0.397-0.242,0.881-0.362,1.45-0.362c0.566,0,1.049,0.119,1.45,0.359
				c0.401,0.24,0.668,0.543,0.801,0.908S90.416,139.44,90.416,140.11z"/>
			<path fill="#E4E3EF" d="M93.296,135.852v1.133h-2.234v-1.133H93.296z M93.296,137.42v7.127h-2.234v-7.127H93.296z"/>
			<path fill="#E4E3EF" d="M96.013,140.18h-2.035v-0.478c0-0.552,0.063-0.977,0.19-1.275s0.383-0.563,0.766-0.792
				c0.383-0.229,0.881-0.344,1.493-0.344c0.734,0,1.287,0.129,1.659,0.389c0.373,0.26,0.597,0.578,0.672,0.956
				s0.112,1.156,0.112,2.334v3.577h-2.11v-0.635c-0.133,0.254-0.304,0.445-0.513,0.572c-0.21,0.128-0.46,0.191-0.75,0.191
				c-0.379,0-0.728-0.106-1.044-0.319c-0.317-0.213-0.476-0.68-0.476-1.399v-0.586c0-0.533,0.084-0.896,0.252-1.09
				c0.169-0.193,0.586-0.419,1.252-0.677c0.713-0.279,1.094-0.468,1.144-0.563c0.051-0.098,0.075-0.294,0.075-0.592
				c0-0.372-0.027-0.614-0.083-0.728c-0.056-0.112-0.147-0.169-0.276-0.169c-0.146,0-0.238,0.048-0.274,0.143
				c-0.035,0.095-0.054,0.341-0.054,0.738V140.18z M96.7,141.158c-0.347,0.254-0.548,0.467-0.604,0.639s-0.084,0.419-0.084,0.741
				c0,0.369,0.024,0.606,0.073,0.714c0.048,0.107,0.144,0.162,0.287,0.162c0.136,0,0.225-0.043,0.266-0.127s0.062-0.305,0.062-0.663
				V141.158z"/>
			<path fill="#E4E3EF" d="M101.852,135.852v8.695h-2.234v-8.695H101.852z"/>
			<path fill="#E4E3EF" d="M107.028,135.852h1.166v10.119h-1.166V135.852z"/>
			<path fill="#E4E3EF" d="M113.432,135.852h1.601c1.067,0,1.789,0.041,2.167,0.123s0.686,0.293,0.924,0.631
				c0.238,0.339,0.357,0.879,0.357,1.619c0,0.678-0.084,1.132-0.253,1.365c-0.168,0.232-0.499,0.372-0.993,0.418
				c0.447,0.111,0.748,0.26,0.902,0.446s0.25,0.357,0.287,0.513c0.038,0.156,0.057,0.585,0.057,1.287v2.293h-2.101v-2.89
				c0-0.466-0.036-0.754-0.109-0.864c-0.073-0.111-0.267-0.167-0.578-0.167v3.921h-2.261V135.852z M115.692,137.339v1.934
				c0.255,0,0.433-0.035,0.535-0.104c0.102-0.07,0.152-0.297,0.152-0.68v-0.479c0-0.275-0.049-0.456-0.147-0.542
				S115.954,137.339,115.692,137.339z"/>
			<path fill="#E4E3EF" d="M124.205,141.109h-2.809v1.541c0,0.322,0.023,0.53,0.069,0.623c0.047,0.094,0.137,0.141,0.269,0.141
				c0.165,0,0.275-0.063,0.331-0.186c0.056-0.124,0.083-0.363,0.083-0.717v-0.94h2.057v0.526c0,0.44-0.027,0.779-0.083,1.016
				s-0.186,0.488-0.39,0.757s-0.462,0.47-0.775,0.604c-0.313,0.134-0.707,0.201-1.18,0.201c-0.458,0-0.862-0.066-1.214-0.199
				c-0.351-0.132-0.623-0.313-0.818-0.545c-0.195-0.23-0.331-0.485-0.406-0.763s-0.112-0.681-0.112-1.211v-2.079
				c0-0.623,0.084-1.114,0.252-1.474c0.169-0.36,0.444-0.636,0.827-0.827c0.384-0.191,0.824-0.287,1.321-0.287
				c0.609,0,1.111,0.115,1.507,0.346c0.396,0.231,0.674,0.537,0.833,0.919c0.159,0.381,0.238,0.917,0.238,1.608V141.109z
				 M122.03,139.949v-0.521c0-0.368-0.02-0.606-0.06-0.714c-0.039-0.107-0.119-0.161-0.241-0.161c-0.15,0-0.243,0.046-0.279,0.137
				c-0.036,0.092-0.054,0.338-0.054,0.738v0.521H122.03z"/>
			<path fill="#E4E3EF" d="M129.346,139.697h-1.923v-0.387c0-0.33-0.019-0.538-0.056-0.626c-0.038-0.088-0.132-0.132-0.282-0.132
				c-0.122,0-0.213,0.04-0.274,0.121c-0.061,0.08-0.091,0.201-0.091,0.362c0,0.219,0.016,0.379,0.046,0.48
				c0.03,0.103,0.121,0.214,0.273,0.336s0.465,0.299,0.938,0.532c0.63,0.308,1.044,0.598,1.24,0.869
				c0.197,0.272,0.296,0.668,0.296,1.188c0,0.58-0.075,1.018-0.226,1.313c-0.15,0.295-0.402,0.522-0.755,0.682
				s-0.777,0.239-1.275,0.239c-0.552,0-1.023-0.086-1.415-0.258c-0.393-0.172-0.662-0.404-0.809-0.698s-0.221-0.737-0.221-1.332
				v-0.344h1.923v0.451c0,0.383,0.024,0.632,0.073,0.747c0.048,0.114,0.144,0.172,0.287,0.172c0.154,0,0.262-0.039,0.322-0.116
				s0.091-0.239,0.091-0.485c0-0.341-0.039-0.554-0.118-0.64c-0.082-0.086-0.503-0.34-1.262-0.763
				c-0.638-0.358-1.026-0.683-1.166-0.975s-0.209-0.639-0.209-1.039c0-0.57,0.075-0.989,0.226-1.26s0.405-0.479,0.766-0.626
				c0.359-0.146,0.777-0.22,1.254-0.22c0.473,0,0.875,0.06,1.206,0.18s0.585,0.278,0.763,0.475c0.177,0.197,0.284,0.38,0.322,0.549
				c0.037,0.168,0.056,0.431,0.056,0.789V139.697z"/>
			<path fill="#E4E3EF" d="M132.327,135.852v1.133h-2.234v-1.133H132.327z M132.327,137.42v7.127h-2.234v-7.127H132.327z"/>
			<path fill="#E4E3EF" d="M138.041,135.852v8.695h-2.17v-0.517c-0.207,0.215-0.426,0.376-0.655,0.484
				c-0.229,0.107-0.469,0.161-0.72,0.161c-0.336,0-0.628-0.089-0.875-0.266c-0.247-0.178-0.405-0.383-0.476-0.615
				c-0.069-0.232-0.104-0.612-0.104-1.139v-3.336c0-0.547,0.035-0.936,0.104-1.165c0.07-0.229,0.23-0.431,0.48-0.604
				c0.251-0.174,0.55-0.26,0.897-0.26c0.269,0,0.515,0.048,0.738,0.145c0.224,0.098,0.427,0.242,0.609,0.437v-2.021H138.041z
				 M135.871,139.213c0-0.261-0.021-0.437-0.066-0.525c-0.045-0.09-0.134-0.135-0.267-0.135c-0.129,0-0.215,0.04-0.26,0.121
				c-0.045,0.08-0.067,0.26-0.067,0.539v3.492c0,0.289,0.021,0.48,0.064,0.571c0.043,0.092,0.125,0.138,0.247,0.138
				c0.14,0,0.232-0.052,0.279-0.153c0.047-0.103,0.069-0.353,0.069-0.749V139.213z"/>
			<path fill="#E4E3EF" d="M143.734,141.109h-2.809v1.541c0,0.322,0.023,0.53,0.069,0.623c0.047,0.094,0.137,0.141,0.269,0.141
				c0.165,0,0.275-0.063,0.331-0.186c0.056-0.124,0.083-0.363,0.083-0.717v-0.94h2.057v0.526c0,0.44-0.027,0.779-0.083,1.016
				s-0.186,0.488-0.39,0.757s-0.462,0.47-0.775,0.604c-0.313,0.134-0.707,0.201-1.18,0.201c-0.458,0-0.862-0.066-1.214-0.199
				c-0.351-0.132-0.623-0.313-0.818-0.545c-0.195-0.23-0.331-0.485-0.406-0.763s-0.112-0.681-0.112-1.211v-2.079
				c0-0.623,0.084-1.114,0.252-1.474c0.169-0.36,0.444-0.636,0.827-0.827c0.384-0.191,0.824-0.287,1.321-0.287
				c0.609,0,1.111,0.115,1.507,0.346c0.396,0.231,0.674,0.537,0.833,0.919c0.159,0.381,0.238,0.917,0.238,1.608V141.109z
				 M141.56,139.949v-0.521c0-0.368-0.02-0.606-0.06-0.714c-0.039-0.107-0.119-0.161-0.241-0.161c-0.15,0-0.243,0.046-0.279,0.137
				c-0.036,0.092-0.054,0.338-0.054,0.738v0.521H141.56z"/>
			<path fill="#E4E3EF" d="M146.65,137.42l-0.037,0.656c0.157-0.262,0.35-0.458,0.577-0.589s0.49-0.196,0.787-0.196
				c0.372,0,0.677,0.087,0.913,0.263s0.389,0.396,0.456,0.663c0.068,0.267,0.103,0.712,0.103,1.335v4.995h-2.17v-4.936
				c0-0.491-0.017-0.79-0.049-0.897s-0.121-0.161-0.269-0.161c-0.153,0-0.25,0.062-0.29,0.186c-0.039,0.123-0.059,0.453-0.059,0.99
				v4.818h-2.17v-7.127H146.65z"/>
			<path fill="#E4E3EF" d="M152.484,136.469v1.123h0.585v1.127h-0.585v3.814c0,0.469,0.024,0.73,0.072,0.783
				c0.049,0.055,0.25,0.081,0.604,0.081v1.149h-0.876c-0.494,0-0.847-0.021-1.058-0.062s-0.397-0.137-0.559-0.285
				s-0.262-0.318-0.301-0.51s-0.06-0.642-0.06-1.351v-3.621h-0.467v-1.127h0.467v-1.123H152.484z"/>
			<path fill="#E4E3EF" d="M155.782,135.852v1.133h-2.234v-1.133H155.782z M155.782,137.42v7.127h-2.234v-7.127H155.782z"/>
			<path fill="#E4E3EF" d="M158.499,140.18h-2.035v-0.478c0-0.552,0.063-0.977,0.19-1.275s0.383-0.563,0.766-0.792
				c0.383-0.229,0.881-0.344,1.493-0.344c0.734,0,1.287,0.129,1.659,0.389c0.373,0.26,0.597,0.578,0.672,0.956
				s0.112,1.156,0.112,2.334v3.577h-2.11v-0.635c-0.133,0.254-0.304,0.445-0.513,0.572c-0.21,0.128-0.46,0.191-0.75,0.191
				c-0.379,0-0.728-0.106-1.044-0.319c-0.317-0.213-0.476-0.68-0.476-1.399v-0.586c0-0.533,0.084-0.896,0.252-1.09
				c0.169-0.193,0.586-0.419,1.252-0.677c0.713-0.279,1.094-0.468,1.144-0.563c0.051-0.098,0.075-0.294,0.075-0.592
				c0-0.372-0.027-0.614-0.083-0.728c-0.056-0.112-0.147-0.169-0.276-0.169c-0.146,0-0.238,0.048-0.274,0.143
				c-0.035,0.095-0.054,0.341-0.054,0.738V140.18z M159.187,141.158c-0.347,0.254-0.548,0.467-0.604,0.639s-0.084,0.419-0.084,0.741
				c0,0.369,0.024,0.606,0.073,0.714c0.048,0.107,0.144,0.162,0.287,0.162c0.136,0,0.225-0.043,0.266-0.127s0.062-0.305,0.062-0.663
				V141.158z"/>
			<path fill="#E4E3EF" d="M164.338,135.852v8.695h-2.234v-8.695H164.338z"/>
		</g>
		<g>
			<path fill="#0C132D" d="M14.567,88.632h172.851l-2.309-10.183l-2.309-0.462v-6.999l-2.85-0.877v-6.5l-2.258-1.934l-7.341,0.583
				v5.418l-3.198-0.032V57.407l-2.857-1.47l-14.135,0.882v5.152h-4.354V39.485l-5.39-3.295l-14.477,1.541l-0.811,0.583V73.57
				L21,58.789l-4,8.608l9.618,0.904v0.921l4.418,2.119l-4.212,16.058L14.567,88.632z M47.514,76.225c0,0-1.605-4.94-0.184-5.993
				l10.641,0.991v0.929l3.753,1.804l-2.672,10.19l-9.008,0.911C49.581,82.998,48.795,79.992,47.514,76.225z M116.741,76.699
				c0.468,0.27,1.047,0.722,1.636,1.463l-5.768,0.582c0.623-0.949,1.422-1.732,2.443-2.2L116.741,76.699z M110.845,77.687
				l-0.335,1.269l-9.141,0.923c-0.035-0.109-0.066-0.215-0.111-0.329c0,0-1.106-3.43-0.207-4.313l7.007,0.654v0.462L110.845,77.687z
				 M95.938,74.76c1.067,0.567,2.699,1.948,3.9,5.271l-10.229,1.033c0.75-2.702,2.121-5.375,4.619-6.461L95.938,74.76z
				 M89.227,75.985l-1.379,5.258l-10.801,1.089c-0.352-1.243-0.782-2.655-1.319-4.225c0,0-1.534-4.761,0.128-5.219L86,73.835v0.598
				L89.227,75.985z M68.89,72.242c1.391,0.502,4.717,2.507,6.226,10.284l-13.743,1.385c0.53-4.211,2.093-10.166,6.664-11.749
				L68.89,72.242z M120.727,77.927c0.02-0.347,0.1-0.642,0.254-0.833l4.151,0.386L120.727,77.927z M38.084,69.369l1.904,0.179
				c2.097,1.002,6.185,4.409,7.373,15.78l-17.045,1.716C30.411,83.388,31.267,72.119,38.084,69.369z"/>
			<polygon fill="#E4E3EF" points="125.794,38.936 138.481,37.493 138.481,75.229 20.5,64.343 22.355,61.117 125.794,73.665 			"/>
			<polygon fill="#E4E3EF" points="150.985,57.736 162.453,57.014 162.453,75.661 150.985,75.661 			"/>
		</g>
	</g>
</g>
</svg>
