<?xml version="1.0" encoding="utf-8"?>
<!-- Generator: Adobe Illustrator 16.0.0, SVG Export Plug-In . SVG Version: 6.00 Build 0)  -->
<!DOCTYPE svg PUBLIC "-//W3C//DTD SVG 1.1//EN" "http://www.w3.org/Graphics/SVG/1.1/DTD/svg11.dtd">
<svg version="1.1" xmlns="http://www.w3.org/2000/svg" xmlns:xlink="http://www.w3.org/1999/xlink" x="0px" y="0px" width="210px"
	 height="210px" viewBox="0 0 210 210" enable-background="new 0 0 210 210" xml:space="preserve">
<g id="background" display="none">
	<rect x="40.75" y="8.5" display="inline" fill="#0C132D" width="200" height="200"/>
</g>
<g id="Layer_1">
	<linearGradient id="SVGID_1_" gradientUnits="userSpaceOnUse" x1="104.9995" y1="0" x2="104.9995" y2="210.0005">
		<stop  offset="0" style="stop-color:#FFFFFF"/>
		<stop  offset="0.2782" style="stop-color:#A1A6BA"/>
		<stop  offset="0.5282" style="stop-color:#00AEEF"/>
		<stop  offset="1" style="stop-color:#0C132D"/>
	</linearGradient>
	<path fill="none" stroke="url(#SVGID_1_)" stroke-width="10" stroke-miterlimit="10" d="M105,5C49.768,5,5,49.77,5,105
		s44.768,100,100,100c55.232,0,100-44.77,100-100S160.232,5,105,5z"/>
	<linearGradient id="SVGID_2_" gradientUnits="userSpaceOnUse" x1="105.0005" y1="198.8877" x2="105.0005" y2="11.1128">
		<stop  offset="0" style="stop-color:#FFFFFF"/>
		<stop  offset="0.2782" style="stop-color:#A1A6BA"/>
		<stop  offset="0.5282" style="stop-color:#00AEEF"/>
		<stop  offset="1" style="stop-color:#0C132D"/>
	</linearGradient>
	<path fill="none" stroke="url(#SVGID_2_)" stroke-width="10" stroke-miterlimit="10" d="M194,105c0,49.089-39.855,88.888-89,88.888
		c-49.154,0-89-39.799-89-88.888c0-49.093,39.846-88.888,89-88.888C154.145,16.112,194,55.907,194,105z"/>
	<g>
		<linearGradient id="SVGID_3_" gradientUnits="userSpaceOnUse" x1="105" y1="120.8535" x2="105" y2="16.1128">
			<stop  offset="0" style="stop-color:#FFFFFF"/>
			<stop  offset="0.2782" style="stop-color:#A1A6BA"/>
			<stop  offset="0.5282" style="stop-color:#00AEEF"/>
			<stop  offset="1" style="stop-color:#0C132D"/>
		</linearGradient>
		<path fill="url(#SVGID_3_)" d="M194,105c0-49.093-39.855-88.888-89-88.888c-49.154,0-89,39.795-89,88.888
			c0,5.411,0.486,10.709,1.413,15.854h175.173C193.514,115.709,194,110.411,194,105z"/>
		<path fill="#0C132D" d="M17.413,120.854c7.486,41.525,43.851,73.034,87.587,73.034c43.727,0,80.099-31.509,87.586-73.034H17.413z"
			/>
	</g>
	<path fill="#0C132D" d="M18.918,120.854h173.55l-2.311-10.232l-2.333-0.458v-7.039l-2.858-0.885v-6.514l-2.255-1.951l-7.38,0.597
		v5.441l-3.21-0.036V89.501l-2.869-1.492L155.068,88.9v5.185h-4.379V71.504l-5.422-3.322l-14.529,1.549l-0.808,0.597v35.398
		L17.934,89.874l-1.669,8.644l14.751,1.911v0.937l4.44,2.115l-4.228,16.127L18.918,120.854z M52.003,108.382
		c0,0-1.612-4.964-0.188-6.004l10.686,0.993v0.918l3.761,1.829l-2.678,10.216l-9.042,0.924
		C54.072,115.188,53.281,112.174,52.003,108.382z M121.513,108.855c0.463,0.286,1.045,0.729,1.633,1.484l-5.794,0.571
		c0.63-0.944,1.438-1.731,2.466-2.209L121.513,108.855z M115.593,109.859l-0.335,1.271l-9.182,0.925
		c-0.04-0.115-0.075-0.21-0.125-0.337c0,0-1.102-3.432-0.19-4.323l7.022,0.652v0.458L115.593,109.859z M100.62,106.92
		c1.067,0.565,2.711,1.944,3.918,5.299l-10.273,1.028c0.751-2.71,2.13-5.406,4.634-6.482L100.62,106.92z M93.876,108.157
		l-1.376,5.258l-10.846,1.105c-0.354-1.256-0.787-2.659-1.332-4.243c0,0-1.534-4.785,0.136-5.238l10.187,0.941v0.613L93.876,108.157
		z M73.456,104.394c1.403,0.504,4.737,2.515,6.261,10.326l-13.809,1.396c0.536-4.228,2.112-10.214,6.694-11.813L73.456,104.394z
		 M125.504,110.094c0.022-0.348,0.104-0.639,0.268-0.833l4.159,0.395L125.504,110.094z M42.525,101.51l1.92,0.181
		c2.104,1.005,6.209,4.43,7.395,15.831l-17.113,1.729C34.823,115.585,35.685,104.261,42.525,101.51z"/>
	<polygon fill="#FFFFFF" points="130.925,70.631 143.838,69.174 143.838,107.557 17.801,96.492 18.688,92.209 130.925,105.959 	"/>
	<polygon fill="#FFFFFF" points="156.561,89.768 168.228,89.026 168.228,108 156.561,108 	"/>
	<path fill="none" stroke="#000000" stroke-width="2" stroke-miterlimit="10" d="M5,155.12"/>
</g>
</svg>
