<?xml version="1.0" encoding="utf-8"?>
<!-- Generator: Adobe Illustrator 16.0.0, SVG Export Plug-In . SVG Version: 6.00 Build 0)  -->
<!DOCTYPE svg PUBLIC "-//W3C//DTD SVG 1.1//EN" "http://www.w3.org/Graphics/SVG/1.1/DTD/svg11.dtd">
<svg version="1.1" id="Layer_1" xmlns="http://www.w3.org/2000/svg" xmlns:xlink="http://www.w3.org/1999/xlink" x="0px" y="0px"
	 width="300px" height="40px" viewBox="0 0 300 40" enable-background="new 0 0 300 40" xml:space="preserve">
<g>
	<g>
		<path fill="#F0F4F8" d="M7.741,33.188l-2.722,4.166L1,34.422l2.748-4.021l-0.539-2.948l1.557-1.805l2.599-0.479l12.717-11.393
			c0,0,1.592-1.62-0.124-6.505c-0.032-0.092-0.064-0.183-0.099-0.28c-1.876-5.096,6.932-6.124,6.932-6.124L52.145,2.62
			c0,0,1.277,0.637,1.584,2.32l4.1,0.193L57.97,5.91l31.92-0.034c0,0-0.305-2.046,3.435-2.227c3.743-0.173,0.052,0.281,0.052,0.281
			l69.12-0.149c0,0,1.754,0.476,1.922,2.187l124.354,0.518l0.879-1.136l2.25-0.193l0.213,1.157l0.668-1.101l1.688-0.309l0.172,0.944
			l0.9-1.031c0,0,2.746-1.048,3.064,1.288l0.301,4.625l-9.5,0.431l-0.785-1.924L164.814,8.903l-2.02,2.654l-71.099-0.172
			l-2.35-2.726l-31.86,0.163l-0.871,0.594l-3.85,0.38c0,0-0.246,2.221-3.463,2.482l-2.987,0.328L25.109,37.706
			c0,0-3.02,4.907-10.925,0.368L7.741,33.188z"/>
	</g>
</g>
</svg>
