<?xml version="1.0" encoding="utf-8"?>
<!-- Generator: Adobe Illustrator 16.0.0, SVG Export Plug-In . SVG Version: 6.00 Build 0)  -->
<!DOCTYPE svg PUBLIC "-//W3C//DTD SVG 1.1//EN" "http://www.w3.org/Graphics/SVG/1.1/DTD/svg11.dtd">
<svg version="1.1" id="Layer_1" xmlns="http://www.w3.org/2000/svg" xmlns:xlink="http://www.w3.org/1999/xlink" x="0px" y="0px"
	 width="160px" height="100px" viewBox="0 0 160 100" enable-background="new 0 0 160 100" xml:space="preserve">
<g>
	<polygon fill="#103955" points="10.408,24.843 6.328,32.34 140.344,45.527 140.344,42.983 	"/>
	<g>
		<path fill="#103955" d="M13.476,32.953v1.156l3.013,1.358c0,0,0.949,0.411,0.916,0.513l-3.929,14.851h0.973
			c0,0,2.299-17.554,9.797-16.813L13.476,32.953z"/>
		<path fill="#103955" d="M16.215,50.831h-1.766c0,0,1.431-17.642,9.797-16.813c0,0-7.214,0.903-7.486,16.813"/>
		<path fill="#103955" d="M24.246,34.019c0,0,6.653,0.224,7.876,16.813h2.72c0,0-0.409-3.469-2.312-8.942
			c0,0-2.468-7.293-0.125-7.062L24.246,34.019z"/>
	</g>
	<path fill="#103955" d="M69.307,39.21"/>
	<g>
		<path fill="#103955" d="M67.067,38.116v0.82l2.142,0.968c0,0,0.676,0.293,0.653,0.361l-2.794,10.566h0.691
			c0,0,1.635-12.484,6.968-11.957L67.067,38.116z"/>
		<path fill="#103955" d="M69.017,50.831h-1.259c0,0,1.018-12.546,6.968-11.957c0,0-5.13,0.642-5.325,11.957"/>
		<path fill="#103955" d="M74.727,38.875c0,0,4.731,0.16,5.604,11.957h1.933c0,0-0.291-2.468-1.644-6.358
			c0,0-1.756-5.188-0.09-5.024L74.727,38.875z"/>
	</g>
	<g>
		<path fill="#103955" d="M42.463,35.825v0.97l2.528,1.14c0,0,0.797,0.346,0.771,0.43l-3.299,12.466h0.816
			c0,0,1.931-14.735,8.225-14.111L42.463,35.825z"/>
		<path fill="#103955" d="M44.763,50.831h-1.484c0,0,1.202-14.806,8.225-14.111c0,0-6.057,0.758-6.285,14.111"/>
		<path fill="#103955" d="M51.504,36.72c0,0,5.583,0.187,6.609,14.111h2.282c0,0-0.341-2.91-1.94-7.503c0,0-2.071-6.125-0.106-5.929
			L51.504,36.72z"/>
	</g>
	<g>
		<path fill="#103955" d="M87.039,39.922v0.692l1.798,0.81c0,0,0.567,0.246,0.547,0.306l-2.345,8.865h0.582
			c0,0,1.37-10.48,5.848-10.036L87.039,39.922z"/>
		<path fill="#103955" d="M88.674,50.596h-1.053c0,0,0.853-10.528,5.848-10.036c0,0-4.307,0.542-4.47,10.036"/>
		<path fill="#103955" d="M93.469,40.56c0,0,3.973,0.133,4.703,10.036h1.623c0,0-0.242-2.069-1.381-5.335
			c0,0-1.472-4.356-0.074-4.218L93.469,40.56z"/>
	</g>
	<polygon fill="#103955" points="101.324,37.716 101.324,7.017 102.037,6.51 113.355,5.388 113.56,39.414 	"/>
	<polygon fill="#103955" points="113.355,5.388 114.427,5.388 114.427,39.332 113.355,39.21 	"/>
	<polygon fill="#103955" points="114.427,5.388 119.475,8.038 119.475,40.06 114.427,39.534 	"/>
	<polygon fill="#103955" points="119.475,27.616 123.298,27.616 123.298,40.737 119.475,40.227 	"/>
	<polygon fill="#103955" points="123.298,40.737 123.298,23.128 135.992,22.36 135.533,42.417 	"/>
	<polygon fill="#103955" points="135.992,22.36 138.388,23.64 138.031,42.808 135.533,42.417 	"/>
	<polygon fill="#103955" points="138.216,32.561 141.023,32.481 141.023,43.319 138.031,42.605 	"/>
	<polygon fill="#103955" points="141.023,27.869 141.023,43.319 147.465,44.186 147.465,27.361 	"/>
	<polygon fill="#103955" points="147.465,27.361 149.45,29.045 149.45,44.389 147.465,44.186 	"/>
	<polygon fill="#103955" points="149.45,34.703 151.95,35.467 151.95,45 149.45,44.186 	"/>
	<path fill="#103955" d="M7.311,50.831H156l-2.024-8.868C153.056,41.511,138.338,37.756,7.311,50.831z"/>
	<path fill="#103955" d="M98.34,41.042L4.273,50.831l147.677-2.907C151.95,47.924,109.426,38.258,98.34,41.042z"/>
	<polygon fill="#F0F4F8" points="112.736,6.872 101.909,7.559 101.909,37.635 113.355,38.52 	"/>
	<polygon fill="#F0F4F8" points="114.427,39.534 11.109,26.87 9.48,29.68 	"/>
	<polygon fill="#F0F4F8" points="134.087,23.013 124.021,23.928 124.021,39.534 134.087,39.534 	"/>
	<g>
		<g>
			<path fill="#103955" d="M2.05,72.967V53.758H6.85c2.7,0,3.699,0.149,4.215,0.262c1.148,0.251,2.125,0.91,2.827,1.907
				c0.666,0.946,0.989,2.249,0.989,3.983c0,1.459-0.192,2.48-0.617,3.238c0.221,0.358,0.373,0.719,0.462,1.087
				c0.075,0.313,0.155,0.805,0.155,2.72v6.012H2.05z"/>
			<rect x="12.299" y="53.758" fill="#103955" width="7.908" height="19.209"/>
			<polygon fill="#103955" points="18.97,72.967 16.451,56.501 29.728,56.501 27.383,72.967 			"/>
			<path fill="#103955" d="M32.327,73.192c-1.039,0-1.991-0.16-2.829-0.477c-0.933-0.352-1.691-0.867-2.254-1.532
				c-0.531-0.629-0.904-1.335-1.113-2.102c-0.18-0.665-0.267-1.529-0.267-2.644v-3.635c0-1.398,0.206-2.519,0.63-3.426
				c0.488-1.045,1.284-1.849,2.364-2.389c0.949-0.474,2.027-0.714,3.206-0.714c1.417,0,2.643,0.295,3.642,0.877
				c1.075,0.628,1.846,1.49,2.294,2.563c0.386,0.924,0.573,2.097,0.573,3.585l-0.002,3.654c-0.012,0.803-0.076,1.445-0.196,1.959
				c-0.162,0.688-0.511,1.387-1.037,2.079c-0.567,0.747-1.295,1.314-2.163,1.686C34.371,73.024,33.438,73.192,32.327,73.192z"/>
			<path fill="#103955" d="M35.813,72.967V56.501h6.776c0.428-0.142,0.82-0.2,1.132-0.222l2.132-0.141v8.523h-2
				c-0.083,0-0.156,0.002-0.22,0.005c-0.013,0.287-0.025,0.725-0.025,1.377v6.923H35.813z"/>
			<path fill="#103955" d="M52.814,73.286c-1.498,0-2.789-0.297-3.839-0.882c-1.184-0.661-2.021-1.652-2.419-2.865
				c-0.314-0.953-0.467-2.253-0.467-3.974v-4.443c0-1.198,0.043-2.094,0.131-2.737c0.121-0.882,0.472-1.722,1.042-2.497
				c0.579-0.789,1.372-1.41,2.354-1.843c0.913-0.402,1.951-0.606,3.084-0.606c1.523,0,2.837,0.321,3.905,0.956
				c1.167,0.693,1.959,1.613,2.357,2.734c0.318,0.898,0.472,2.143,0.472,3.807v4.527c0,1.835-0.139,3.102-0.438,3.988
				c-0.368,1.092-1.135,2.023-2.279,2.768C55.631,72.928,54.317,73.286,52.814,73.286z"/>
			<rect x="56.742" y="53.758" fill="#103955" width="7.908" height="19.209"/>
			<path fill="#103955" d="M67.667,72.967c-1.017,0-1.727-0.046-2.234-0.146c-0.733-0.142-1.391-0.475-1.949-0.989
				c-0.586-0.541-0.977-1.219-1.129-1.961c-0.071-0.348-0.145-0.947-0.145-2.766v-4.331h-0.817v-5.973h0.817v-1.964h7.805v1.964
				h1.024v5.973h-1.024v4.182h1.184v6.011H67.667z"/>
			<path fill="#103955" d="M68.006,74.714v-5.991h1.077l-2.436-12.222h13.427l-1.353,11.257c-0.181,1.501-0.333,2.521-0.465,3.115
				c-0.181,0.816-0.506,1.523-0.967,2.102c-0.514,0.645-1.205,1.114-2.054,1.397c-0.701,0.233-1.631,0.342-2.928,0.342H68.006z"/>
			<path fill="#103955" d="M80.002,72.967V53.758h5.984c1.277,0,2.272,0.109,3.044,0.334c0.936,0.273,1.683,0.712,2.224,1.306
				c0.524,0.575,0.883,1.27,1.063,2.063c0.141,0.617,0.206,1.429,0.206,2.554v1.324c0,1.282-0.151,2.217-0.476,2.941
				c-0.406,0.896-1.137,1.598-2.115,2.033c-0.576,0.255-1.228,0.416-1.976,0.487v6.167H80.002z"/>
			<path fill="#103955" d="M89.547,72.967V56.501h6.775c0.429-0.142,0.821-0.2,1.134-0.222l2.132-0.141v8.523h-2
				c-0.083,0-0.156,0.002-0.221,0.005c-0.014,0.287-0.025,0.724-0.025,1.377v6.923H89.547z"/>
			<path fill="#103955" d="M102.707,73.192c-1.055,0-1.95-0.121-2.737-0.371c-0.938-0.298-1.701-0.78-2.267-1.435
				c-0.524-0.607-0.899-1.334-1.112-2.16c-0.184-0.702-0.271-1.62-0.271-2.882v-3.193c0-1.419,0.166-2.541,0.508-3.432
				c0.412-1.073,1.147-1.936,2.186-2.563c0.963-0.584,2.152-0.881,3.533-0.881c1.114,0,2.111,0.18,2.963,0.535
				c0.91,0.376,1.649,0.905,2.193,1.57c0.503,0.617,0.858,1.282,1.057,1.977c0.176,0.628,0.26,1.45,0.26,2.521v3.053
				c0,1.294-0.068,2.212-0.216,2.89c-0.18,0.831-0.558,1.606-1.125,2.304c-0.596,0.732-1.362,1.276-2.278,1.617
				C104.599,73.041,103.692,73.192,102.707,73.192z"/>
			<polygon fill="#103955" points="110.974,72.967 108.736,53.758 128.907,53.758 126.682,72.967 			"/>
			<path fill="#103955" d="M129.818,73.192c-1.064,0-2.055-0.302-2.942-0.897c-1.141-0.768-1.718-2.149-1.718-4.108v-1.024
				c0-0.709,0.069-1.313,0.214-1.833h-0.214v-2.836c0-1.248,0.161-2.234,0.494-3.015c0.391-0.919,1.116-1.7,2.156-2.319
				c0.977-0.586,2.201-0.884,3.635-0.884c1.715,0,3.038,0.34,4.043,1.038c1.076,0.751,1.765,1.763,1.995,2.927
				c0.109,0.542,0.235,1.545,0.235,4.47v8.257h-6.42C130.837,73.117,130.343,73.192,129.818,73.192z"/>
			<path fill="#103955" d="M141.119,73.192c-1.238,0-2.341-0.208-3.278-0.62c-1.125-0.493-1.933-1.22-2.4-2.16
				c-0.399-0.795-0.595-1.851-0.595-3.222v-2.602h0.435c-0.357-0.766-0.538-1.65-0.538-2.631c0-1.356,0.212-2.396,0.647-3.178
				c0.484-0.873,1.269-1.539,2.329-1.972c0.87-0.354,1.861-0.533,2.949-0.533c1.071,0,1.983,0.142,2.79,0.434
				c0.888,0.321,1.607,0.784,2.14,1.374c0.547,0.606,0.885,1.215,1.029,1.857c0.101,0.459,0.146,1.034,0.146,1.82v2.724h-0.324
				c0.409,0.76,0.615,1.698,0.615,2.8c0,1.349-0.2,2.397-0.613,3.206c-0.47,0.927-1.237,1.638-2.279,2.107
				C143.3,72.992,142.272,73.192,141.119,73.192z"/>
			<path fill="#103955" d="M144.08,72.967V53.758h7.795v2.524c0.091-0.005,0.182-0.007,0.273-0.007c1.09,0,2.056,0.299,2.868,0.887
				c1.079,0.783,1.481,1.701,1.63,2.333c0.09,0.392,0.207,1.105,0.207,2.876v10.596H144.08z"/>
		</g>
		<g>
			<path fill="#F0F4F8" d="M3.05,71.967V54.758H6.85c1.955,0,3.264,0.078,4.003,0.238c0.911,0.199,1.658,0.706,2.221,1.507
				c0.543,0.771,0.807,1.886,0.807,3.407c0,1.431-0.2,2.375-0.63,2.971c-0.068,0.094-0.142,0.182-0.223,0.264
				c0.008,0.009,0.015,0.018,0.022,0.026c0.37,0.447,0.601,0.872,0.705,1.3c0.063,0.262,0.126,0.76,0.126,2.484v5.012H3.05z"/>
			<rect x="13.299" y="54.758" fill="#F0F4F8" width="5.908" height="17.209"/>
			<polygon fill="#F0F4F8" points="19.829,71.967 17.616,57.501 23.059,57.501 23.097,57.825 23.13,57.501 28.575,57.501 
				26.515,71.967 			"/>
			<path fill="#F0F4F8" d="M32.327,72.192c-0.918,0-1.751-0.139-2.476-0.412c-0.771-0.291-1.391-0.709-1.843-1.243
				c-0.436-0.515-0.742-1.093-0.911-1.718c-0.157-0.577-0.232-1.356-0.232-2.381v-3.635c0-1.249,0.175-2.231,0.536-3.003
				c0.39-0.835,1.031-1.48,1.905-1.917c0.808-0.403,1.736-0.608,2.758-0.608c1.238,0,2.294,0.249,3.139,0.741
				c0.882,0.516,1.512,1.217,1.875,2.085c0.333,0.799,0.495,1.846,0.495,3.199v3.382c0,0.854-0.056,1.509-0.172,2.004
				c-0.129,0.55-0.418,1.122-0.858,1.702c-0.462,0.607-1.054,1.068-1.76,1.37C34.104,72.051,33.3,72.192,32.327,72.192z"/>
			<path fill="#F0F4F8" d="M36.813,71.967V57.501h5.891l-0.001,0.019c0.382-0.152,0.755-0.22,1.085-0.242l1.066-0.07v6.455h-1
				c-0.736,0-0.989,0.124-1.032,0.148c-0.107,0.063-0.117,0.102-0.125,0.137c-0.021,0.093-0.088,0.518-0.088,2.097v5.923H36.813z"/>
			<path fill="#F0F4F8" d="M52.814,72.286c-1.325,0-2.453-0.254-3.352-0.756c-0.975-0.544-1.633-1.319-1.957-2.304
				c-0.281-0.851-0.417-2.049-0.417-3.661v-4.443c0-1.152,0.04-2.003,0.122-2.602c0.098-0.714,0.386-1.4,0.857-2.04
				c0.475-0.647,1.132-1.159,1.952-1.521c0.786-0.346,1.688-0.521,2.682-0.521c1.341,0,2.483,0.274,3.395,0.816
				c0.96,0.57,1.608,1.313,1.925,2.209c0.279,0.788,0.415,1.924,0.415,3.472v2.445h-5.392v0.489h5.392v1.593
				c0,1.699-0.126,2.898-0.386,3.668c-0.294,0.874-0.926,1.632-1.876,2.25C55.25,71.981,54.12,72.286,52.814,72.286z"/>
			<rect x="57.742" y="54.758" fill="#F0F4F8" width="5.908" height="17.209"/>
			<path fill="#F0F4F8" d="M67.667,71.967c-0.938,0-1.605-0.042-2.042-0.127c-0.55-0.106-1.043-0.356-1.463-0.743
				c-0.438-0.403-0.716-0.884-0.828-1.427c-0.058-0.28-0.124-0.826-0.124-2.564v-5.331h-0.817v-3.973h0.817v-1.964h5.805v1.964
				h1.024v3.973h-1.024v5.67c0,0.209,0.003,0.376,0.007,0.51c0.053,0.001,1.176,0.002,1.176,0.002v4.011H67.667z"/>
			<path fill="#F0F4F8" d="M69.006,73.714v-3.991c0,0,1.211-0.001,1.296-0.003c-0.032-0.163-2.436-12.219-2.436-12.219h5.527
				l0.042,0.283l0.021-0.283h5.491l-1.219,10.138c-0.176,1.468-0.323,2.455-0.448,3.019c-0.147,0.666-0.407,1.236-0.772,1.694
				c-0.391,0.49-0.926,0.851-1.588,1.071c-0.588,0.196-1.442,0.291-2.612,0.291H69.006z"/>
			<path fill="#F0F4F8" d="M81.002,71.967V54.758h4.984c1.181,0,2.085,0.096,2.764,0.294c0.756,0.221,1.35,0.563,1.765,1.019
				c0.407,0.447,0.686,0.989,0.827,1.611c0.122,0.535,0.182,1.298,0.182,2.332v1.324c0,1.121-0.127,1.949-0.389,2.532
				c-0.306,0.676-0.847,1.189-1.608,1.528c-0.673,0.299-1.492,0.443-2.507,0.443h-0.063v6.125H81.002z"/>
			<path fill="#F0F4F8" d="M90.547,71.967V57.501h5.891l-0.002,0.019c0.384-0.152,0.756-0.22,1.086-0.242l1.066-0.07v6.455h-1
				c-0.737,0-0.988,0.123-1.03,0.147c-0.11,0.063-0.119,0.104-0.126,0.135c-0.028,0.123-0.09,0.561-0.09,2.1v5.923H90.547z"/>
			<path fill="#F0F4F8" d="M102.707,72.192c-0.938,0-1.757-0.109-2.436-0.324c-0.759-0.241-1.368-0.623-1.812-1.136
				c-0.423-0.489-0.727-1.081-0.9-1.756c-0.161-0.612-0.239-1.475-0.239-2.632v-3.193c0-1.294,0.145-2.299,0.441-3.073
				c0.33-0.861,0.926-1.557,1.77-2.066c0.805-0.488,1.82-0.736,3.016-0.736c0.981,0,1.849,0.154,2.578,0.458
				c0.758,0.313,1.366,0.745,1.804,1.28c0.416,0.511,0.708,1.055,0.869,1.617c0.149,0.535,0.222,1.269,0.222,2.248v3.053
				c0,1.204-0.063,2.08-0.192,2.678c-0.146,0.677-0.457,1.311-0.924,1.885c-0.481,0.592-1.104,1.033-1.852,1.312
				C104.361,72.063,103.572,72.192,102.707,72.192z"/>
			<path fill="#F0F4F8" d="M119.138,71.967c0,0-0.284-1.484-0.347-1.831c-0.045,0.315-0.262,1.831-0.262,1.831h-6.666l-2.004-17.209
				h5.89l0.043,0.551l0.074-0.551h5.866l0.102,0.831l0.121-0.831h5.829l-1.993,17.209H119.138z"/>
			<path fill="#F0F4F8" d="M129.818,72.192c-0.862,0-1.665-0.245-2.385-0.729c-0.858-0.577-1.275-1.648-1.275-3.277v-1.024
				c0-1.209,0.219-2.023,0.689-2.563c0.078-0.091,0.17-0.181,0.277-0.27h-0.967v-1.836c0-1.111,0.136-1.969,0.414-2.622
				c0.307-0.722,0.895-1.345,1.748-1.854c0.821-0.492,1.873-0.742,3.123-0.742c1.504,0,2.641,0.281,3.473,0.859
				c0.87,0.607,1.402,1.381,1.585,2.3c0.146,0.732,0.216,2.092,0.216,4.275v7.257h-5.591
				C130.728,72.117,130.291,72.192,129.818,72.192z"/>
			<path fill="#F0F4F8" d="M141.119,72.192c-1.099,0-2.066-0.18-2.876-0.535c-0.905-0.397-1.547-0.966-1.908-1.69
				c-0.329-0.656-0.489-1.565-0.489-2.776v-1.602h1.613c-0.623-0.464-1.031-0.916-1.254-1.382c-0.307-0.642-0.463-1.398-0.463-2.249
				c0-1.182,0.171-2.062,0.521-2.69c0.372-0.672,0.989-1.188,1.833-1.533c0.749-0.305,1.613-0.459,2.571-0.459
				c0.939,0,1.764,0.126,2.45,0.374c0.731,0.265,1.315,0.636,1.736,1.104c0.43,0.476,0.69,0.937,0.797,1.407
				c0.083,0.377,0.122,0.898,0.122,1.601v1.724h-1.702c0.583,0.377,1.008,0.753,1.286,1.136c0.477,0.66,0.707,1.53,0.707,2.664
				c0,1.188-0.165,2.087-0.504,2.752c-0.365,0.72-0.971,1.276-1.8,1.649C143.019,72.021,142.129,72.192,141.119,72.192z"/>
			<path fill="#F0F4F8" d="M145.08,71.967V54.758h5.795v2.704c0.405-0.124,0.832-0.187,1.273-0.187c0.875,0,1.643,0.234,2.281,0.697
				c0.666,0.482,1.084,1.072,1.243,1.751c0.122,0.53,0.181,1.395,0.181,2.647v9.596H145.08z"/>
		</g>
		<text transform="matrix(1 0 0 1 3.2612 70.9668)" fill="#103955" font-family="'Impact'" font-size="19.239">River City Pro Wash</text>
	</g>
	<g>
		<path fill="#CEDBE5" d="M18.227,89.391l-1.195,1.827l-1.764-1.287l1.206-1.765l-0.236-1.293l0.683-0.792l1.141-0.211l5.582-5.001
			c0,0,0.698-0.711-0.054-2.854c-0.014-0.04-0.028-0.079-0.044-0.123c-0.823-2.235,3.043-2.688,3.043-2.688l11.127,0.77
			c0,0,0.561,0.28,0.696,1.018l1.799,0.086l0.062,0.34l14.009-0.015c0,0-0.134-0.896,1.508-0.977
			c1.642-0.076,0.022,0.124,0.022,0.124l30.336-0.067c0,0,0.771,0.209,0.845,0.961l54.577,0.228l0.386-0.499l0.988-0.084
			l0.093,0.506l0.294-0.481l0.741-0.136l0.074,0.414l0.396-0.453c0,0,1.205-0.459,1.346,0.566l0.133,2.03l-4.171,0.188l-0.345-0.845
			L87.166,78.73l-0.887,1.165l-31.205-0.074l-1.031-1.197L40.06,78.696l-0.382,0.26l-1.69,0.167c0,0-0.108,0.975-1.52,1.089
			l-1.311,0.145l-9.308,11.016c0,0-1.326,2.154-4.795,0.162L18.227,89.391z"/>
	</g>
</g>
</svg>
